M48
; DRILL file {KiCad (5.1.9)-1} date 03/08/21 11:19:01
; FORMAT={-:-/ absolute / inch / decimal}
; #@! TF.CreationDate,2021-03-08T11:19:01-03:00
; #@! TF.GenerationSoftware,Kicad,Pcbnew,(5.1.9)-1
; #@! TF.FileFunction,NonPlated,1,2,NPTH
FMAT,2
INCH
T1C0.0197
%
G90
G05
T1
X5.9936Y-4.1634
X5.9936Y-4.2224
X6.0231Y-4.1634
X6.0231Y-4.2224
X6.0527Y-4.1634
X6.0527Y-4.2224
X6.0831Y-4.1634
X6.0831Y-4.2224
X6.1131Y-4.1634
X6.1131Y-4.2224
X6.7318Y-4.1634
X6.7318Y-4.2224
X6.7613Y-4.1634
X6.7613Y-4.2224
X6.7909Y-4.1634
X6.7909Y-4.2224
X6.8213Y-4.1634
X6.8213Y-4.2224
X6.8513Y-4.1634
X6.8513Y-4.2224
X7.372Y-4.5561
X7.372Y-4.5861
X7.372Y-4.6166
X7.372Y-4.6461
X7.372Y-4.6757
X7.372Y-5.6093
X7.372Y-5.6393
X7.372Y-5.6698
X7.372Y-5.6993
X7.372Y-5.7288
X7.4311Y-4.5561
X7.4311Y-4.5861
X7.4311Y-4.6166
X7.4311Y-4.6461
X7.4311Y-4.6757
X7.4311Y-5.6093
X7.4311Y-5.6393
X7.4311Y-5.6698
X7.4311Y-5.6993
X7.4311Y-5.7288
X7.9818Y-4.1634
X7.9818Y-4.2224
X8.0113Y-4.1634
X8.0113Y-4.2224
X8.0409Y-4.1634
X8.0409Y-4.2224
X8.0713Y-4.1634
X8.0713Y-4.2224
X8.1013Y-4.1634
X8.1013Y-4.2224
X8.72Y-4.1634
X8.72Y-4.2224
X8.7495Y-4.1634
X8.7495Y-4.2224
X8.7791Y-4.1634
X8.7791Y-4.2224
X8.8095Y-4.1634
X8.8095Y-4.2224
X8.8395Y-4.1634
X8.8395Y-4.2224
T0
M30
