M48
; DRILL file {KiCad (5.1.9)-1} date 03/10/21 13:01:24
; FORMAT={-:-/ absolute / inch / decimal}
; #@! TF.CreationDate,2021-03-10T13:01:24-03:00
; #@! TF.GenerationSoftware,Kicad,Pcbnew,(5.1.9)-1
; #@! TF.FileFunction,Plated,1,2,PTH
FMAT,2
INCH
T1C0.0197
T2C0.0300
T3C0.0394
T4C0.1260
%
G90
G05
T1
X5.6255Y-4.0
X5.6532Y-3.9332
X5.6532Y-4.0668
X5.72Y-3.9055
X5.72Y-4.0945
X5.7868Y-3.9332
X5.7868Y-4.0668
X5.8145Y-4.0
X5.9555Y-3.175
X5.9832Y-3.1082
X5.9832Y-3.2418
X6.05Y-3.0805
X6.05Y-3.2695
X6.1168Y-3.1082
X6.1168Y-3.2418
X6.1445Y-3.175
X8.5933Y-3.175
X8.621Y-3.1082
X8.621Y-3.2418
X8.6878Y-3.0805
X8.6878Y-3.2695
X8.7546Y-3.1082
X8.7546Y-3.2418
X8.7823Y-3.175
X8.9855Y-4.0
X9.0132Y-3.9332
X9.0132Y-4.0668
X9.08Y-3.9055
X9.08Y-4.0945
X9.1468Y-3.9332
X9.1468Y-4.0668
X9.1745Y-4.0
T2
X7.0Y-3.59
X7.0Y-3.69
X7.0Y-3.79
X7.0Y-3.89
T3
X6.75Y-2.625
X6.75Y-3.225
X6.85Y-2.625
X6.85Y-3.225
X6.95Y-2.625
X6.95Y-3.225
X7.05Y-2.625
X7.05Y-3.225
X7.15Y-2.625
X7.15Y-3.225
X7.25Y-2.625
X7.25Y-3.225
X7.35Y-2.625
X7.35Y-3.225
X7.45Y-2.625
X7.45Y-3.225
X7.55Y-2.625
X7.55Y-3.225
X7.65Y-2.625
X7.65Y-3.225
X7.75Y-2.625
X7.75Y-3.225
X7.85Y-2.625
X7.85Y-3.225
X7.95Y-2.625
X7.95Y-3.225
X8.05Y-2.625
X8.05Y-3.225
X8.05Y-3.55
X8.1484Y-3.55
X8.15Y-2.625
X8.15Y-3.225
T4
X5.72Y-4.0
X6.05Y-3.175
X8.6878Y-3.175
X9.08Y-4.0
T0
M30
