%TF.GenerationSoftware,KiCad,Pcbnew,(5.1.9)-1*%
%TF.CreationDate,2021-03-10T13:01:27-03:00*%
%TF.ProjectId,pedal_board,70656461-6c5f-4626-9f61-72642e6b6963,rev?*%
%TF.SameCoordinates,Original*%
%TF.FileFunction,Legend,Bot*%
%TF.FilePolarity,Positive*%
%FSLAX46Y46*%
G04 Gerber Fmt 4.6, Leading zero omitted, Abs format (unit mm)*
G04 Created by KiCad (PCBNEW (5.1.9)-1) date 2021-03-10 13:01:27*
%MOMM*%
%LPD*%
G01*
G04 APERTURE LIST*
%ADD10C,0.150000*%
%ADD11C,0.010000*%
G04 APERTURE END LIST*
D10*
X173690476Y-98702380D02*
X173690476Y-97702380D01*
X173309523Y-97702380D01*
X173214285Y-97750000D01*
X173166666Y-97797619D01*
X173119047Y-97892857D01*
X173119047Y-98035714D01*
X173166666Y-98130952D01*
X173214285Y-98178571D01*
X173309523Y-98226190D01*
X173690476Y-98226190D01*
X172309523Y-98654761D02*
X172404761Y-98702380D01*
X172595238Y-98702380D01*
X172690476Y-98654761D01*
X172738095Y-98559523D01*
X172738095Y-98178571D01*
X172690476Y-98083333D01*
X172595238Y-98035714D01*
X172404761Y-98035714D01*
X172309523Y-98083333D01*
X172261904Y-98178571D01*
X172261904Y-98273809D01*
X172738095Y-98369047D01*
X171404761Y-98702380D02*
X171404761Y-97702380D01*
X171404761Y-98654761D02*
X171500000Y-98702380D01*
X171690476Y-98702380D01*
X171785714Y-98654761D01*
X171833333Y-98607142D01*
X171880952Y-98511904D01*
X171880952Y-98226190D01*
X171833333Y-98130952D01*
X171785714Y-98083333D01*
X171690476Y-98035714D01*
X171500000Y-98035714D01*
X171404761Y-98083333D01*
X170500000Y-98702380D02*
X170500000Y-98178571D01*
X170547619Y-98083333D01*
X170642857Y-98035714D01*
X170833333Y-98035714D01*
X170928571Y-98083333D01*
X170500000Y-98654761D02*
X170595238Y-98702380D01*
X170833333Y-98702380D01*
X170928571Y-98654761D01*
X170976190Y-98559523D01*
X170976190Y-98464285D01*
X170928571Y-98369047D01*
X170833333Y-98321428D01*
X170595238Y-98321428D01*
X170500000Y-98273809D01*
X169880952Y-98702380D02*
X169976190Y-98654761D01*
X170023809Y-98559523D01*
X170023809Y-97702380D01*
X169738095Y-98797619D02*
X168976190Y-98797619D01*
X168404761Y-98178571D02*
X168261904Y-98226190D01*
X168214285Y-98273809D01*
X168166666Y-98369047D01*
X168166666Y-98511904D01*
X168214285Y-98607142D01*
X168261904Y-98654761D01*
X168357142Y-98702380D01*
X168738095Y-98702380D01*
X168738095Y-97702380D01*
X168404761Y-97702380D01*
X168309523Y-97750000D01*
X168261904Y-97797619D01*
X168214285Y-97892857D01*
X168214285Y-97988095D01*
X168261904Y-98083333D01*
X168309523Y-98130952D01*
X168404761Y-98178571D01*
X168738095Y-98178571D01*
X167595238Y-98702380D02*
X167690476Y-98654761D01*
X167738095Y-98607142D01*
X167785714Y-98511904D01*
X167785714Y-98226190D01*
X167738095Y-98130952D01*
X167690476Y-98083333D01*
X167595238Y-98035714D01*
X167452380Y-98035714D01*
X167357142Y-98083333D01*
X167309523Y-98130952D01*
X167261904Y-98226190D01*
X167261904Y-98511904D01*
X167309523Y-98607142D01*
X167357142Y-98654761D01*
X167452380Y-98702380D01*
X167595238Y-98702380D01*
X166404761Y-98702380D02*
X166404761Y-98178571D01*
X166452380Y-98083333D01*
X166547619Y-98035714D01*
X166738095Y-98035714D01*
X166833333Y-98083333D01*
X166404761Y-98654761D02*
X166500000Y-98702380D01*
X166738095Y-98702380D01*
X166833333Y-98654761D01*
X166880952Y-98559523D01*
X166880952Y-98464285D01*
X166833333Y-98369047D01*
X166738095Y-98321428D01*
X166500000Y-98321428D01*
X166404761Y-98273809D01*
X165928571Y-98702380D02*
X165928571Y-98035714D01*
X165928571Y-98226190D02*
X165880952Y-98130952D01*
X165833333Y-98083333D01*
X165738095Y-98035714D01*
X165642857Y-98035714D01*
X164880952Y-98702380D02*
X164880952Y-97702380D01*
X164880952Y-98654761D02*
X164976190Y-98702380D01*
X165166666Y-98702380D01*
X165261904Y-98654761D01*
X165309523Y-98607142D01*
X165357142Y-98511904D01*
X165357142Y-98226190D01*
X165309523Y-98130952D01*
X165261904Y-98083333D01*
X165166666Y-98035714D01*
X164976190Y-98035714D01*
X164880952Y-98083333D01*
X163785714Y-97702380D02*
X163452380Y-98702380D01*
X163119047Y-97702380D01*
X162833333Y-97797619D02*
X162785714Y-97750000D01*
X162690476Y-97702380D01*
X162452380Y-97702380D01*
X162357142Y-97750000D01*
X162309523Y-97797619D01*
X162261904Y-97892857D01*
X162261904Y-97988095D01*
X162309523Y-98130952D01*
X162880952Y-98702380D01*
X162261904Y-98702380D01*
D11*
%TO.C,G\u002A\u002A\u002A*%
G36*
X162308942Y-94949808D02*
G01*
X162144783Y-94950254D01*
X161999083Y-94950483D01*
X161713333Y-94950760D01*
X161713333Y-95718399D01*
X161715931Y-96041318D01*
X161725459Y-96291018D01*
X161744523Y-96478832D01*
X161775727Y-96616098D01*
X161821678Y-96714151D01*
X161884980Y-96784327D01*
X161968239Y-96837961D01*
X161970940Y-96839364D01*
X162103933Y-96878524D01*
X162284676Y-96894487D01*
X162479357Y-96886778D01*
X162654163Y-96854923D01*
X162672924Y-96849222D01*
X162760667Y-96813103D01*
X162791914Y-96761648D01*
X162784867Y-96662427D01*
X162783349Y-96652461D01*
X162764633Y-96547959D01*
X162748831Y-96487280D01*
X162746669Y-96483355D01*
X162702429Y-96485309D01*
X162611482Y-96510562D01*
X162598177Y-96515105D01*
X162399208Y-96560056D01*
X162249382Y-96539998D01*
X162160234Y-96468247D01*
X162104470Y-96365697D01*
X162098070Y-96298192D01*
X162140362Y-96280426D01*
X162168417Y-96289488D01*
X162372933Y-96342903D01*
X162554020Y-96319551D01*
X162704309Y-96225799D01*
X162816435Y-96068008D01*
X162883031Y-95852543D01*
X162898667Y-95658696D01*
X162898562Y-95657705D01*
X162475333Y-95657705D01*
X162459422Y-95845037D01*
X162409609Y-95958794D01*
X162322771Y-96004277D01*
X162271403Y-96003953D01*
X162215497Y-95993669D01*
X162180450Y-95966888D01*
X162159696Y-95905972D01*
X162146669Y-95793280D01*
X162136667Y-95641953D01*
X162128475Y-95458318D01*
X162135649Y-95343122D01*
X162165204Y-95280549D01*
X162224154Y-95254786D01*
X162310510Y-95250000D01*
X162390919Y-95289520D01*
X162446311Y-95402428D01*
X162473257Y-95580241D01*
X162475333Y-95657705D01*
X162898562Y-95657705D01*
X162872691Y-95413659D01*
X162799762Y-95209321D01*
X162687384Y-95056976D01*
X162543056Y-94967918D01*
X162427441Y-94949276D01*
X162308942Y-94949808D01*
G37*
X162308942Y-94949808D02*
X162144783Y-94950254D01*
X161999083Y-94950483D01*
X161713333Y-94950760D01*
X161713333Y-95718399D01*
X161715931Y-96041318D01*
X161725459Y-96291018D01*
X161744523Y-96478832D01*
X161775727Y-96616098D01*
X161821678Y-96714151D01*
X161884980Y-96784327D01*
X161968239Y-96837961D01*
X161970940Y-96839364D01*
X162103933Y-96878524D01*
X162284676Y-96894487D01*
X162479357Y-96886778D01*
X162654163Y-96854923D01*
X162672924Y-96849222D01*
X162760667Y-96813103D01*
X162791914Y-96761648D01*
X162784867Y-96662427D01*
X162783349Y-96652461D01*
X162764633Y-96547959D01*
X162748831Y-96487280D01*
X162746669Y-96483355D01*
X162702429Y-96485309D01*
X162611482Y-96510562D01*
X162598177Y-96515105D01*
X162399208Y-96560056D01*
X162249382Y-96539998D01*
X162160234Y-96468247D01*
X162104470Y-96365697D01*
X162098070Y-96298192D01*
X162140362Y-96280426D01*
X162168417Y-96289488D01*
X162372933Y-96342903D01*
X162554020Y-96319551D01*
X162704309Y-96225799D01*
X162816435Y-96068008D01*
X162883031Y-95852543D01*
X162898667Y-95658696D01*
X162898562Y-95657705D01*
X162475333Y-95657705D01*
X162459422Y-95845037D01*
X162409609Y-95958794D01*
X162322771Y-96004277D01*
X162271403Y-96003953D01*
X162215497Y-95993669D01*
X162180450Y-95966888D01*
X162159696Y-95905972D01*
X162146669Y-95793280D01*
X162136667Y-95641953D01*
X162128475Y-95458318D01*
X162135649Y-95343122D01*
X162165204Y-95280549D01*
X162224154Y-95254786D01*
X162310510Y-95250000D01*
X162390919Y-95289520D01*
X162446311Y-95402428D01*
X162473257Y-95580241D01*
X162475333Y-95657705D01*
X162898562Y-95657705D01*
X162872691Y-95413659D01*
X162799762Y-95209321D01*
X162687384Y-95056976D01*
X162543056Y-94967918D01*
X162427441Y-94949276D01*
X162308942Y-94949808D01*
G36*
X172296733Y-95004027D02*
G01*
X172298433Y-95333114D01*
X172305187Y-95589441D01*
X172319558Y-95784879D01*
X172344112Y-95931297D01*
X172381414Y-96040567D01*
X172434026Y-96124558D01*
X172504515Y-96195141D01*
X172564108Y-96241639D01*
X172702498Y-96304325D01*
X172890972Y-96340452D01*
X173098928Y-96349114D01*
X173295761Y-96329405D01*
X173450868Y-96280417D01*
X173471804Y-96268539D01*
X173567183Y-96203917D01*
X173640467Y-96136776D01*
X173694549Y-96055376D01*
X173732322Y-95947977D01*
X173756678Y-95802840D01*
X173770511Y-95608225D01*
X173776712Y-95352393D01*
X173778175Y-95025194D01*
X173778333Y-94144222D01*
X173460833Y-94170500D01*
X173439667Y-95031583D01*
X173432201Y-95322343D01*
X173425062Y-95540339D01*
X173416723Y-95697450D01*
X173405655Y-95805559D01*
X173390332Y-95876547D01*
X173369226Y-95922294D01*
X173340809Y-95954683D01*
X173318560Y-95973500D01*
X173179152Y-96038043D01*
X173037500Y-96054333D01*
X172859988Y-96027730D01*
X172756440Y-95973500D01*
X172722655Y-95943427D01*
X172697140Y-95907451D01*
X172678366Y-95853690D01*
X172664807Y-95770265D01*
X172654934Y-95645292D01*
X172647221Y-95466891D01*
X172640139Y-95223181D01*
X172635333Y-95031583D01*
X172614167Y-94170500D01*
X172296667Y-94144222D01*
X172296733Y-95004027D01*
G37*
X172296733Y-95004027D02*
X172298433Y-95333114D01*
X172305187Y-95589441D01*
X172319558Y-95784879D01*
X172344112Y-95931297D01*
X172381414Y-96040567D01*
X172434026Y-96124558D01*
X172504515Y-96195141D01*
X172564108Y-96241639D01*
X172702498Y-96304325D01*
X172890972Y-96340452D01*
X173098928Y-96349114D01*
X173295761Y-96329405D01*
X173450868Y-96280417D01*
X173471804Y-96268539D01*
X173567183Y-96203917D01*
X173640467Y-96136776D01*
X173694549Y-96055376D01*
X173732322Y-95947977D01*
X173756678Y-95802840D01*
X173770511Y-95608225D01*
X173776712Y-95352393D01*
X173778175Y-95025194D01*
X173778333Y-94144222D01*
X173460833Y-94170500D01*
X173439667Y-95031583D01*
X173432201Y-95322343D01*
X173425062Y-95540339D01*
X173416723Y-95697450D01*
X173405655Y-95805559D01*
X173390332Y-95876547D01*
X173369226Y-95922294D01*
X173340809Y-95954683D01*
X173318560Y-95973500D01*
X173179152Y-96038043D01*
X173037500Y-96054333D01*
X172859988Y-96027730D01*
X172756440Y-95973500D01*
X172722655Y-95943427D01*
X172697140Y-95907451D01*
X172678366Y-95853690D01*
X172664807Y-95770265D01*
X172654934Y-95645292D01*
X172647221Y-95466891D01*
X172640139Y-95223181D01*
X172635333Y-95031583D01*
X172614167Y-94170500D01*
X172296667Y-94144222D01*
X172296733Y-95004027D01*
G36*
X171630856Y-94157361D02*
G01*
X171577296Y-94163492D01*
X171531292Y-94178202D01*
X171485565Y-94210895D01*
X171432832Y-94270972D01*
X171365815Y-94367837D01*
X171277231Y-94510893D01*
X171159801Y-94709542D01*
X171027606Y-94936454D01*
X170582167Y-95702409D01*
X170570640Y-94923372D01*
X170559114Y-94144334D01*
X170243500Y-94170500D01*
X170243500Y-96329500D01*
X170391667Y-96329500D01*
X170442127Y-96327665D01*
X170486047Y-96316036D01*
X170530712Y-96285428D01*
X170583409Y-96226655D01*
X170651423Y-96130531D01*
X170742039Y-95987869D01*
X170862544Y-95789483D01*
X170993908Y-95570194D01*
X171447982Y-94810889D01*
X171459575Y-95570194D01*
X171471167Y-96329500D01*
X171629917Y-96342638D01*
X171788667Y-96355777D01*
X171788667Y-94144222D01*
X171630856Y-94157361D01*
G37*
X171630856Y-94157361D02*
X171577296Y-94163492D01*
X171531292Y-94178202D01*
X171485565Y-94210895D01*
X171432832Y-94270972D01*
X171365815Y-94367837D01*
X171277231Y-94510893D01*
X171159801Y-94709542D01*
X171027606Y-94936454D01*
X170582167Y-95702409D01*
X170570640Y-94923372D01*
X170559114Y-94144334D01*
X170243500Y-94170500D01*
X170243500Y-96329500D01*
X170391667Y-96329500D01*
X170442127Y-96327665D01*
X170486047Y-96316036D01*
X170530712Y-96285428D01*
X170583409Y-96226655D01*
X170651423Y-96130531D01*
X170742039Y-95987869D01*
X170862544Y-95789483D01*
X170993908Y-95570194D01*
X171447982Y-94810889D01*
X171459575Y-95570194D01*
X171471167Y-96329500D01*
X171629917Y-96342638D01*
X171788667Y-96355777D01*
X171788667Y-94144222D01*
X171630856Y-94157361D01*
G36*
X168444333Y-94572666D02*
G01*
X169291000Y-94572666D01*
X169291000Y-95038333D01*
X168529000Y-95038333D01*
X168529000Y-95419333D01*
X169291000Y-95419333D01*
X169291000Y-95927333D01*
X168402000Y-95927333D01*
X168402000Y-96350666D01*
X169080662Y-96350666D01*
X169353447Y-96348855D01*
X169550745Y-96342956D01*
X169681666Y-96332267D01*
X169755324Y-96316091D01*
X169779937Y-96296950D01*
X169785211Y-96241159D01*
X169789064Y-96112968D01*
X169791392Y-95924637D01*
X169792090Y-95688421D01*
X169791055Y-95416578D01*
X169789192Y-95206867D01*
X169777833Y-94170500D01*
X169111083Y-94158841D01*
X168444333Y-94147183D01*
X168444333Y-94572666D01*
G37*
X168444333Y-94572666D02*
X169291000Y-94572666D01*
X169291000Y-95038333D01*
X168529000Y-95038333D01*
X168529000Y-95419333D01*
X169291000Y-95419333D01*
X169291000Y-95927333D01*
X168402000Y-95927333D01*
X168402000Y-96350666D01*
X169080662Y-96350666D01*
X169353447Y-96348855D01*
X169550745Y-96342956D01*
X169681666Y-96332267D01*
X169755324Y-96316091D01*
X169779937Y-96296950D01*
X169785211Y-96241159D01*
X169789064Y-96112968D01*
X169791392Y-95924637D01*
X169792090Y-95688421D01*
X169791055Y-95416578D01*
X169789192Y-95206867D01*
X169777833Y-94170500D01*
X169111083Y-94158841D01*
X168444333Y-94147183D01*
X168444333Y-94572666D01*
G36*
X167576500Y-94173537D02*
G01*
X167336017Y-94177925D01*
X167161241Y-94189267D01*
X167033344Y-94209839D01*
X166933494Y-94241920D01*
X166904752Y-94254815D01*
X166734465Y-94377802D01*
X166625587Y-94544151D01*
X166579728Y-94737290D01*
X166598496Y-94940646D01*
X166683499Y-95137646D01*
X166804867Y-95283858D01*
X166909112Y-95381216D01*
X166706941Y-95833936D01*
X166629259Y-96014032D01*
X166568911Y-96165882D01*
X166532076Y-96273064D01*
X166524550Y-96318661D01*
X166574615Y-96336693D01*
X166681580Y-96348301D01*
X166766732Y-96350666D01*
X166989135Y-96350666D01*
X167086712Y-96128416D01*
X167162082Y-95951291D01*
X167240123Y-95759735D01*
X167269853Y-95683916D01*
X167323596Y-95556193D01*
X167370637Y-95489617D01*
X167430037Y-95464686D01*
X167487125Y-95461567D01*
X167618833Y-95461467D01*
X167604875Y-95805070D01*
X167598248Y-96028453D01*
X167603866Y-96180873D01*
X167627882Y-96275816D01*
X167676447Y-96326765D01*
X167755715Y-96347206D01*
X167853802Y-96350666D01*
X167997669Y-96339947D01*
X168077141Y-96310000D01*
X168086604Y-96296950D01*
X168091878Y-96241159D01*
X168095731Y-96112968D01*
X168098059Y-95924637D01*
X168098757Y-95688421D01*
X168097722Y-95416578D01*
X168095858Y-95206867D01*
X168095035Y-95131738D01*
X167618833Y-95131738D01*
X167409858Y-95111658D01*
X167246181Y-95079748D01*
X167142017Y-95016668D01*
X167124108Y-94996766D01*
X167047994Y-94855871D01*
X167050697Y-94729728D01*
X167126514Y-94628113D01*
X167269740Y-94560805D01*
X167390240Y-94540561D01*
X167618833Y-94521604D01*
X167618833Y-95131738D01*
X168095035Y-95131738D01*
X168084500Y-94170500D01*
X167576500Y-94173537D01*
G37*
X167576500Y-94173537D02*
X167336017Y-94177925D01*
X167161241Y-94189267D01*
X167033344Y-94209839D01*
X166933494Y-94241920D01*
X166904752Y-94254815D01*
X166734465Y-94377802D01*
X166625587Y-94544151D01*
X166579728Y-94737290D01*
X166598496Y-94940646D01*
X166683499Y-95137646D01*
X166804867Y-95283858D01*
X166909112Y-95381216D01*
X166706941Y-95833936D01*
X166629259Y-96014032D01*
X166568911Y-96165882D01*
X166532076Y-96273064D01*
X166524550Y-96318661D01*
X166574615Y-96336693D01*
X166681580Y-96348301D01*
X166766732Y-96350666D01*
X166989135Y-96350666D01*
X167086712Y-96128416D01*
X167162082Y-95951291D01*
X167240123Y-95759735D01*
X167269853Y-95683916D01*
X167323596Y-95556193D01*
X167370637Y-95489617D01*
X167430037Y-95464686D01*
X167487125Y-95461567D01*
X167618833Y-95461467D01*
X167604875Y-95805070D01*
X167598248Y-96028453D01*
X167603866Y-96180873D01*
X167627882Y-96275816D01*
X167676447Y-96326765D01*
X167755715Y-96347206D01*
X167853802Y-96350666D01*
X167997669Y-96339947D01*
X168077141Y-96310000D01*
X168086604Y-96296950D01*
X168091878Y-96241159D01*
X168095731Y-96112968D01*
X168098059Y-95924637D01*
X168098757Y-95688421D01*
X168097722Y-95416578D01*
X168095858Y-95206867D01*
X168095035Y-95131738D01*
X167618833Y-95131738D01*
X167409858Y-95111658D01*
X167246181Y-95079748D01*
X167142017Y-95016668D01*
X167124108Y-94996766D01*
X167047994Y-94855871D01*
X167050697Y-94729728D01*
X167126514Y-94628113D01*
X167269740Y-94560805D01*
X167390240Y-94540561D01*
X167618833Y-94521604D01*
X167618833Y-95131738D01*
X168095035Y-95131738D01*
X168084500Y-94170500D01*
X167576500Y-94173537D01*
G36*
X164592000Y-96350666D02*
G01*
X165015333Y-96350666D01*
X165015333Y-94488000D01*
X164592000Y-94488000D01*
X164592000Y-96350666D01*
G37*
X164592000Y-96350666D02*
X165015333Y-96350666D01*
X165015333Y-94488000D01*
X164592000Y-94488000D01*
X164592000Y-96350666D01*
G36*
X163336073Y-94961684D02*
G01*
X163207747Y-95047562D01*
X163176682Y-95093548D01*
X163154201Y-95161613D01*
X163138428Y-95266094D01*
X163127486Y-95421327D01*
X163119498Y-95641652D01*
X163116947Y-95741203D01*
X163102395Y-96350666D01*
X163533667Y-96350666D01*
X163533667Y-95287222D01*
X163851167Y-95313500D01*
X163874939Y-96350666D01*
X164057081Y-96350666D01*
X164175458Y-96344620D01*
X164254710Y-96329454D01*
X164267445Y-96322444D01*
X164277063Y-96272502D01*
X164285273Y-96152950D01*
X164291467Y-95978841D01*
X164295037Y-95765228D01*
X164295667Y-95623944D01*
X164295667Y-94953666D01*
X164108695Y-94953666D01*
X163992618Y-94962120D01*
X163918857Y-94983428D01*
X163907611Y-94994826D01*
X163861514Y-95008820D01*
X163757312Y-94987960D01*
X163715144Y-94974405D01*
X163511738Y-94934969D01*
X163336073Y-94961684D01*
G37*
X163336073Y-94961684D02*
X163207747Y-95047562D01*
X163176682Y-95093548D01*
X163154201Y-95161613D01*
X163138428Y-95266094D01*
X163127486Y-95421327D01*
X163119498Y-95641652D01*
X163116947Y-95741203D01*
X163102395Y-96350666D01*
X163533667Y-96350666D01*
X163533667Y-95287222D01*
X163851167Y-95313500D01*
X163874939Y-96350666D01*
X164057081Y-96350666D01*
X164175458Y-96344620D01*
X164254710Y-96329454D01*
X164267445Y-96322444D01*
X164277063Y-96272502D01*
X164285273Y-96152950D01*
X164291467Y-95978841D01*
X164295037Y-95765228D01*
X164295667Y-95623944D01*
X164295667Y-94953666D01*
X164108695Y-94953666D01*
X163992618Y-94962120D01*
X163918857Y-94983428D01*
X163907611Y-94994826D01*
X163861514Y-95008820D01*
X163757312Y-94987960D01*
X163715144Y-94974405D01*
X163511738Y-94934969D01*
X163336073Y-94961684D01*
G36*
X160672330Y-94975503D02*
G01*
X160529716Y-95090601D01*
X160437265Y-95268525D01*
X160401258Y-95503998D01*
X160401000Y-95527922D01*
X160401000Y-95715666D01*
X160739667Y-95715666D01*
X160924152Y-95719977D01*
X161033305Y-95737406D01*
X161076222Y-95774695D01*
X161061998Y-95838590D01*
X161012433Y-95917913D01*
X160941056Y-95983667D01*
X160831891Y-96009523D01*
X160769016Y-96011351D01*
X160641986Y-96001903D01*
X160545282Y-95979195D01*
X160529117Y-95971253D01*
X160460153Y-95960949D01*
X160415926Y-96025924D01*
X160401648Y-96142788D01*
X160433100Y-96242546D01*
X160531945Y-96308849D01*
X160702842Y-96343774D01*
X160867186Y-96350666D01*
X161020210Y-96344724D01*
X161124711Y-96319088D01*
X161216456Y-96262044D01*
X161266770Y-96219799D01*
X161398027Y-96057400D01*
X161475422Y-95861008D01*
X161501473Y-95647951D01*
X161478700Y-95435553D01*
X161466490Y-95401190D01*
X161078333Y-95401190D01*
X161041371Y-95446945D01*
X160930167Y-95461666D01*
X160826300Y-95451071D01*
X160785282Y-95412452D01*
X160782000Y-95385466D01*
X160808283Y-95296454D01*
X160868099Y-95225747D01*
X160914443Y-95207666D01*
X160976649Y-95240283D01*
X161041404Y-95313443D01*
X161077344Y-95390112D01*
X161078333Y-95401190D01*
X161466490Y-95401190D01*
X161409619Y-95241141D01*
X161296751Y-95082042D01*
X161142612Y-94975582D01*
X161082921Y-94954901D01*
X160858825Y-94928511D01*
X160672330Y-94975503D01*
G37*
X160672330Y-94975503D02*
X160529716Y-95090601D01*
X160437265Y-95268525D01*
X160401258Y-95503998D01*
X160401000Y-95527922D01*
X160401000Y-95715666D01*
X160739667Y-95715666D01*
X160924152Y-95719977D01*
X161033305Y-95737406D01*
X161076222Y-95774695D01*
X161061998Y-95838590D01*
X161012433Y-95917913D01*
X160941056Y-95983667D01*
X160831891Y-96009523D01*
X160769016Y-96011351D01*
X160641986Y-96001903D01*
X160545282Y-95979195D01*
X160529117Y-95971253D01*
X160460153Y-95960949D01*
X160415926Y-96025924D01*
X160401648Y-96142788D01*
X160433100Y-96242546D01*
X160531945Y-96308849D01*
X160702842Y-96343774D01*
X160867186Y-96350666D01*
X161020210Y-96344724D01*
X161124711Y-96319088D01*
X161216456Y-96262044D01*
X161266770Y-96219799D01*
X161398027Y-96057400D01*
X161475422Y-95861008D01*
X161501473Y-95647951D01*
X161478700Y-95435553D01*
X161466490Y-95401190D01*
X161078333Y-95401190D01*
X161041371Y-95446945D01*
X160930167Y-95461666D01*
X160826300Y-95451071D01*
X160785282Y-95412452D01*
X160782000Y-95385466D01*
X160808283Y-95296454D01*
X160868099Y-95225747D01*
X160914443Y-95207666D01*
X160976649Y-95240283D01*
X161041404Y-95313443D01*
X161077344Y-95390112D01*
X161078333Y-95401190D01*
X161466490Y-95401190D01*
X161409619Y-95241141D01*
X161296751Y-95082042D01*
X161142612Y-94975582D01*
X161082921Y-94954901D01*
X160858825Y-94928511D01*
X160672330Y-94975503D01*
G36*
X159243713Y-94969230D02*
G01*
X159151278Y-95024809D01*
X159084777Y-95110392D01*
X159041166Y-95237641D01*
X159017401Y-95418216D01*
X159010438Y-95663778D01*
X159013189Y-95852369D01*
X159025167Y-96329500D01*
X159224929Y-96342348D01*
X159424691Y-96355197D01*
X159436596Y-95834348D01*
X159448500Y-95313500D01*
X159744833Y-95313500D01*
X159756720Y-95832083D01*
X159768606Y-96350666D01*
X160189333Y-96350666D01*
X160189333Y-94953666D01*
X160002361Y-94953666D01*
X159875106Y-94965167D01*
X159804179Y-94995930D01*
X159797579Y-95006583D01*
X159766401Y-95037468D01*
X159719968Y-95011471D01*
X159577953Y-94945425D01*
X159403273Y-94931972D01*
X159243713Y-94969230D01*
G37*
X159243713Y-94969230D02*
X159151278Y-95024809D01*
X159084777Y-95110392D01*
X159041166Y-95237641D01*
X159017401Y-95418216D01*
X159010438Y-95663778D01*
X159013189Y-95852369D01*
X159025167Y-96329500D01*
X159224929Y-96342348D01*
X159424691Y-96355197D01*
X159436596Y-95834348D01*
X159448500Y-95313500D01*
X159744833Y-95313500D01*
X159756720Y-95832083D01*
X159768606Y-96350666D01*
X160189333Y-96350666D01*
X160189333Y-94953666D01*
X160002361Y-94953666D01*
X159875106Y-94965167D01*
X159804179Y-94995930D01*
X159797579Y-95006583D01*
X159766401Y-95037468D01*
X159719968Y-95011471D01*
X159577953Y-94945425D01*
X159403273Y-94931972D01*
X159243713Y-94969230D01*
G36*
X158336202Y-95641583D02*
G01*
X158347833Y-96329500D01*
X158548917Y-96342402D01*
X158750000Y-96355305D01*
X158750000Y-94953666D01*
X158324570Y-94953666D01*
X158336202Y-95641583D01*
G37*
X158336202Y-95641583D02*
X158347833Y-96329500D01*
X158548917Y-96342402D01*
X158750000Y-96355305D01*
X158750000Y-94953666D01*
X158324570Y-94953666D01*
X158336202Y-95641583D01*
G36*
X157343583Y-94971419D02*
G01*
X157193265Y-95075969D01*
X157081181Y-95233300D01*
X157020958Y-95435836D01*
X157014399Y-95535750D01*
X157014333Y-95715666D01*
X157370204Y-95715666D01*
X157543130Y-95717088D01*
X157646982Y-95723897D01*
X157697338Y-95739909D01*
X157709777Y-95768940D01*
X157704650Y-95797591D01*
X157633939Y-95918794D01*
X157508604Y-95989711D01*
X157345189Y-96005928D01*
X157160234Y-95963026D01*
X157130750Y-95950822D01*
X157083736Y-95941544D01*
X157062096Y-95980573D01*
X157056676Y-96085498D01*
X157056667Y-96093185D01*
X157064990Y-96210814D01*
X157099920Y-96274336D01*
X157165256Y-96309381D01*
X157311172Y-96340624D01*
X157492532Y-96347254D01*
X157672097Y-96330681D01*
X157812630Y-96292315D01*
X157829017Y-96284241D01*
X157962495Y-96166976D01*
X158055116Y-95995439D01*
X158105911Y-95790042D01*
X158113908Y-95571196D01*
X158080069Y-95370740D01*
X157684028Y-95370740D01*
X157681390Y-95431687D01*
X157634175Y-95457172D01*
X157546444Y-95461666D01*
X157442153Y-95451981D01*
X157399862Y-95415488D01*
X157395333Y-95382183D01*
X157426075Y-95289934D01*
X157462382Y-95247055D01*
X157549119Y-95218532D01*
X157630218Y-95258482D01*
X157680680Y-95352953D01*
X157684028Y-95370740D01*
X158080069Y-95370740D01*
X158078139Y-95359312D01*
X157997632Y-95174801D01*
X157887665Y-95050221D01*
X157704410Y-94950968D01*
X157518507Y-94927226D01*
X157343583Y-94971419D01*
G37*
X157343583Y-94971419D02*
X157193265Y-95075969D01*
X157081181Y-95233300D01*
X157020958Y-95435836D01*
X157014399Y-95535750D01*
X157014333Y-95715666D01*
X157370204Y-95715666D01*
X157543130Y-95717088D01*
X157646982Y-95723897D01*
X157697338Y-95739909D01*
X157709777Y-95768940D01*
X157704650Y-95797591D01*
X157633939Y-95918794D01*
X157508604Y-95989711D01*
X157345189Y-96005928D01*
X157160234Y-95963026D01*
X157130750Y-95950822D01*
X157083736Y-95941544D01*
X157062096Y-95980573D01*
X157056676Y-96085498D01*
X157056667Y-96093185D01*
X157064990Y-96210814D01*
X157099920Y-96274336D01*
X157165256Y-96309381D01*
X157311172Y-96340624D01*
X157492532Y-96347254D01*
X157672097Y-96330681D01*
X157812630Y-96292315D01*
X157829017Y-96284241D01*
X157962495Y-96166976D01*
X158055116Y-95995439D01*
X158105911Y-95790042D01*
X158113908Y-95571196D01*
X158080069Y-95370740D01*
X157684028Y-95370740D01*
X157681390Y-95431687D01*
X157634175Y-95457172D01*
X157546444Y-95461666D01*
X157442153Y-95451981D01*
X157399862Y-95415488D01*
X157395333Y-95382183D01*
X157426075Y-95289934D01*
X157462382Y-95247055D01*
X157549119Y-95218532D01*
X157630218Y-95258482D01*
X157680680Y-95352953D01*
X157684028Y-95370740D01*
X158080069Y-95370740D01*
X158078139Y-95359312D01*
X157997632Y-95174801D01*
X157887665Y-95050221D01*
X157704410Y-94950968D01*
X157518507Y-94927226D01*
X157343583Y-94971419D01*
G36*
X156081744Y-94937969D02*
G01*
X156054724Y-94949203D01*
X155984010Y-94994475D01*
X155967109Y-95060321D01*
X155978906Y-95134151D01*
X156010245Y-95257756D01*
X156043725Y-95314672D01*
X156093205Y-95322061D01*
X156124032Y-95313913D01*
X156217764Y-95312749D01*
X156310969Y-95340152D01*
X156358719Y-95364640D01*
X156390281Y-95396902D01*
X156409006Y-95452997D01*
X156418245Y-95548984D01*
X156421349Y-95700921D01*
X156421667Y-95870628D01*
X156421667Y-96350666D01*
X156802667Y-96350666D01*
X156802667Y-94953666D01*
X156612167Y-94953666D01*
X156498549Y-94961431D01*
X156430401Y-94981077D01*
X156421667Y-94992755D01*
X156389177Y-95002254D01*
X156309163Y-94975333D01*
X156290796Y-94966557D01*
X156177403Y-94925699D01*
X156081744Y-94937969D01*
G37*
X156081744Y-94937969D02*
X156054724Y-94949203D01*
X155984010Y-94994475D01*
X155967109Y-95060321D01*
X155978906Y-95134151D01*
X156010245Y-95257756D01*
X156043725Y-95314672D01*
X156093205Y-95322061D01*
X156124032Y-95313913D01*
X156217764Y-95312749D01*
X156310969Y-95340152D01*
X156358719Y-95364640D01*
X156390281Y-95396902D01*
X156409006Y-95452997D01*
X156418245Y-95548984D01*
X156421349Y-95700921D01*
X156421667Y-95870628D01*
X156421667Y-96350666D01*
X156802667Y-96350666D01*
X156802667Y-94953666D01*
X156612167Y-94953666D01*
X156498549Y-94961431D01*
X156430401Y-94981077D01*
X156421667Y-94992755D01*
X156389177Y-95002254D01*
X156309163Y-94975333D01*
X156290796Y-94966557D01*
X156177403Y-94925699D01*
X156081744Y-94937969D01*
G36*
X155405667Y-96350666D02*
G01*
X155829000Y-96350666D01*
X155829000Y-94953666D01*
X155405667Y-94953666D01*
X155405667Y-96350666D01*
G37*
X155405667Y-96350666D02*
X155829000Y-96350666D01*
X155829000Y-94953666D01*
X155405667Y-94953666D01*
X155405667Y-96350666D01*
G36*
X154488451Y-94941642D02*
G01*
X154438291Y-94951972D01*
X154307872Y-94996813D01*
X154217139Y-95059138D01*
X154158279Y-95154140D01*
X154123481Y-95297012D01*
X154104932Y-95502947D01*
X154100197Y-95609517D01*
X154091325Y-95807885D01*
X154080068Y-95937324D01*
X154063023Y-96013565D01*
X154036787Y-96052339D01*
X154000887Y-96068633D01*
X153940262Y-96108979D01*
X153930325Y-96198985D01*
X153931468Y-96209934D01*
X153951313Y-96289593D01*
X154004016Y-96327450D01*
X154108069Y-96342886D01*
X154254857Y-96333908D01*
X154340903Y-96293228D01*
X154403855Y-96253348D01*
X154472953Y-96266413D01*
X154516667Y-96288925D01*
X154689114Y-96345877D01*
X154869715Y-96342826D01*
X155028161Y-96282445D01*
X155082394Y-96239060D01*
X155152873Y-96151286D01*
X155186022Y-96050354D01*
X155192563Y-95933892D01*
X154802015Y-95933892D01*
X154770211Y-95991383D01*
X154701788Y-96046662D01*
X154620082Y-96040292D01*
X154556217Y-96010510D01*
X154495353Y-95940718D01*
X154473851Y-95840937D01*
X154493134Y-95747000D01*
X154543797Y-95698069D01*
X154654942Y-95690955D01*
X154746623Y-95742910D01*
X154801446Y-95831401D01*
X154802015Y-95933892D01*
X155192563Y-95933892D01*
X155194000Y-95908314D01*
X155186238Y-95765316D01*
X155153868Y-95669300D01*
X155083270Y-95583298D01*
X155069189Y-95569596D01*
X154978093Y-95496525D01*
X154880007Y-95459787D01*
X154739346Y-95447220D01*
X154709356Y-95446622D01*
X154554628Y-95433776D01*
X154480989Y-95400126D01*
X154487173Y-95344526D01*
X154538626Y-95291676D01*
X154638351Y-95258055D01*
X154813943Y-95260177D01*
X154830374Y-95261793D01*
X154961677Y-95273254D01*
X155032107Y-95266036D01*
X155065002Y-95230224D01*
X155083702Y-95155905D01*
X155084079Y-95154023D01*
X155089208Y-95044929D01*
X155062077Y-94992957D01*
X154960434Y-94958390D01*
X154808497Y-94936840D01*
X154639942Y-94930519D01*
X154488451Y-94941642D01*
G37*
X154488451Y-94941642D02*
X154438291Y-94951972D01*
X154307872Y-94996813D01*
X154217139Y-95059138D01*
X154158279Y-95154140D01*
X154123481Y-95297012D01*
X154104932Y-95502947D01*
X154100197Y-95609517D01*
X154091325Y-95807885D01*
X154080068Y-95937324D01*
X154063023Y-96013565D01*
X154036787Y-96052339D01*
X154000887Y-96068633D01*
X153940262Y-96108979D01*
X153930325Y-96198985D01*
X153931468Y-96209934D01*
X153951313Y-96289593D01*
X154004016Y-96327450D01*
X154108069Y-96342886D01*
X154254857Y-96333908D01*
X154340903Y-96293228D01*
X154403855Y-96253348D01*
X154472953Y-96266413D01*
X154516667Y-96288925D01*
X154689114Y-96345877D01*
X154869715Y-96342826D01*
X155028161Y-96282445D01*
X155082394Y-96239060D01*
X155152873Y-96151286D01*
X155186022Y-96050354D01*
X155192563Y-95933892D01*
X154802015Y-95933892D01*
X154770211Y-95991383D01*
X154701788Y-96046662D01*
X154620082Y-96040292D01*
X154556217Y-96010510D01*
X154495353Y-95940718D01*
X154473851Y-95840937D01*
X154493134Y-95747000D01*
X154543797Y-95698069D01*
X154654942Y-95690955D01*
X154746623Y-95742910D01*
X154801446Y-95831401D01*
X154802015Y-95933892D01*
X155192563Y-95933892D01*
X155194000Y-95908314D01*
X155186238Y-95765316D01*
X155153868Y-95669300D01*
X155083270Y-95583298D01*
X155069189Y-95569596D01*
X154978093Y-95496525D01*
X154880007Y-95459787D01*
X154739346Y-95447220D01*
X154709356Y-95446622D01*
X154554628Y-95433776D01*
X154480989Y-95400126D01*
X154487173Y-95344526D01*
X154538626Y-95291676D01*
X154638351Y-95258055D01*
X154813943Y-95260177D01*
X154830374Y-95261793D01*
X154961677Y-95273254D01*
X155032107Y-95266036D01*
X155065002Y-95230224D01*
X155083702Y-95155905D01*
X155084079Y-95154023D01*
X155089208Y-95044929D01*
X155062077Y-94992957D01*
X154960434Y-94958390D01*
X154808497Y-94936840D01*
X154639942Y-94930519D01*
X154488451Y-94941642D01*
G36*
X158425675Y-94427631D02*
G01*
X158347082Y-94503962D01*
X158326667Y-94615000D01*
X158356651Y-94743428D01*
X158447182Y-94812797D01*
X158545824Y-94826666D01*
X158669093Y-94788896D01*
X158733863Y-94719099D01*
X158780166Y-94591605D01*
X158752546Y-94485051D01*
X158660496Y-94417602D01*
X158568874Y-94403333D01*
X158425675Y-94427631D01*
G37*
X158425675Y-94427631D02*
X158347082Y-94503962D01*
X158326667Y-94615000D01*
X158356651Y-94743428D01*
X158447182Y-94812797D01*
X158545824Y-94826666D01*
X158669093Y-94788896D01*
X158733863Y-94719099D01*
X158780166Y-94591605D01*
X158752546Y-94485051D01*
X158660496Y-94417602D01*
X158568874Y-94403333D01*
X158425675Y-94427631D01*
G36*
X155338656Y-94452454D02*
G01*
X155297808Y-94541481D01*
X155285057Y-94590701D01*
X155286129Y-94592674D01*
X155340799Y-94625868D01*
X155442835Y-94678034D01*
X155565220Y-94736471D01*
X155680938Y-94788476D01*
X155762975Y-94821345D01*
X155783770Y-94826666D01*
X155834443Y-94793522D01*
X155873274Y-94738374D01*
X155899303Y-94687909D01*
X155903053Y-94650853D01*
X155872425Y-94612969D01*
X155795319Y-94560020D01*
X155659636Y-94477769D01*
X155643597Y-94468117D01*
X155404889Y-94324375D01*
X155338656Y-94452454D01*
G37*
X155338656Y-94452454D02*
X155297808Y-94541481D01*
X155285057Y-94590701D01*
X155286129Y-94592674D01*
X155340799Y-94625868D01*
X155442835Y-94678034D01*
X155565220Y-94736471D01*
X155680938Y-94788476D01*
X155762975Y-94821345D01*
X155783770Y-94826666D01*
X155834443Y-94793522D01*
X155873274Y-94738374D01*
X155899303Y-94687909D01*
X155903053Y-94650853D01*
X155872425Y-94612969D01*
X155795319Y-94560020D01*
X155659636Y-94477769D01*
X155643597Y-94468117D01*
X155404889Y-94324375D01*
X155338656Y-94452454D01*
G36*
X163872333Y-91905666D02*
G01*
X164676667Y-91905666D01*
X164676667Y-92413666D01*
X163999333Y-92413666D01*
X163999333Y-92667666D01*
X164676667Y-92667666D01*
X164676667Y-93514333D01*
X164973000Y-93514333D01*
X164973000Y-91651666D01*
X163872333Y-91651666D01*
X163872333Y-91905666D01*
G37*
X163872333Y-91905666D02*
X164676667Y-91905666D01*
X164676667Y-92413666D01*
X163999333Y-92413666D01*
X163999333Y-92667666D01*
X164676667Y-92667666D01*
X164676667Y-93514333D01*
X164973000Y-93514333D01*
X164973000Y-91651666D01*
X163872333Y-91651666D01*
X163872333Y-91905666D01*
G36*
X163210818Y-92130000D02*
G01*
X163066687Y-92173793D01*
X162966163Y-92259398D01*
X162902297Y-92396855D01*
X162868140Y-92596203D01*
X162856744Y-92867482D01*
X162856570Y-92911083D01*
X162853068Y-93091437D01*
X162841373Y-93200595D01*
X162819251Y-93251820D01*
X162797771Y-93260333D01*
X162745578Y-93295856D01*
X162709059Y-93375184D01*
X162704084Y-93457457D01*
X162712707Y-93479346D01*
X162773324Y-93509086D01*
X162876581Y-93513050D01*
X162985511Y-93494297D01*
X163063149Y-93455886D01*
X163068792Y-93449879D01*
X163116486Y-93408660D01*
X163172149Y-93420303D01*
X163220652Y-93449879D01*
X163373306Y-93507822D01*
X163544749Y-93510569D01*
X163700642Y-93460592D01*
X163768424Y-93410424D01*
X163835300Y-93323355D01*
X163866097Y-93216298D01*
X163872333Y-93089667D01*
X163871335Y-93072666D01*
X163580178Y-93072666D01*
X163551361Y-93191843D01*
X163470679Y-93280458D01*
X163423567Y-93301379D01*
X163385408Y-93289952D01*
X163297919Y-93260341D01*
X163285984Y-93256192D01*
X163202227Y-93218685D01*
X163163588Y-93164412D01*
X163152956Y-93063592D01*
X163152667Y-93024165D01*
X163158894Y-92905366D01*
X163186409Y-92844365D01*
X163248459Y-92814677D01*
X163258809Y-92811973D01*
X163394360Y-92818322D01*
X163470475Y-92854475D01*
X163554195Y-92950889D01*
X163580178Y-93072666D01*
X163871335Y-93072666D01*
X163863855Y-92945329D01*
X163829147Y-92846474D01*
X163754302Y-92754824D01*
X163748590Y-92749076D01*
X163662359Y-92675153D01*
X163573171Y-92638083D01*
X163446277Y-92625919D01*
X163388757Y-92625333D01*
X163251446Y-92621051D01*
X163179674Y-92604247D01*
X163154570Y-92568982D01*
X163153315Y-92551250D01*
X163171552Y-92447238D01*
X163233411Y-92385582D01*
X163352973Y-92358042D01*
X163488953Y-92354816D01*
X163634086Y-92353618D01*
X163716308Y-92339268D01*
X163757078Y-92305708D01*
X163770061Y-92275448D01*
X163774385Y-92201612D01*
X163724961Y-92153562D01*
X163612098Y-92127114D01*
X163426110Y-92118083D01*
X163405503Y-92117981D01*
X163210818Y-92130000D01*
G37*
X163210818Y-92130000D02*
X163066687Y-92173793D01*
X162966163Y-92259398D01*
X162902297Y-92396855D01*
X162868140Y-92596203D01*
X162856744Y-92867482D01*
X162856570Y-92911083D01*
X162853068Y-93091437D01*
X162841373Y-93200595D01*
X162819251Y-93251820D01*
X162797771Y-93260333D01*
X162745578Y-93295856D01*
X162709059Y-93375184D01*
X162704084Y-93457457D01*
X162712707Y-93479346D01*
X162773324Y-93509086D01*
X162876581Y-93513050D01*
X162985511Y-93494297D01*
X163063149Y-93455886D01*
X163068792Y-93449879D01*
X163116486Y-93408660D01*
X163172149Y-93420303D01*
X163220652Y-93449879D01*
X163373306Y-93507822D01*
X163544749Y-93510569D01*
X163700642Y-93460592D01*
X163768424Y-93410424D01*
X163835300Y-93323355D01*
X163866097Y-93216298D01*
X163872333Y-93089667D01*
X163871335Y-93072666D01*
X163580178Y-93072666D01*
X163551361Y-93191843D01*
X163470679Y-93280458D01*
X163423567Y-93301379D01*
X163385408Y-93289952D01*
X163297919Y-93260341D01*
X163285984Y-93256192D01*
X163202227Y-93218685D01*
X163163588Y-93164412D01*
X163152956Y-93063592D01*
X163152667Y-93024165D01*
X163158894Y-92905366D01*
X163186409Y-92844365D01*
X163248459Y-92814677D01*
X163258809Y-92811973D01*
X163394360Y-92818322D01*
X163470475Y-92854475D01*
X163554195Y-92950889D01*
X163580178Y-93072666D01*
X163871335Y-93072666D01*
X163863855Y-92945329D01*
X163829147Y-92846474D01*
X163754302Y-92754824D01*
X163748590Y-92749076D01*
X163662359Y-92675153D01*
X163573171Y-92638083D01*
X163446277Y-92625919D01*
X163388757Y-92625333D01*
X163251446Y-92621051D01*
X163179674Y-92604247D01*
X163154570Y-92568982D01*
X163153315Y-92551250D01*
X163171552Y-92447238D01*
X163233411Y-92385582D01*
X163352973Y-92358042D01*
X163488953Y-92354816D01*
X163634086Y-92353618D01*
X163716308Y-92339268D01*
X163757078Y-92305708D01*
X163770061Y-92275448D01*
X163774385Y-92201612D01*
X163724961Y-92153562D01*
X163612098Y-92127114D01*
X163426110Y-92118083D01*
X163405503Y-92117981D01*
X163210818Y-92130000D01*
G36*
X161861086Y-92132936D02*
G01*
X161716877Y-92196839D01*
X161614640Y-92299973D01*
X161575932Y-92413529D01*
X161594730Y-92501890D01*
X161661156Y-92537406D01*
X161755360Y-92518370D01*
X161857494Y-92443077D01*
X161862154Y-92438128D01*
X161951530Y-92354564D01*
X162022286Y-92336472D01*
X162104937Y-92380374D01*
X162138494Y-92406633D01*
X162201388Y-92481273D01*
X162237996Y-92594199D01*
X162254242Y-92723920D01*
X162255471Y-92954465D01*
X162211456Y-93116032D01*
X162117039Y-93214217D01*
X161967064Y-93254616D01*
X161773832Y-93245319D01*
X161658340Y-93232921D01*
X161603698Y-93244056D01*
X161587281Y-93288118D01*
X161586333Y-93323153D01*
X161613752Y-93419109D01*
X161701335Y-93480055D01*
X161857076Y-93509830D01*
X161984306Y-93514333D01*
X162129072Y-93508286D01*
X162226384Y-93480809D01*
X162313126Y-93417899D01*
X162361827Y-93371017D01*
X162480357Y-93199520D01*
X162547681Y-92988570D01*
X162564153Y-92760731D01*
X162530129Y-92538564D01*
X162445963Y-92344633D01*
X162343847Y-92225887D01*
X162194742Y-92142531D01*
X162027098Y-92113190D01*
X161861086Y-92132936D01*
G37*
X161861086Y-92132936D02*
X161716877Y-92196839D01*
X161614640Y-92299973D01*
X161575932Y-92413529D01*
X161594730Y-92501890D01*
X161661156Y-92537406D01*
X161755360Y-92518370D01*
X161857494Y-92443077D01*
X161862154Y-92438128D01*
X161951530Y-92354564D01*
X162022286Y-92336472D01*
X162104937Y-92380374D01*
X162138494Y-92406633D01*
X162201388Y-92481273D01*
X162237996Y-92594199D01*
X162254242Y-92723920D01*
X162255471Y-92954465D01*
X162211456Y-93116032D01*
X162117039Y-93214217D01*
X161967064Y-93254616D01*
X161773832Y-93245319D01*
X161658340Y-93232921D01*
X161603698Y-93244056D01*
X161587281Y-93288118D01*
X161586333Y-93323153D01*
X161613752Y-93419109D01*
X161701335Y-93480055D01*
X161857076Y-93509830D01*
X161984306Y-93514333D01*
X162129072Y-93508286D01*
X162226384Y-93480809D01*
X162313126Y-93417899D01*
X162361827Y-93371017D01*
X162480357Y-93199520D01*
X162547681Y-92988570D01*
X162564153Y-92760731D01*
X162530129Y-92538564D01*
X162445963Y-92344633D01*
X162343847Y-92225887D01*
X162194742Y-92142531D01*
X162027098Y-92113190D01*
X161861086Y-92132936D01*
G36*
X160274000Y-93514333D02*
G01*
X160401000Y-93514333D01*
X160501826Y-93495401D01*
X160528000Y-93450833D01*
X160548351Y-93394150D01*
X160612161Y-93405650D01*
X160678659Y-93449486D01*
X160770335Y-93487727D01*
X160903756Y-93510428D01*
X160958844Y-93512986D01*
X161093830Y-93504751D01*
X161180348Y-93468729D01*
X161244594Y-93402790D01*
X161280581Y-93349240D01*
X161305208Y-93285484D01*
X161320579Y-93195272D01*
X161328800Y-93062354D01*
X161331975Y-92870480D01*
X161332333Y-92725457D01*
X161332333Y-92159666D01*
X161226500Y-92159666D01*
X161133207Y-92155794D01*
X161088917Y-92149083D01*
X161075610Y-92184692D01*
X161061643Y-92289629D01*
X161048518Y-92448582D01*
X161037734Y-92646242D01*
X161036000Y-92688833D01*
X161014833Y-93239166D01*
X160891544Y-93253225D01*
X160764508Y-93245715D01*
X160670545Y-93214991D01*
X160629237Y-93188144D01*
X160601046Y-93149549D01*
X160582955Y-93083654D01*
X160571944Y-92974909D01*
X160564996Y-92807763D01*
X160561001Y-92650599D01*
X160549167Y-92138500D01*
X160411583Y-92125234D01*
X160274000Y-92111968D01*
X160274000Y-93514333D01*
G37*
X160274000Y-93514333D02*
X160401000Y-93514333D01*
X160501826Y-93495401D01*
X160528000Y-93450833D01*
X160548351Y-93394150D01*
X160612161Y-93405650D01*
X160678659Y-93449486D01*
X160770335Y-93487727D01*
X160903756Y-93510428D01*
X160958844Y-93512986D01*
X161093830Y-93504751D01*
X161180348Y-93468729D01*
X161244594Y-93402790D01*
X161280581Y-93349240D01*
X161305208Y-93285484D01*
X161320579Y-93195272D01*
X161328800Y-93062354D01*
X161331975Y-92870480D01*
X161332333Y-92725457D01*
X161332333Y-92159666D01*
X161226500Y-92159666D01*
X161133207Y-92155794D01*
X161088917Y-92149083D01*
X161075610Y-92184692D01*
X161061643Y-92289629D01*
X161048518Y-92448582D01*
X161037734Y-92646242D01*
X161036000Y-92688833D01*
X161014833Y-93239166D01*
X160891544Y-93253225D01*
X160764508Y-93245715D01*
X160670545Y-93214991D01*
X160629237Y-93188144D01*
X160601046Y-93149549D01*
X160582955Y-93083654D01*
X160571944Y-92974909D01*
X160564996Y-92807763D01*
X160561001Y-92650599D01*
X160549167Y-92138500D01*
X160411583Y-92125234D01*
X160274000Y-92111968D01*
X160274000Y-93514333D01*
G36*
X159629351Y-92445416D02*
G01*
X159617833Y-93239166D01*
X159456533Y-93252457D01*
X159351979Y-93267066D01*
X159309720Y-93300084D01*
X159307391Y-93370682D01*
X159308366Y-93379457D01*
X159323783Y-93447380D01*
X159364986Y-93483290D01*
X159454962Y-93499964D01*
X159535447Y-93505674D01*
X159676738Y-93506230D01*
X159766210Y-93481639D01*
X159831781Y-93427254D01*
X159860226Y-93389296D01*
X159881680Y-93338743D01*
X159897386Y-93263450D01*
X159908584Y-93151270D01*
X159916517Y-92990059D01*
X159922428Y-92767671D01*
X159927218Y-92493997D01*
X159940268Y-91651666D01*
X159640868Y-91651666D01*
X159629351Y-92445416D01*
G37*
X159629351Y-92445416D02*
X159617833Y-93239166D01*
X159456533Y-93252457D01*
X159351979Y-93267066D01*
X159309720Y-93300084D01*
X159307391Y-93370682D01*
X159308366Y-93379457D01*
X159323783Y-93447380D01*
X159364986Y-93483290D01*
X159454962Y-93499964D01*
X159535447Y-93505674D01*
X159676738Y-93506230D01*
X159766210Y-93481639D01*
X159831781Y-93427254D01*
X159860226Y-93389296D01*
X159881680Y-93338743D01*
X159897386Y-93263450D01*
X159908584Y-93151270D01*
X159916517Y-92990059D01*
X159922428Y-92767671D01*
X159927218Y-92493997D01*
X159940268Y-91651666D01*
X159640868Y-91651666D01*
X159629351Y-92445416D01*
G36*
X158809092Y-91794877D02*
G01*
X158793525Y-91860462D01*
X158792333Y-91948000D01*
X158787848Y-92056418D01*
X158760152Y-92104599D01*
X158687887Y-92116954D01*
X158644167Y-92117333D01*
X158544619Y-92124413D01*
X158503789Y-92160323D01*
X158496000Y-92244333D01*
X158504260Y-92329659D01*
X158546155Y-92364657D01*
X158644167Y-92371333D01*
X158792333Y-92371333D01*
X158792333Y-93269596D01*
X158646553Y-93252577D01*
X158544715Y-93249534D01*
X158495200Y-93282571D01*
X158474764Y-93339180D01*
X158471129Y-93428533D01*
X158522000Y-93482940D01*
X158637974Y-93508925D01*
X158758183Y-93513685D01*
X158894962Y-93504539D01*
X158978408Y-93468950D01*
X159022766Y-93420247D01*
X159054119Y-93352241D01*
X159074396Y-93245183D01*
X159085334Y-93084025D01*
X159088666Y-92853724D01*
X159088667Y-92848747D01*
X159089598Y-92641953D01*
X159094099Y-92505360D01*
X159104737Y-92424507D01*
X159124074Y-92384933D01*
X159154676Y-92372177D01*
X159173333Y-92371333D01*
X159235307Y-92351375D01*
X159257127Y-92277116D01*
X159258000Y-92244333D01*
X159244695Y-92151373D01*
X159195189Y-92118643D01*
X159173333Y-92117333D01*
X159106697Y-92092241D01*
X159088667Y-92012587D01*
X159054975Y-91912243D01*
X158963769Y-91843253D01*
X158859118Y-91793247D01*
X158809092Y-91794877D01*
G37*
X158809092Y-91794877D02*
X158793525Y-91860462D01*
X158792333Y-91948000D01*
X158787848Y-92056418D01*
X158760152Y-92104599D01*
X158687887Y-92116954D01*
X158644167Y-92117333D01*
X158544619Y-92124413D01*
X158503789Y-92160323D01*
X158496000Y-92244333D01*
X158504260Y-92329659D01*
X158546155Y-92364657D01*
X158644167Y-92371333D01*
X158792333Y-92371333D01*
X158792333Y-93269596D01*
X158646553Y-93252577D01*
X158544715Y-93249534D01*
X158495200Y-93282571D01*
X158474764Y-93339180D01*
X158471129Y-93428533D01*
X158522000Y-93482940D01*
X158637974Y-93508925D01*
X158758183Y-93513685D01*
X158894962Y-93504539D01*
X158978408Y-93468950D01*
X159022766Y-93420247D01*
X159054119Y-93352241D01*
X159074396Y-93245183D01*
X159085334Y-93084025D01*
X159088666Y-92853724D01*
X159088667Y-92848747D01*
X159089598Y-92641953D01*
X159094099Y-92505360D01*
X159104737Y-92424507D01*
X159124074Y-92384933D01*
X159154676Y-92372177D01*
X159173333Y-92371333D01*
X159235307Y-92351375D01*
X159257127Y-92277116D01*
X159258000Y-92244333D01*
X159244695Y-92151373D01*
X159195189Y-92118643D01*
X159173333Y-92117333D01*
X159106697Y-92092241D01*
X159088667Y-92012587D01*
X159054975Y-91912243D01*
X158963769Y-91843253D01*
X158859118Y-91793247D01*
X158809092Y-91794877D01*
G36*
X157660801Y-92122489D02*
G01*
X157561912Y-92144981D01*
X157483146Y-92195340D01*
X157434410Y-92241076D01*
X157379105Y-92299913D01*
X157343352Y-92356427D01*
X157322891Y-92430130D01*
X157313458Y-92540533D01*
X157310793Y-92707147D01*
X157310667Y-92807639D01*
X157309409Y-93006551D01*
X157303721Y-93136583D01*
X157290730Y-93213510D01*
X157267565Y-93253103D01*
X157231353Y-93271136D01*
X157226000Y-93272599D01*
X157155921Y-93327640D01*
X157141333Y-93404536D01*
X157150132Y-93475501D01*
X157192560Y-93506822D01*
X157292671Y-93514290D01*
X157308563Y-93514333D01*
X157451210Y-93494163D01*
X157514801Y-93444630D01*
X157549412Y-93399534D01*
X157595012Y-93406701D01*
X157653324Y-93444630D01*
X157797796Y-93504456D01*
X157962657Y-93512869D01*
X158114102Y-93471750D01*
X158193964Y-93414570D01*
X158285297Y-93265524D01*
X158317954Y-93093251D01*
X158311826Y-93048118D01*
X158023082Y-93048118D01*
X158003760Y-93179696D01*
X157928896Y-93263198D01*
X157817238Y-93291162D01*
X157687533Y-93256127D01*
X157617820Y-93209413D01*
X157583200Y-93141031D01*
X157565332Y-93028264D01*
X157564667Y-93001956D01*
X157572896Y-92891687D01*
X157609009Y-92836430D01*
X157678150Y-92810130D01*
X157827766Y-92809414D01*
X157946604Y-92877896D01*
X158015217Y-93002157D01*
X158023082Y-93048118D01*
X158311826Y-93048118D01*
X158294670Y-92921782D01*
X158218179Y-92775154D01*
X158111140Y-92686836D01*
X157997166Y-92650153D01*
X157845737Y-92628152D01*
X157775583Y-92625333D01*
X157649375Y-92622647D01*
X157589349Y-92608368D01*
X157577053Y-92573162D01*
X157587255Y-92530083D01*
X157645457Y-92414541D01*
X157743697Y-92353653D01*
X157896815Y-92340459D01*
X157977417Y-92347050D01*
X158106371Y-92359133D01*
X158172392Y-92352856D01*
X158196478Y-92320975D01*
X158199667Y-92270398D01*
X158186108Y-92196721D01*
X158135716Y-92150535D01*
X158033918Y-92126087D01*
X157866142Y-92117625D01*
X157811948Y-92117333D01*
X157660801Y-92122489D01*
G37*
X157660801Y-92122489D02*
X157561912Y-92144981D01*
X157483146Y-92195340D01*
X157434410Y-92241076D01*
X157379105Y-92299913D01*
X157343352Y-92356427D01*
X157322891Y-92430130D01*
X157313458Y-92540533D01*
X157310793Y-92707147D01*
X157310667Y-92807639D01*
X157309409Y-93006551D01*
X157303721Y-93136583D01*
X157290730Y-93213510D01*
X157267565Y-93253103D01*
X157231353Y-93271136D01*
X157226000Y-93272599D01*
X157155921Y-93327640D01*
X157141333Y-93404536D01*
X157150132Y-93475501D01*
X157192560Y-93506822D01*
X157292671Y-93514290D01*
X157308563Y-93514333D01*
X157451210Y-93494163D01*
X157514801Y-93444630D01*
X157549412Y-93399534D01*
X157595012Y-93406701D01*
X157653324Y-93444630D01*
X157797796Y-93504456D01*
X157962657Y-93512869D01*
X158114102Y-93471750D01*
X158193964Y-93414570D01*
X158285297Y-93265524D01*
X158317954Y-93093251D01*
X158311826Y-93048118D01*
X158023082Y-93048118D01*
X158003760Y-93179696D01*
X157928896Y-93263198D01*
X157817238Y-93291162D01*
X157687533Y-93256127D01*
X157617820Y-93209413D01*
X157583200Y-93141031D01*
X157565332Y-93028264D01*
X157564667Y-93001956D01*
X157572896Y-92891687D01*
X157609009Y-92836430D01*
X157678150Y-92810130D01*
X157827766Y-92809414D01*
X157946604Y-92877896D01*
X158015217Y-93002157D01*
X158023082Y-93048118D01*
X158311826Y-93048118D01*
X158294670Y-92921782D01*
X158218179Y-92775154D01*
X158111140Y-92686836D01*
X157997166Y-92650153D01*
X157845737Y-92628152D01*
X157775583Y-92625333D01*
X157649375Y-92622647D01*
X157589349Y-92608368D01*
X157577053Y-92573162D01*
X157587255Y-92530083D01*
X157645457Y-92414541D01*
X157743697Y-92353653D01*
X157896815Y-92340459D01*
X157977417Y-92347050D01*
X158106371Y-92359133D01*
X158172392Y-92352856D01*
X158196478Y-92320975D01*
X158199667Y-92270398D01*
X158186108Y-92196721D01*
X158135716Y-92150535D01*
X158033918Y-92126087D01*
X157866142Y-92117625D01*
X157811948Y-92117333D01*
X157660801Y-92122489D01*
G36*
X155913667Y-93514333D02*
G01*
X156040667Y-93514333D01*
X156139906Y-93496494D01*
X156167667Y-93448432D01*
X156175319Y-93406197D01*
X156213261Y-93416138D01*
X156261753Y-93448432D01*
X156400142Y-93502179D01*
X156566096Y-93508859D01*
X156716811Y-93468489D01*
X156751156Y-93448263D01*
X156870075Y-93317159D01*
X156947908Y-93133541D01*
X156984970Y-92918679D01*
X156983229Y-92803223D01*
X156675667Y-92803223D01*
X156668173Y-92963501D01*
X156648595Y-93099083D01*
X156623150Y-93176241D01*
X156541200Y-93238264D01*
X156422685Y-93260896D01*
X156307815Y-93240443D01*
X156260800Y-93209533D01*
X156233484Y-93137531D01*
X156216087Y-92992857D01*
X156210000Y-92787689D01*
X156212242Y-92605306D01*
X156221368Y-92489273D01*
X156240983Y-92421336D01*
X156274687Y-92383241D01*
X156291884Y-92372822D01*
X156420725Y-92332002D01*
X156530164Y-92368389D01*
X156589351Y-92421649D01*
X156638416Y-92492633D01*
X156665099Y-92588890D01*
X156675074Y-92735494D01*
X156675667Y-92803223D01*
X156983229Y-92803223D01*
X156981578Y-92693839D01*
X156938049Y-92480291D01*
X156854701Y-92299304D01*
X156732150Y-92172343D01*
X156611268Y-92127967D01*
X156437316Y-92125491D01*
X156420978Y-92126965D01*
X156210000Y-92147238D01*
X156210000Y-91651666D01*
X155913667Y-91651666D01*
X155913667Y-93514333D01*
G37*
X155913667Y-93514333D02*
X156040667Y-93514333D01*
X156139906Y-93496494D01*
X156167667Y-93448432D01*
X156175319Y-93406197D01*
X156213261Y-93416138D01*
X156261753Y-93448432D01*
X156400142Y-93502179D01*
X156566096Y-93508859D01*
X156716811Y-93468489D01*
X156751156Y-93448263D01*
X156870075Y-93317159D01*
X156947908Y-93133541D01*
X156984970Y-92918679D01*
X156983229Y-92803223D01*
X156675667Y-92803223D01*
X156668173Y-92963501D01*
X156648595Y-93099083D01*
X156623150Y-93176241D01*
X156541200Y-93238264D01*
X156422685Y-93260896D01*
X156307815Y-93240443D01*
X156260800Y-93209533D01*
X156233484Y-93137531D01*
X156216087Y-92992857D01*
X156210000Y-92787689D01*
X156212242Y-92605306D01*
X156221368Y-92489273D01*
X156240983Y-92421336D01*
X156274687Y-92383241D01*
X156291884Y-92372822D01*
X156420725Y-92332002D01*
X156530164Y-92368389D01*
X156589351Y-92421649D01*
X156638416Y-92492633D01*
X156665099Y-92588890D01*
X156675074Y-92735494D01*
X156675667Y-92803223D01*
X156983229Y-92803223D01*
X156981578Y-92693839D01*
X156938049Y-92480291D01*
X156854701Y-92299304D01*
X156732150Y-92172343D01*
X156611268Y-92127967D01*
X156437316Y-92125491D01*
X156420978Y-92126965D01*
X156210000Y-92147238D01*
X156210000Y-91651666D01*
X155913667Y-91651666D01*
X155913667Y-93514333D01*
G36*
X154040417Y-91659567D02*
G01*
X153902833Y-91672833D01*
X153902833Y-93493166D01*
X154040417Y-93506432D01*
X154139315Y-93504929D01*
X154176254Y-93469274D01*
X154178000Y-93451115D01*
X154185419Y-93406801D01*
X154222721Y-93415625D01*
X154272086Y-93448432D01*
X154430362Y-93511553D01*
X154602462Y-93503437D01*
X154761439Y-93427053D01*
X154803943Y-93389877D01*
X154896792Y-93270542D01*
X154952915Y-93124812D01*
X154978725Y-92931050D01*
X154982333Y-92788015D01*
X154970219Y-92690145D01*
X154678752Y-92690145D01*
X154678160Y-92917215D01*
X154675244Y-92945454D01*
X154650708Y-93075602D01*
X154614680Y-93175957D01*
X154601353Y-93196810D01*
X154508632Y-93249518D01*
X154379641Y-93254846D01*
X154259884Y-93216510D01*
X154220056Y-93185133D01*
X154195554Y-93130994D01*
X154182822Y-93035934D01*
X154178304Y-92881793D01*
X154178000Y-92798313D01*
X154178000Y-92423938D01*
X154304750Y-92371436D01*
X154445029Y-92347683D01*
X154557348Y-92397882D01*
X154636869Y-92514535D01*
X154678752Y-92690145D01*
X154970219Y-92690145D01*
X154950252Y-92528834D01*
X154855095Y-92322188D01*
X154744047Y-92204660D01*
X154654641Y-92146800D01*
X154559457Y-92124104D01*
X154422380Y-92128834D01*
X154400250Y-92130993D01*
X154178000Y-92153549D01*
X154178000Y-91646302D01*
X154040417Y-91659567D01*
G37*
X154040417Y-91659567D02*
X153902833Y-91672833D01*
X153902833Y-93493166D01*
X154040417Y-93506432D01*
X154139315Y-93504929D01*
X154176254Y-93469274D01*
X154178000Y-93451115D01*
X154185419Y-93406801D01*
X154222721Y-93415625D01*
X154272086Y-93448432D01*
X154430362Y-93511553D01*
X154602462Y-93503437D01*
X154761439Y-93427053D01*
X154803943Y-93389877D01*
X154896792Y-93270542D01*
X154952915Y-93124812D01*
X154978725Y-92931050D01*
X154982333Y-92788015D01*
X154970219Y-92690145D01*
X154678752Y-92690145D01*
X154678160Y-92917215D01*
X154675244Y-92945454D01*
X154650708Y-93075602D01*
X154614680Y-93175957D01*
X154601353Y-93196810D01*
X154508632Y-93249518D01*
X154379641Y-93254846D01*
X154259884Y-93216510D01*
X154220056Y-93185133D01*
X154195554Y-93130994D01*
X154182822Y-93035934D01*
X154178304Y-92881793D01*
X154178000Y-92798313D01*
X154178000Y-92423938D01*
X154304750Y-92371436D01*
X154445029Y-92347683D01*
X154557348Y-92397882D01*
X154636869Y-92514535D01*
X154678752Y-92690145D01*
X154970219Y-92690145D01*
X154950252Y-92528834D01*
X154855095Y-92322188D01*
X154744047Y-92204660D01*
X154654641Y-92146800D01*
X154559457Y-92124104D01*
X154422380Y-92128834D01*
X154400250Y-92130993D01*
X154178000Y-92153549D01*
X154178000Y-91646302D01*
X154040417Y-91659567D01*
G36*
X152963095Y-92126426D02*
G01*
X152849905Y-92149306D01*
X152820989Y-92160921D01*
X152717683Y-92259930D01*
X152642011Y-92421343D01*
X152602959Y-92624974D01*
X152600950Y-92655240D01*
X152590500Y-92858166D01*
X152965077Y-92870458D01*
X153339654Y-92882751D01*
X153311029Y-92997458D01*
X153248312Y-93150019D01*
X153146616Y-93232015D01*
X152992668Y-93252767D01*
X152951248Y-93250109D01*
X152817051Y-93232407D01*
X152709822Y-93208492D01*
X152685750Y-93199812D01*
X152631872Y-93204001D01*
X152607502Y-93260448D01*
X152611868Y-93342347D01*
X152644198Y-93422889D01*
X152693550Y-93470510D01*
X152808276Y-93501924D01*
X152969176Y-93511484D01*
X153140965Y-93500412D01*
X153288358Y-93469932D01*
X153341385Y-93448065D01*
X153477133Y-93328057D01*
X153569800Y-93145925D01*
X153615039Y-92914830D01*
X153608499Y-92647935D01*
X153607752Y-92641857D01*
X153594849Y-92579909D01*
X153320826Y-92579909D01*
X153312903Y-92636941D01*
X153245680Y-92661953D01*
X153106866Y-92667660D01*
X153098500Y-92667666D01*
X152963337Y-92663696D01*
X152892943Y-92647272D01*
X152867614Y-92611625D01*
X152865667Y-92587689D01*
X152891383Y-92496564D01*
X152943191Y-92411974D01*
X153041992Y-92344328D01*
X153151567Y-92349107D01*
X153247794Y-92421596D01*
X153281743Y-92478143D01*
X153320826Y-92579909D01*
X153594849Y-92579909D01*
X153572230Y-92471321D01*
X153504187Y-92341527D01*
X153439674Y-92265251D01*
X153338422Y-92171281D01*
X153243259Y-92128164D01*
X153111769Y-92117359D01*
X153101302Y-92117333D01*
X152963095Y-92126426D01*
G37*
X152963095Y-92126426D02*
X152849905Y-92149306D01*
X152820989Y-92160921D01*
X152717683Y-92259930D01*
X152642011Y-92421343D01*
X152602959Y-92624974D01*
X152600950Y-92655240D01*
X152590500Y-92858166D01*
X152965077Y-92870458D01*
X153339654Y-92882751D01*
X153311029Y-92997458D01*
X153248312Y-93150019D01*
X153146616Y-93232015D01*
X152992668Y-93252767D01*
X152951248Y-93250109D01*
X152817051Y-93232407D01*
X152709822Y-93208492D01*
X152685750Y-93199812D01*
X152631872Y-93204001D01*
X152607502Y-93260448D01*
X152611868Y-93342347D01*
X152644198Y-93422889D01*
X152693550Y-93470510D01*
X152808276Y-93501924D01*
X152969176Y-93511484D01*
X153140965Y-93500412D01*
X153288358Y-93469932D01*
X153341385Y-93448065D01*
X153477133Y-93328057D01*
X153569800Y-93145925D01*
X153615039Y-92914830D01*
X153608499Y-92647935D01*
X153607752Y-92641857D01*
X153594849Y-92579909D01*
X153320826Y-92579909D01*
X153312903Y-92636941D01*
X153245680Y-92661953D01*
X153106866Y-92667660D01*
X153098500Y-92667666D01*
X152963337Y-92663696D01*
X152892943Y-92647272D01*
X152867614Y-92611625D01*
X152865667Y-92587689D01*
X152891383Y-92496564D01*
X152943191Y-92411974D01*
X153041992Y-92344328D01*
X153151567Y-92349107D01*
X153247794Y-92421596D01*
X153281743Y-92478143D01*
X153320826Y-92579909D01*
X153594849Y-92579909D01*
X153572230Y-92471321D01*
X153504187Y-92341527D01*
X153439674Y-92265251D01*
X153338422Y-92171281D01*
X153243259Y-92128164D01*
X153111769Y-92117359D01*
X153101302Y-92117333D01*
X152963095Y-92126426D01*
G36*
X167137063Y-92480649D02*
G01*
X166808491Y-92577232D01*
X166683714Y-92631558D01*
X166571360Y-92689556D01*
X166516470Y-92744389D01*
X166498543Y-92825907D01*
X166497000Y-92903415D01*
X166497000Y-93087506D01*
X166698083Y-92986921D01*
X166963306Y-92875535D01*
X167218670Y-92817375D01*
X167479759Y-92813242D01*
X167762154Y-92863937D01*
X168081438Y-92970260D01*
X168317333Y-93070119D01*
X168568100Y-93180548D01*
X168762324Y-93257973D01*
X168919140Y-93307362D01*
X169057680Y-93333679D01*
X169197078Y-93341890D01*
X169347449Y-93337457D01*
X169496121Y-93324353D01*
X169632365Y-93297961D01*
X169779702Y-93251212D01*
X169961649Y-93177033D01*
X170125177Y-93103638D01*
X170448983Y-92963496D01*
X170719809Y-92868949D01*
X170955423Y-92819076D01*
X171173589Y-92812958D01*
X171392073Y-92849674D01*
X171628642Y-92928306D01*
X171831000Y-93015322D01*
X172113278Y-93141035D01*
X172338542Y-93231342D01*
X172524129Y-93291334D01*
X172687379Y-93326107D01*
X172845629Y-93340751D01*
X172943217Y-93342017D01*
X173121344Y-93332548D01*
X173288043Y-93310711D01*
X173401311Y-93283019D01*
X173592031Y-93208013D01*
X173715246Y-93143636D01*
X173785000Y-93077750D01*
X173815334Y-92998218D01*
X173820667Y-92920579D01*
X173813186Y-92802205D01*
X173782097Y-92759145D01*
X173714432Y-92782718D01*
X173664185Y-92815830D01*
X173575657Y-92859786D01*
X173437221Y-92909848D01*
X173306166Y-92947822D01*
X173111372Y-92987100D01*
X172925800Y-92997902D01*
X172732348Y-92977319D01*
X172513914Y-92922441D01*
X172253397Y-92830358D01*
X171996054Y-92724909D01*
X171667193Y-92593220D01*
X171391640Y-92506105D01*
X171150972Y-92463162D01*
X170926766Y-92463988D01*
X170700598Y-92508181D01*
X170454044Y-92595336D01*
X170248781Y-92686716D01*
X170008117Y-92798178D01*
X169824180Y-92877356D01*
X169678363Y-92930613D01*
X169552062Y-92964308D01*
X169426670Y-92984804D01*
X169354500Y-92992463D01*
X169207250Y-92996361D01*
X169050841Y-92978066D01*
X168871616Y-92933631D01*
X168655916Y-92859107D01*
X168390084Y-92750547D01*
X168148000Y-92643697D01*
X167792406Y-92513762D01*
X167460231Y-92459452D01*
X167137063Y-92480649D01*
G37*
X167137063Y-92480649D02*
X166808491Y-92577232D01*
X166683714Y-92631558D01*
X166571360Y-92689556D01*
X166516470Y-92744389D01*
X166498543Y-92825907D01*
X166497000Y-92903415D01*
X166497000Y-93087506D01*
X166698083Y-92986921D01*
X166963306Y-92875535D01*
X167218670Y-92817375D01*
X167479759Y-92813242D01*
X167762154Y-92863937D01*
X168081438Y-92970260D01*
X168317333Y-93070119D01*
X168568100Y-93180548D01*
X168762324Y-93257973D01*
X168919140Y-93307362D01*
X169057680Y-93333679D01*
X169197078Y-93341890D01*
X169347449Y-93337457D01*
X169496121Y-93324353D01*
X169632365Y-93297961D01*
X169779702Y-93251212D01*
X169961649Y-93177033D01*
X170125177Y-93103638D01*
X170448983Y-92963496D01*
X170719809Y-92868949D01*
X170955423Y-92819076D01*
X171173589Y-92812958D01*
X171392073Y-92849674D01*
X171628642Y-92928306D01*
X171831000Y-93015322D01*
X172113278Y-93141035D01*
X172338542Y-93231342D01*
X172524129Y-93291334D01*
X172687379Y-93326107D01*
X172845629Y-93340751D01*
X172943217Y-93342017D01*
X173121344Y-93332548D01*
X173288043Y-93310711D01*
X173401311Y-93283019D01*
X173592031Y-93208013D01*
X173715246Y-93143636D01*
X173785000Y-93077750D01*
X173815334Y-92998218D01*
X173820667Y-92920579D01*
X173813186Y-92802205D01*
X173782097Y-92759145D01*
X173714432Y-92782718D01*
X173664185Y-92815830D01*
X173575657Y-92859786D01*
X173437221Y-92909848D01*
X173306166Y-92947822D01*
X173111372Y-92987100D01*
X172925800Y-92997902D01*
X172732348Y-92977319D01*
X172513914Y-92922441D01*
X172253397Y-92830358D01*
X171996054Y-92724909D01*
X171667193Y-92593220D01*
X171391640Y-92506105D01*
X171150972Y-92463162D01*
X170926766Y-92463988D01*
X170700598Y-92508181D01*
X170454044Y-92595336D01*
X170248781Y-92686716D01*
X170008117Y-92798178D01*
X169824180Y-92877356D01*
X169678363Y-92930613D01*
X169552062Y-92964308D01*
X169426670Y-92984804D01*
X169354500Y-92992463D01*
X169207250Y-92996361D01*
X169050841Y-92978066D01*
X168871616Y-92933631D01*
X168655916Y-92859107D01*
X168390084Y-92750547D01*
X168148000Y-92643697D01*
X167792406Y-92513762D01*
X167460231Y-92459452D01*
X167137063Y-92480649D01*
G36*
X170832462Y-91149222D02*
G01*
X170599885Y-91217906D01*
X170325244Y-91326965D01*
X170141784Y-91407468D01*
X169919585Y-91504045D01*
X169749634Y-91569208D01*
X169608617Y-91609737D01*
X169473221Y-91632411D01*
X169330034Y-91643513D01*
X169163357Y-91647408D01*
X169016687Y-91636856D01*
X168870633Y-91606686D01*
X168705804Y-91551726D01*
X168502810Y-91466805D01*
X168275000Y-91362149D01*
X167912261Y-91215230D01*
X167586184Y-91136056D01*
X167283387Y-91124077D01*
X166990489Y-91178745D01*
X166698083Y-91297496D01*
X166497000Y-91399092D01*
X166497000Y-92075814D01*
X166702906Y-91968149D01*
X167027971Y-91842848D01*
X167368553Y-91799387D01*
X167726307Y-91837817D01*
X168102888Y-91958190D01*
X168232667Y-92016429D01*
X168541172Y-92155934D01*
X168796225Y-92251203D01*
X169013392Y-92307041D01*
X169208240Y-92328252D01*
X169244711Y-92328763D01*
X169418813Y-92321394D01*
X169581292Y-92295467D01*
X169754987Y-92244698D01*
X169962739Y-92162799D01*
X170148406Y-92080029D01*
X170454107Y-91946122D01*
X170709234Y-91854214D01*
X170933214Y-91804325D01*
X171145474Y-91796475D01*
X171365442Y-91830684D01*
X171612543Y-91906972D01*
X171906206Y-92025358D01*
X172035351Y-92081967D01*
X172253090Y-92176426D01*
X172418026Y-92240267D01*
X172553446Y-92280003D01*
X172682637Y-92302149D01*
X172828886Y-92313218D01*
X172868167Y-92314913D01*
X173089858Y-92313916D01*
X173279827Y-92294709D01*
X173376167Y-92272251D01*
X173524783Y-92216336D01*
X173666789Y-92152821D01*
X173683083Y-92144527D01*
X173820667Y-92072825D01*
X173820667Y-91402350D01*
X173577250Y-91516425D01*
X173445795Y-91572546D01*
X173325557Y-91606815D01*
X173187619Y-91624342D01*
X173003063Y-91630236D01*
X172931667Y-91630500D01*
X172761097Y-91629089D01*
X172629958Y-91621021D01*
X172514668Y-91600544D01*
X172391644Y-91561904D01*
X172237304Y-91499348D01*
X172042667Y-91413630D01*
X171729717Y-91279496D01*
X171471602Y-91186050D01*
X171248941Y-91133231D01*
X171042354Y-91120976D01*
X170832462Y-91149222D01*
G37*
X170832462Y-91149222D02*
X170599885Y-91217906D01*
X170325244Y-91326965D01*
X170141784Y-91407468D01*
X169919585Y-91504045D01*
X169749634Y-91569208D01*
X169608617Y-91609737D01*
X169473221Y-91632411D01*
X169330034Y-91643513D01*
X169163357Y-91647408D01*
X169016687Y-91636856D01*
X168870633Y-91606686D01*
X168705804Y-91551726D01*
X168502810Y-91466805D01*
X168275000Y-91362149D01*
X167912261Y-91215230D01*
X167586184Y-91136056D01*
X167283387Y-91124077D01*
X166990489Y-91178745D01*
X166698083Y-91297496D01*
X166497000Y-91399092D01*
X166497000Y-92075814D01*
X166702906Y-91968149D01*
X167027971Y-91842848D01*
X167368553Y-91799387D01*
X167726307Y-91837817D01*
X168102888Y-91958190D01*
X168232667Y-92016429D01*
X168541172Y-92155934D01*
X168796225Y-92251203D01*
X169013392Y-92307041D01*
X169208240Y-92328252D01*
X169244711Y-92328763D01*
X169418813Y-92321394D01*
X169581292Y-92295467D01*
X169754987Y-92244698D01*
X169962739Y-92162799D01*
X170148406Y-92080029D01*
X170454107Y-91946122D01*
X170709234Y-91854214D01*
X170933214Y-91804325D01*
X171145474Y-91796475D01*
X171365442Y-91830684D01*
X171612543Y-91906972D01*
X171906206Y-92025358D01*
X172035351Y-92081967D01*
X172253090Y-92176426D01*
X172418026Y-92240267D01*
X172553446Y-92280003D01*
X172682637Y-92302149D01*
X172828886Y-92313218D01*
X172868167Y-92314913D01*
X173089858Y-92313916D01*
X173279827Y-92294709D01*
X173376167Y-92272251D01*
X173524783Y-92216336D01*
X173666789Y-92152821D01*
X173683083Y-92144527D01*
X173820667Y-92072825D01*
X173820667Y-91402350D01*
X173577250Y-91516425D01*
X173445795Y-91572546D01*
X173325557Y-91606815D01*
X173187619Y-91624342D01*
X173003063Y-91630236D01*
X172931667Y-91630500D01*
X172761097Y-91629089D01*
X172629958Y-91621021D01*
X172514668Y-91600544D01*
X172391644Y-91561904D01*
X172237304Y-91499348D01*
X172042667Y-91413630D01*
X171729717Y-91279496D01*
X171471602Y-91186050D01*
X171248941Y-91133231D01*
X171042354Y-91120976D01*
X170832462Y-91149222D01*
%TO.C,REF\u002A\u002A*%
G36*
X224395743Y-91453689D02*
G01*
X224131220Y-91453725D01*
X224008088Y-91453730D01*
X222037189Y-91453730D01*
X222037189Y-91569910D01*
X222024789Y-91711291D01*
X221987364Y-91841684D01*
X221924577Y-91961862D01*
X221836094Y-92072602D01*
X221806157Y-92102511D01*
X221698466Y-92187348D01*
X221579725Y-92249221D01*
X221453460Y-92288159D01*
X221323197Y-92304190D01*
X221192465Y-92297342D01*
X221064788Y-92267643D01*
X220943695Y-92215120D01*
X220832712Y-92139803D01*
X220782868Y-92094363D01*
X220689983Y-91982952D01*
X220621873Y-91860435D01*
X220579129Y-91728215D01*
X220562347Y-91587692D01*
X220562124Y-91573867D01*
X220561244Y-91453734D01*
X220508443Y-91453732D01*
X220461604Y-91460089D01*
X220418817Y-91475556D01*
X220415989Y-91477154D01*
X220406325Y-91482168D01*
X220397451Y-91486073D01*
X220389335Y-91490007D01*
X220381943Y-91495106D01*
X220375245Y-91502508D01*
X220369208Y-91513351D01*
X220363801Y-91528772D01*
X220358990Y-91549909D01*
X220354745Y-91577899D01*
X220351032Y-91613879D01*
X220347821Y-91658987D01*
X220345078Y-91714360D01*
X220342772Y-91781137D01*
X220340871Y-91860453D01*
X220339342Y-91953447D01*
X220338154Y-92061257D01*
X220337274Y-92185019D01*
X220336670Y-92325871D01*
X220336311Y-92484950D01*
X220336165Y-92663395D01*
X220336198Y-92862342D01*
X220336380Y-93082929D01*
X220336677Y-93326293D01*
X220337059Y-93593572D01*
X220337492Y-93885903D01*
X220337945Y-94204424D01*
X220337998Y-94243230D01*
X220338404Y-94563782D01*
X220338749Y-94858012D01*
X220339069Y-95127056D01*
X220339400Y-95372052D01*
X220339779Y-95594137D01*
X220340243Y-95794447D01*
X220340828Y-95974119D01*
X220341570Y-96134290D01*
X220342506Y-96276098D01*
X220343673Y-96400679D01*
X220345107Y-96509170D01*
X220346844Y-96602707D01*
X220348922Y-96682429D01*
X220351376Y-96749472D01*
X220354244Y-96804973D01*
X220357561Y-96850068D01*
X220361364Y-96885895D01*
X220365690Y-96913591D01*
X220370575Y-96934293D01*
X220376055Y-96949137D01*
X220382168Y-96959260D01*
X220388950Y-96965800D01*
X220396437Y-96969893D01*
X220404666Y-96972676D01*
X220413673Y-96975287D01*
X220423495Y-96978862D01*
X220425894Y-96979950D01*
X220433435Y-96982396D01*
X220446056Y-96984642D01*
X220464859Y-96986698D01*
X220490947Y-96988572D01*
X220525422Y-96990271D01*
X220569385Y-96991803D01*
X220623939Y-96993177D01*
X220690185Y-96994400D01*
X220769226Y-96995481D01*
X220862163Y-96996427D01*
X220970099Y-96997247D01*
X221094136Y-96997947D01*
X221235376Y-96998538D01*
X221394921Y-96999025D01*
X221573872Y-96999419D01*
X221773332Y-96999725D01*
X221994404Y-96999953D01*
X222238188Y-97000110D01*
X222505787Y-97000205D01*
X222798303Y-97000245D01*
X223116839Y-97000238D01*
X223220021Y-97000228D01*
X223545623Y-97000176D01*
X223844881Y-97000091D01*
X224118909Y-96999963D01*
X224368824Y-96999785D01*
X224595740Y-96999548D01*
X224800773Y-96999242D01*
X224985038Y-96998860D01*
X225149650Y-96998392D01*
X225295725Y-96997830D01*
X225424376Y-96997165D01*
X225536721Y-96996388D01*
X225633874Y-96995491D01*
X225716950Y-96994465D01*
X225787064Y-96993301D01*
X225845332Y-96991991D01*
X225892869Y-96990525D01*
X225930790Y-96988896D01*
X225960210Y-96987093D01*
X225982245Y-96985110D01*
X225998010Y-96982936D01*
X226008620Y-96980563D01*
X226014404Y-96978391D01*
X226024684Y-96974056D01*
X226034122Y-96970859D01*
X226042755Y-96967665D01*
X226050619Y-96963338D01*
X226057748Y-96956744D01*
X226064179Y-96946747D01*
X226069947Y-96932212D01*
X226075089Y-96912003D01*
X226079640Y-96884985D01*
X226083635Y-96850023D01*
X226087111Y-96805981D01*
X226090102Y-96751724D01*
X226092646Y-96686117D01*
X226094777Y-96608024D01*
X226096532Y-96516310D01*
X226097945Y-96409840D01*
X226098315Y-96368973D01*
X225731884Y-96368973D01*
X224436734Y-96368973D01*
X224461655Y-96331217D01*
X224486447Y-96292417D01*
X224507440Y-96255469D01*
X224524935Y-96217788D01*
X224539230Y-96176788D01*
X224550623Y-96129883D01*
X224559413Y-96074487D01*
X224565898Y-96008016D01*
X224570377Y-95927883D01*
X224573150Y-95831502D01*
X224574513Y-95716289D01*
X224574767Y-95579657D01*
X224574209Y-95419020D01*
X224573893Y-95359382D01*
X224570325Y-94720041D01*
X224165298Y-95271449D01*
X224050554Y-95427876D01*
X223951143Y-95564088D01*
X223865990Y-95681890D01*
X223794022Y-95783084D01*
X223734166Y-95869477D01*
X223685348Y-95942874D01*
X223646495Y-96005077D01*
X223616534Y-96057893D01*
X223594391Y-96103125D01*
X223578993Y-96142578D01*
X223569266Y-96178058D01*
X223564137Y-96211368D01*
X223562532Y-96244313D01*
X223563379Y-96278697D01*
X223563595Y-96283019D01*
X223568054Y-96369031D01*
X222148692Y-96368973D01*
X222254265Y-96262522D01*
X222282913Y-96233406D01*
X222310090Y-96205076D01*
X222336989Y-96175968D01*
X222364803Y-96144520D01*
X222394725Y-96109169D01*
X222427946Y-96068354D01*
X222465661Y-96020511D01*
X222509060Y-95964079D01*
X222559338Y-95897494D01*
X222617688Y-95819195D01*
X222685300Y-95727619D01*
X222763369Y-95621204D01*
X222853088Y-95498387D01*
X222955648Y-95357605D01*
X223072242Y-95197297D01*
X223167809Y-95065798D01*
X223287749Y-94900596D01*
X223392380Y-94756152D01*
X223482648Y-94631094D01*
X223559503Y-94524052D01*
X223623891Y-94433654D01*
X223676761Y-94358529D01*
X223719060Y-94297304D01*
X223751736Y-94248610D01*
X223775738Y-94211074D01*
X223792013Y-94183325D01*
X223801508Y-94163992D01*
X223805173Y-94151703D01*
X223804071Y-94145242D01*
X223790724Y-94128048D01*
X223761866Y-94091655D01*
X223719240Y-94038224D01*
X223664585Y-93969919D01*
X223599644Y-93888903D01*
X223526158Y-93797340D01*
X223445868Y-93697392D01*
X223360515Y-93591224D01*
X223271840Y-93480997D01*
X223181586Y-93368876D01*
X223131944Y-93307244D01*
X221899373Y-93307244D01*
X221848146Y-93399919D01*
X221796919Y-93492595D01*
X221796919Y-96183622D01*
X221848146Y-96276298D01*
X221899373Y-96368973D01*
X221293396Y-96368973D01*
X221148734Y-96368931D01*
X221029244Y-96368741D01*
X220932642Y-96368308D01*
X220856642Y-96367536D01*
X220798957Y-96366330D01*
X220757301Y-96364594D01*
X220729389Y-96362232D01*
X220712935Y-96359150D01*
X220705652Y-96355251D01*
X220705255Y-96350440D01*
X220709458Y-96344622D01*
X220709501Y-96344574D01*
X220726813Y-96319532D01*
X220749736Y-96278815D01*
X220769981Y-96238168D01*
X220808379Y-96156162D01*
X220816211Y-93307244D01*
X221899373Y-93307244D01*
X223131944Y-93307244D01*
X223091493Y-93257024D01*
X223003302Y-93147604D01*
X222918754Y-93042778D01*
X222839592Y-92944711D01*
X222767556Y-92855566D01*
X222704387Y-92777505D01*
X222651827Y-92712692D01*
X222611617Y-92663290D01*
X222588000Y-92634487D01*
X222496290Y-92526778D01*
X222408060Y-92429580D01*
X222326403Y-92346076D01*
X222254410Y-92279448D01*
X222203319Y-92238599D01*
X222142907Y-92195135D01*
X223532298Y-92195135D01*
X223531908Y-92276666D01*
X223535791Y-92336606D01*
X223550390Y-92392177D01*
X223572988Y-92444855D01*
X223587678Y-92474615D01*
X223603472Y-92504103D01*
X223621814Y-92535276D01*
X223644145Y-92570093D01*
X223671909Y-92610510D01*
X223706549Y-92658486D01*
X223749507Y-92715978D01*
X223802227Y-92784943D01*
X223866151Y-92867339D01*
X223942721Y-92965124D01*
X224033381Y-93080255D01*
X224139574Y-93214690D01*
X224151568Y-93229859D01*
X224570325Y-93759412D01*
X224574378Y-93172922D01*
X224575195Y-92997251D01*
X224575021Y-92848532D01*
X224573849Y-92726275D01*
X224571669Y-92629989D01*
X224568474Y-92559183D01*
X224564256Y-92513369D01*
X224562838Y-92504679D01*
X224540591Y-92413135D01*
X224511443Y-92330608D01*
X224478182Y-92264253D01*
X224458200Y-92236110D01*
X224423722Y-92195135D01*
X225077914Y-92195135D01*
X225233969Y-92195269D01*
X225364467Y-92195703D01*
X225471310Y-92196489D01*
X225556398Y-92197676D01*
X225621635Y-92199317D01*
X225668921Y-92201461D01*
X225700157Y-92204159D01*
X225717246Y-92207462D01*
X225722088Y-92211421D01*
X225721753Y-92212298D01*
X225707885Y-92233231D01*
X225684732Y-92266412D01*
X225672754Y-92283193D01*
X225660369Y-92299940D01*
X225649237Y-92314915D01*
X225639288Y-92329594D01*
X225630451Y-92345449D01*
X225622657Y-92363955D01*
X225615835Y-92386585D01*
X225609916Y-92414813D01*
X225604829Y-92450113D01*
X225600504Y-92493958D01*
X225596871Y-92547822D01*
X225593860Y-92613180D01*
X225591401Y-92691504D01*
X225589423Y-92784268D01*
X225587858Y-92892947D01*
X225586634Y-93019013D01*
X225585681Y-93163942D01*
X225584930Y-93329206D01*
X225584311Y-93516279D01*
X225583752Y-93726635D01*
X225583185Y-93961748D01*
X225582655Y-94177741D01*
X225582155Y-94418535D01*
X225581895Y-94648274D01*
X225581868Y-94865493D01*
X225582067Y-95068722D01*
X225582486Y-95256496D01*
X225583118Y-95427345D01*
X225583956Y-95579803D01*
X225584992Y-95712403D01*
X225586220Y-95823676D01*
X225587633Y-95912156D01*
X225589225Y-95976375D01*
X225590987Y-96014865D01*
X225591321Y-96018933D01*
X225603466Y-96112248D01*
X225622427Y-96187190D01*
X225651302Y-96252594D01*
X225693190Y-96317293D01*
X225698429Y-96324352D01*
X225731884Y-96368973D01*
X226098315Y-96368973D01*
X226099054Y-96287479D01*
X226099893Y-96148090D01*
X226100498Y-95990539D01*
X226100905Y-95813691D01*
X226101150Y-95616410D01*
X226101267Y-95397560D01*
X226101295Y-95156007D01*
X226101267Y-94890615D01*
X226101220Y-94600249D01*
X226101190Y-94283773D01*
X226101189Y-94220946D01*
X226101172Y-93901137D01*
X226101112Y-93607661D01*
X226101002Y-93339390D01*
X226100833Y-93095198D01*
X226100597Y-92873957D01*
X226100284Y-92674540D01*
X226099885Y-92495820D01*
X226099393Y-92336671D01*
X226098797Y-92195966D01*
X226098090Y-92072576D01*
X226097263Y-91965376D01*
X226096307Y-91873238D01*
X226095213Y-91795035D01*
X226093973Y-91729641D01*
X226092578Y-91675928D01*
X226091018Y-91632769D01*
X226089286Y-91599037D01*
X226087372Y-91573605D01*
X226085268Y-91555347D01*
X226082966Y-91543134D01*
X226080455Y-91535841D01*
X226080363Y-91535659D01*
X226075192Y-91524518D01*
X226070885Y-91514431D01*
X226066121Y-91505346D01*
X226059578Y-91497212D01*
X226049935Y-91489976D01*
X226035871Y-91483586D01*
X226016063Y-91477989D01*
X225989191Y-91473133D01*
X225953933Y-91468966D01*
X225908968Y-91465436D01*
X225852974Y-91462491D01*
X225784629Y-91460077D01*
X225702614Y-91458144D01*
X225605605Y-91456638D01*
X225492282Y-91455508D01*
X225361323Y-91454702D01*
X225211407Y-91454166D01*
X225041213Y-91453849D01*
X224849418Y-91453699D01*
X224634702Y-91453663D01*
X224395743Y-91453689D01*
G37*
X224395743Y-91453689D02*
X224131220Y-91453725D01*
X224008088Y-91453730D01*
X222037189Y-91453730D01*
X222037189Y-91569910D01*
X222024789Y-91711291D01*
X221987364Y-91841684D01*
X221924577Y-91961862D01*
X221836094Y-92072602D01*
X221806157Y-92102511D01*
X221698466Y-92187348D01*
X221579725Y-92249221D01*
X221453460Y-92288159D01*
X221323197Y-92304190D01*
X221192465Y-92297342D01*
X221064788Y-92267643D01*
X220943695Y-92215120D01*
X220832712Y-92139803D01*
X220782868Y-92094363D01*
X220689983Y-91982952D01*
X220621873Y-91860435D01*
X220579129Y-91728215D01*
X220562347Y-91587692D01*
X220562124Y-91573867D01*
X220561244Y-91453734D01*
X220508443Y-91453732D01*
X220461604Y-91460089D01*
X220418817Y-91475556D01*
X220415989Y-91477154D01*
X220406325Y-91482168D01*
X220397451Y-91486073D01*
X220389335Y-91490007D01*
X220381943Y-91495106D01*
X220375245Y-91502508D01*
X220369208Y-91513351D01*
X220363801Y-91528772D01*
X220358990Y-91549909D01*
X220354745Y-91577899D01*
X220351032Y-91613879D01*
X220347821Y-91658987D01*
X220345078Y-91714360D01*
X220342772Y-91781137D01*
X220340871Y-91860453D01*
X220339342Y-91953447D01*
X220338154Y-92061257D01*
X220337274Y-92185019D01*
X220336670Y-92325871D01*
X220336311Y-92484950D01*
X220336165Y-92663395D01*
X220336198Y-92862342D01*
X220336380Y-93082929D01*
X220336677Y-93326293D01*
X220337059Y-93593572D01*
X220337492Y-93885903D01*
X220337945Y-94204424D01*
X220337998Y-94243230D01*
X220338404Y-94563782D01*
X220338749Y-94858012D01*
X220339069Y-95127056D01*
X220339400Y-95372052D01*
X220339779Y-95594137D01*
X220340243Y-95794447D01*
X220340828Y-95974119D01*
X220341570Y-96134290D01*
X220342506Y-96276098D01*
X220343673Y-96400679D01*
X220345107Y-96509170D01*
X220346844Y-96602707D01*
X220348922Y-96682429D01*
X220351376Y-96749472D01*
X220354244Y-96804973D01*
X220357561Y-96850068D01*
X220361364Y-96885895D01*
X220365690Y-96913591D01*
X220370575Y-96934293D01*
X220376055Y-96949137D01*
X220382168Y-96959260D01*
X220388950Y-96965800D01*
X220396437Y-96969893D01*
X220404666Y-96972676D01*
X220413673Y-96975287D01*
X220423495Y-96978862D01*
X220425894Y-96979950D01*
X220433435Y-96982396D01*
X220446056Y-96984642D01*
X220464859Y-96986698D01*
X220490947Y-96988572D01*
X220525422Y-96990271D01*
X220569385Y-96991803D01*
X220623939Y-96993177D01*
X220690185Y-96994400D01*
X220769226Y-96995481D01*
X220862163Y-96996427D01*
X220970099Y-96997247D01*
X221094136Y-96997947D01*
X221235376Y-96998538D01*
X221394921Y-96999025D01*
X221573872Y-96999419D01*
X221773332Y-96999725D01*
X221994404Y-96999953D01*
X222238188Y-97000110D01*
X222505787Y-97000205D01*
X222798303Y-97000245D01*
X223116839Y-97000238D01*
X223220021Y-97000228D01*
X223545623Y-97000176D01*
X223844881Y-97000091D01*
X224118909Y-96999963D01*
X224368824Y-96999785D01*
X224595740Y-96999548D01*
X224800773Y-96999242D01*
X224985038Y-96998860D01*
X225149650Y-96998392D01*
X225295725Y-96997830D01*
X225424376Y-96997165D01*
X225536721Y-96996388D01*
X225633874Y-96995491D01*
X225716950Y-96994465D01*
X225787064Y-96993301D01*
X225845332Y-96991991D01*
X225892869Y-96990525D01*
X225930790Y-96988896D01*
X225960210Y-96987093D01*
X225982245Y-96985110D01*
X225998010Y-96982936D01*
X226008620Y-96980563D01*
X226014404Y-96978391D01*
X226024684Y-96974056D01*
X226034122Y-96970859D01*
X226042755Y-96967665D01*
X226050619Y-96963338D01*
X226057748Y-96956744D01*
X226064179Y-96946747D01*
X226069947Y-96932212D01*
X226075089Y-96912003D01*
X226079640Y-96884985D01*
X226083635Y-96850023D01*
X226087111Y-96805981D01*
X226090102Y-96751724D01*
X226092646Y-96686117D01*
X226094777Y-96608024D01*
X226096532Y-96516310D01*
X226097945Y-96409840D01*
X226098315Y-96368973D01*
X225731884Y-96368973D01*
X224436734Y-96368973D01*
X224461655Y-96331217D01*
X224486447Y-96292417D01*
X224507440Y-96255469D01*
X224524935Y-96217788D01*
X224539230Y-96176788D01*
X224550623Y-96129883D01*
X224559413Y-96074487D01*
X224565898Y-96008016D01*
X224570377Y-95927883D01*
X224573150Y-95831502D01*
X224574513Y-95716289D01*
X224574767Y-95579657D01*
X224574209Y-95419020D01*
X224573893Y-95359382D01*
X224570325Y-94720041D01*
X224165298Y-95271449D01*
X224050554Y-95427876D01*
X223951143Y-95564088D01*
X223865990Y-95681890D01*
X223794022Y-95783084D01*
X223734166Y-95869477D01*
X223685348Y-95942874D01*
X223646495Y-96005077D01*
X223616534Y-96057893D01*
X223594391Y-96103125D01*
X223578993Y-96142578D01*
X223569266Y-96178058D01*
X223564137Y-96211368D01*
X223562532Y-96244313D01*
X223563379Y-96278697D01*
X223563595Y-96283019D01*
X223568054Y-96369031D01*
X222148692Y-96368973D01*
X222254265Y-96262522D01*
X222282913Y-96233406D01*
X222310090Y-96205076D01*
X222336989Y-96175968D01*
X222364803Y-96144520D01*
X222394725Y-96109169D01*
X222427946Y-96068354D01*
X222465661Y-96020511D01*
X222509060Y-95964079D01*
X222559338Y-95897494D01*
X222617688Y-95819195D01*
X222685300Y-95727619D01*
X222763369Y-95621204D01*
X222853088Y-95498387D01*
X222955648Y-95357605D01*
X223072242Y-95197297D01*
X223167809Y-95065798D01*
X223287749Y-94900596D01*
X223392380Y-94756152D01*
X223482648Y-94631094D01*
X223559503Y-94524052D01*
X223623891Y-94433654D01*
X223676761Y-94358529D01*
X223719060Y-94297304D01*
X223751736Y-94248610D01*
X223775738Y-94211074D01*
X223792013Y-94183325D01*
X223801508Y-94163992D01*
X223805173Y-94151703D01*
X223804071Y-94145242D01*
X223790724Y-94128048D01*
X223761866Y-94091655D01*
X223719240Y-94038224D01*
X223664585Y-93969919D01*
X223599644Y-93888903D01*
X223526158Y-93797340D01*
X223445868Y-93697392D01*
X223360515Y-93591224D01*
X223271840Y-93480997D01*
X223181586Y-93368876D01*
X223131944Y-93307244D01*
X221899373Y-93307244D01*
X221848146Y-93399919D01*
X221796919Y-93492595D01*
X221796919Y-96183622D01*
X221848146Y-96276298D01*
X221899373Y-96368973D01*
X221293396Y-96368973D01*
X221148734Y-96368931D01*
X221029244Y-96368741D01*
X220932642Y-96368308D01*
X220856642Y-96367536D01*
X220798957Y-96366330D01*
X220757301Y-96364594D01*
X220729389Y-96362232D01*
X220712935Y-96359150D01*
X220705652Y-96355251D01*
X220705255Y-96350440D01*
X220709458Y-96344622D01*
X220709501Y-96344574D01*
X220726813Y-96319532D01*
X220749736Y-96278815D01*
X220769981Y-96238168D01*
X220808379Y-96156162D01*
X220816211Y-93307244D01*
X221899373Y-93307244D01*
X223131944Y-93307244D01*
X223091493Y-93257024D01*
X223003302Y-93147604D01*
X222918754Y-93042778D01*
X222839592Y-92944711D01*
X222767556Y-92855566D01*
X222704387Y-92777505D01*
X222651827Y-92712692D01*
X222611617Y-92663290D01*
X222588000Y-92634487D01*
X222496290Y-92526778D01*
X222408060Y-92429580D01*
X222326403Y-92346076D01*
X222254410Y-92279448D01*
X222203319Y-92238599D01*
X222142907Y-92195135D01*
X223532298Y-92195135D01*
X223531908Y-92276666D01*
X223535791Y-92336606D01*
X223550390Y-92392177D01*
X223572988Y-92444855D01*
X223587678Y-92474615D01*
X223603472Y-92504103D01*
X223621814Y-92535276D01*
X223644145Y-92570093D01*
X223671909Y-92610510D01*
X223706549Y-92658486D01*
X223749507Y-92715978D01*
X223802227Y-92784943D01*
X223866151Y-92867339D01*
X223942721Y-92965124D01*
X224033381Y-93080255D01*
X224139574Y-93214690D01*
X224151568Y-93229859D01*
X224570325Y-93759412D01*
X224574378Y-93172922D01*
X224575195Y-92997251D01*
X224575021Y-92848532D01*
X224573849Y-92726275D01*
X224571669Y-92629989D01*
X224568474Y-92559183D01*
X224564256Y-92513369D01*
X224562838Y-92504679D01*
X224540591Y-92413135D01*
X224511443Y-92330608D01*
X224478182Y-92264253D01*
X224458200Y-92236110D01*
X224423722Y-92195135D01*
X225077914Y-92195135D01*
X225233969Y-92195269D01*
X225364467Y-92195703D01*
X225471310Y-92196489D01*
X225556398Y-92197676D01*
X225621635Y-92199317D01*
X225668921Y-92201461D01*
X225700157Y-92204159D01*
X225717246Y-92207462D01*
X225722088Y-92211421D01*
X225721753Y-92212298D01*
X225707885Y-92233231D01*
X225684732Y-92266412D01*
X225672754Y-92283193D01*
X225660369Y-92299940D01*
X225649237Y-92314915D01*
X225639288Y-92329594D01*
X225630451Y-92345449D01*
X225622657Y-92363955D01*
X225615835Y-92386585D01*
X225609916Y-92414813D01*
X225604829Y-92450113D01*
X225600504Y-92493958D01*
X225596871Y-92547822D01*
X225593860Y-92613180D01*
X225591401Y-92691504D01*
X225589423Y-92784268D01*
X225587858Y-92892947D01*
X225586634Y-93019013D01*
X225585681Y-93163942D01*
X225584930Y-93329206D01*
X225584311Y-93516279D01*
X225583752Y-93726635D01*
X225583185Y-93961748D01*
X225582655Y-94177741D01*
X225582155Y-94418535D01*
X225581895Y-94648274D01*
X225581868Y-94865493D01*
X225582067Y-95068722D01*
X225582486Y-95256496D01*
X225583118Y-95427345D01*
X225583956Y-95579803D01*
X225584992Y-95712403D01*
X225586220Y-95823676D01*
X225587633Y-95912156D01*
X225589225Y-95976375D01*
X225590987Y-96014865D01*
X225591321Y-96018933D01*
X225603466Y-96112248D01*
X225622427Y-96187190D01*
X225651302Y-96252594D01*
X225693190Y-96317293D01*
X225698429Y-96324352D01*
X225731884Y-96368973D01*
X226098315Y-96368973D01*
X226099054Y-96287479D01*
X226099893Y-96148090D01*
X226100498Y-95990539D01*
X226100905Y-95813691D01*
X226101150Y-95616410D01*
X226101267Y-95397560D01*
X226101295Y-95156007D01*
X226101267Y-94890615D01*
X226101220Y-94600249D01*
X226101190Y-94283773D01*
X226101189Y-94220946D01*
X226101172Y-93901137D01*
X226101112Y-93607661D01*
X226101002Y-93339390D01*
X226100833Y-93095198D01*
X226100597Y-92873957D01*
X226100284Y-92674540D01*
X226099885Y-92495820D01*
X226099393Y-92336671D01*
X226098797Y-92195966D01*
X226098090Y-92072576D01*
X226097263Y-91965376D01*
X226096307Y-91873238D01*
X226095213Y-91795035D01*
X226093973Y-91729641D01*
X226092578Y-91675928D01*
X226091018Y-91632769D01*
X226089286Y-91599037D01*
X226087372Y-91573605D01*
X226085268Y-91555347D01*
X226082966Y-91543134D01*
X226080455Y-91535841D01*
X226080363Y-91535659D01*
X226075192Y-91524518D01*
X226070885Y-91514431D01*
X226066121Y-91505346D01*
X226059578Y-91497212D01*
X226049935Y-91489976D01*
X226035871Y-91483586D01*
X226016063Y-91477989D01*
X225989191Y-91473133D01*
X225953933Y-91468966D01*
X225908968Y-91465436D01*
X225852974Y-91462491D01*
X225784629Y-91460077D01*
X225702614Y-91458144D01*
X225605605Y-91456638D01*
X225492282Y-91455508D01*
X225361323Y-91454702D01*
X225211407Y-91454166D01*
X225041213Y-91453849D01*
X224849418Y-91453699D01*
X224634702Y-91453663D01*
X224395743Y-91453689D01*
G36*
X218000038Y-92140499D02*
G01*
X217851986Y-92156707D01*
X217708548Y-92185718D01*
X217563890Y-92229045D01*
X217412176Y-92288201D01*
X217247572Y-92364700D01*
X217217929Y-92379517D01*
X217149902Y-92413031D01*
X217085744Y-92443208D01*
X217031785Y-92467166D01*
X216994360Y-92482024D01*
X216988611Y-92483895D01*
X216933514Y-92500402D01*
X217180149Y-92859201D01*
X217240448Y-92946893D01*
X217295578Y-93027012D01*
X217343664Y-93096836D01*
X217382832Y-93153647D01*
X217411206Y-93194723D01*
X217426913Y-93217346D01*
X217429464Y-93220928D01*
X217439829Y-93213438D01*
X217465340Y-93190918D01*
X217501437Y-93157461D01*
X217521358Y-93138550D01*
X217634227Y-93048778D01*
X217760986Y-92980561D01*
X217870217Y-92943195D01*
X217935786Y-92931460D01*
X218017884Y-92924308D01*
X218106856Y-92921874D01*
X218193044Y-92924288D01*
X218266795Y-92931683D01*
X218296224Y-92937347D01*
X218428867Y-92982982D01*
X218548394Y-93052663D01*
X218654717Y-93146260D01*
X218747747Y-93263649D01*
X218827395Y-93404700D01*
X218893574Y-93569286D01*
X218946194Y-93757280D01*
X218977467Y-93918217D01*
X218985626Y-93989263D01*
X218991185Y-94081046D01*
X218994198Y-94186968D01*
X218994719Y-94300434D01*
X218992800Y-94414849D01*
X218988497Y-94523617D01*
X218981863Y-94620143D01*
X218972951Y-94697831D01*
X218971021Y-94709817D01*
X218928501Y-94902892D01*
X218870567Y-95073773D01*
X218796867Y-95223224D01*
X218707049Y-95352011D01*
X218643293Y-95421639D01*
X218528714Y-95516173D01*
X218403058Y-95586246D01*
X218268443Y-95631477D01*
X218126989Y-95651484D01*
X217980817Y-95645885D01*
X217832045Y-95614300D01*
X217744089Y-95583394D01*
X217622371Y-95521506D01*
X217496920Y-95432729D01*
X217426647Y-95372694D01*
X217387189Y-95337947D01*
X217356188Y-95312454D01*
X217338542Y-95300170D01*
X217336352Y-95299795D01*
X217328476Y-95312347D01*
X217308068Y-95345516D01*
X217276868Y-95396458D01*
X217236614Y-95462331D01*
X217189043Y-95540289D01*
X217135896Y-95627490D01*
X217106313Y-95676067D01*
X216880352Y-96047215D01*
X217162473Y-96186639D01*
X217264478Y-96236719D01*
X217347111Y-96276210D01*
X217415422Y-96307073D01*
X217474463Y-96331268D01*
X217529286Y-96350758D01*
X217584940Y-96367503D01*
X217646477Y-96383465D01*
X217705460Y-96397482D01*
X217757885Y-96408329D01*
X217812712Y-96416526D01*
X217875428Y-96422528D01*
X217951523Y-96426790D01*
X218046484Y-96429767D01*
X218110487Y-96431052D01*
X218201808Y-96431930D01*
X218289373Y-96431487D01*
X218367388Y-96429852D01*
X218430058Y-96427149D01*
X218471587Y-96423505D01*
X218474048Y-96423142D01*
X218689697Y-96376487D01*
X218892207Y-96305729D01*
X219081505Y-96210914D01*
X219257521Y-96092089D01*
X219420184Y-95949300D01*
X219569422Y-95782594D01*
X219677504Y-95634433D01*
X219792566Y-95440502D01*
X219885577Y-95235699D01*
X219956987Y-95018383D01*
X220007244Y-94786912D01*
X220036799Y-94539643D01*
X220046111Y-94288559D01*
X220038452Y-94045670D01*
X220014387Y-93821570D01*
X219973148Y-93612477D01*
X219913973Y-93414613D01*
X219836096Y-93224196D01*
X219826797Y-93204468D01*
X219724352Y-93020059D01*
X219598528Y-92844576D01*
X219452888Y-92681650D01*
X219290999Y-92534914D01*
X219116424Y-92408001D01*
X218953756Y-92314905D01*
X218789427Y-92241991D01*
X218624749Y-92189174D01*
X218453348Y-92155015D01*
X218268847Y-92138078D01*
X218158541Y-92135580D01*
X218000038Y-92140499D01*
G37*
X218000038Y-92140499D02*
X217851986Y-92156707D01*
X217708548Y-92185718D01*
X217563890Y-92229045D01*
X217412176Y-92288201D01*
X217247572Y-92364700D01*
X217217929Y-92379517D01*
X217149902Y-92413031D01*
X217085744Y-92443208D01*
X217031785Y-92467166D01*
X216994360Y-92482024D01*
X216988611Y-92483895D01*
X216933514Y-92500402D01*
X217180149Y-92859201D01*
X217240448Y-92946893D01*
X217295578Y-93027012D01*
X217343664Y-93096836D01*
X217382832Y-93153647D01*
X217411206Y-93194723D01*
X217426913Y-93217346D01*
X217429464Y-93220928D01*
X217439829Y-93213438D01*
X217465340Y-93190918D01*
X217501437Y-93157461D01*
X217521358Y-93138550D01*
X217634227Y-93048778D01*
X217760986Y-92980561D01*
X217870217Y-92943195D01*
X217935786Y-92931460D01*
X218017884Y-92924308D01*
X218106856Y-92921874D01*
X218193044Y-92924288D01*
X218266795Y-92931683D01*
X218296224Y-92937347D01*
X218428867Y-92982982D01*
X218548394Y-93052663D01*
X218654717Y-93146260D01*
X218747747Y-93263649D01*
X218827395Y-93404700D01*
X218893574Y-93569286D01*
X218946194Y-93757280D01*
X218977467Y-93918217D01*
X218985626Y-93989263D01*
X218991185Y-94081046D01*
X218994198Y-94186968D01*
X218994719Y-94300434D01*
X218992800Y-94414849D01*
X218988497Y-94523617D01*
X218981863Y-94620143D01*
X218972951Y-94697831D01*
X218971021Y-94709817D01*
X218928501Y-94902892D01*
X218870567Y-95073773D01*
X218796867Y-95223224D01*
X218707049Y-95352011D01*
X218643293Y-95421639D01*
X218528714Y-95516173D01*
X218403058Y-95586246D01*
X218268443Y-95631477D01*
X218126989Y-95651484D01*
X217980817Y-95645885D01*
X217832045Y-95614300D01*
X217744089Y-95583394D01*
X217622371Y-95521506D01*
X217496920Y-95432729D01*
X217426647Y-95372694D01*
X217387189Y-95337947D01*
X217356188Y-95312454D01*
X217338542Y-95300170D01*
X217336352Y-95299795D01*
X217328476Y-95312347D01*
X217308068Y-95345516D01*
X217276868Y-95396458D01*
X217236614Y-95462331D01*
X217189043Y-95540289D01*
X217135896Y-95627490D01*
X217106313Y-95676067D01*
X216880352Y-96047215D01*
X217162473Y-96186639D01*
X217264478Y-96236719D01*
X217347111Y-96276210D01*
X217415422Y-96307073D01*
X217474463Y-96331268D01*
X217529286Y-96350758D01*
X217584940Y-96367503D01*
X217646477Y-96383465D01*
X217705460Y-96397482D01*
X217757885Y-96408329D01*
X217812712Y-96416526D01*
X217875428Y-96422528D01*
X217951523Y-96426790D01*
X218046484Y-96429767D01*
X218110487Y-96431052D01*
X218201808Y-96431930D01*
X218289373Y-96431487D01*
X218367388Y-96429852D01*
X218430058Y-96427149D01*
X218471587Y-96423505D01*
X218474048Y-96423142D01*
X218689697Y-96376487D01*
X218892207Y-96305729D01*
X219081505Y-96210914D01*
X219257521Y-96092089D01*
X219420184Y-95949300D01*
X219569422Y-95782594D01*
X219677504Y-95634433D01*
X219792566Y-95440502D01*
X219885577Y-95235699D01*
X219956987Y-95018383D01*
X220007244Y-94786912D01*
X220036799Y-94539643D01*
X220046111Y-94288559D01*
X220038452Y-94045670D01*
X220014387Y-93821570D01*
X219973148Y-93612477D01*
X219913973Y-93414613D01*
X219836096Y-93224196D01*
X219826797Y-93204468D01*
X219724352Y-93020059D01*
X219598528Y-92844576D01*
X219452888Y-92681650D01*
X219290999Y-92534914D01*
X219116424Y-92408001D01*
X218953756Y-92314905D01*
X218789427Y-92241991D01*
X218624749Y-92189174D01*
X218453348Y-92155015D01*
X218268847Y-92138078D01*
X218158541Y-92135580D01*
X218000038Y-92140499D01*
G36*
X215272495Y-93244229D02*
G01*
X215204469Y-93249378D01*
X215009837Y-93275273D01*
X214837471Y-93316575D01*
X214686530Y-93373853D01*
X214556175Y-93447674D01*
X214445566Y-93538608D01*
X214353865Y-93647222D01*
X214280230Y-93774085D01*
X214226461Y-93911352D01*
X214212813Y-93955137D01*
X214200927Y-93996141D01*
X214190666Y-94036569D01*
X214181887Y-94078630D01*
X214174452Y-94124531D01*
X214168220Y-94176480D01*
X214163050Y-94236685D01*
X214158804Y-94307352D01*
X214155340Y-94390689D01*
X214152519Y-94488905D01*
X214150200Y-94604205D01*
X214148243Y-94738799D01*
X214146509Y-94894893D01*
X214144857Y-95074695D01*
X214143676Y-95215676D01*
X214135730Y-96183622D01*
X214084244Y-96276770D01*
X214059863Y-96321645D01*
X214041720Y-96356501D01*
X214033065Y-96375054D01*
X214032757Y-96376311D01*
X214045986Y-96377749D01*
X214083674Y-96379074D01*
X214142817Y-96380249D01*
X214220414Y-96381237D01*
X214313464Y-96381999D01*
X214418965Y-96382500D01*
X214533916Y-96382701D01*
X214547622Y-96382703D01*
X215062487Y-96382703D01*
X215062487Y-96266000D01*
X215063365Y-96213260D01*
X215065708Y-96172926D01*
X215069079Y-96151300D01*
X215070569Y-96149298D01*
X215084196Y-96157683D01*
X215112243Y-96179692D01*
X215148697Y-96210601D01*
X215149515Y-96211316D01*
X215216038Y-96260843D01*
X215300052Y-96310575D01*
X215392063Y-96355626D01*
X215482579Y-96391110D01*
X215522433Y-96403236D01*
X215601745Y-96418637D01*
X215699065Y-96428465D01*
X215805484Y-96432580D01*
X215912093Y-96430841D01*
X216009983Y-96423108D01*
X216078487Y-96411981D01*
X216246480Y-96362648D01*
X216397719Y-96292342D01*
X216531218Y-96201933D01*
X216645994Y-96092295D01*
X216741063Y-95964299D01*
X216815440Y-95818818D01*
X216847526Y-95730541D01*
X216867635Y-95644739D01*
X216880962Y-95541736D01*
X216887128Y-95431034D01*
X216886926Y-95414925D01*
X215958352Y-95414925D01*
X215950652Y-95497184D01*
X215925011Y-95565546D01*
X215877622Y-95628970D01*
X215859421Y-95647567D01*
X215794718Y-95697846D01*
X215719934Y-95730056D01*
X215630338Y-95745648D01*
X215535988Y-95746796D01*
X215446499Y-95739216D01*
X215377982Y-95724389D01*
X215348225Y-95713253D01*
X215294592Y-95682904D01*
X215237765Y-95640221D01*
X215185918Y-95592317D01*
X215147222Y-95546301D01*
X215136946Y-95529421D01*
X215128958Y-95505782D01*
X215123279Y-95468168D01*
X215119644Y-95412985D01*
X215117789Y-95336640D01*
X215117406Y-95263981D01*
X215117665Y-95179270D01*
X215118713Y-95118018D01*
X215120955Y-95076227D01*
X215124794Y-95049899D01*
X215130635Y-95035035D01*
X215138882Y-95027639D01*
X215141433Y-95026461D01*
X215163600Y-95022833D01*
X215207320Y-95019866D01*
X215266689Y-95017827D01*
X215335804Y-95016983D01*
X215350811Y-95016982D01*
X215443195Y-95018457D01*
X215514568Y-95022842D01*
X215571281Y-95030738D01*
X215618128Y-95042270D01*
X215734331Y-95086215D01*
X215825457Y-95140243D01*
X215892295Y-95205219D01*
X215935635Y-95282005D01*
X215956266Y-95371467D01*
X215958352Y-95414925D01*
X216886926Y-95414925D01*
X216885756Y-95322133D01*
X216876468Y-95224536D01*
X216869223Y-95185105D01*
X216822961Y-95038701D01*
X216752616Y-94903995D01*
X216659516Y-94782280D01*
X216544988Y-94674847D01*
X216410360Y-94582988D01*
X216256960Y-94507996D01*
X216126541Y-94462458D01*
X216039377Y-94438533D01*
X215956004Y-94419943D01*
X215871024Y-94406084D01*
X215779035Y-94396351D01*
X215674638Y-94390141D01*
X215552432Y-94386851D01*
X215441945Y-94385924D01*
X215114323Y-94385027D01*
X215120599Y-94286547D01*
X215138421Y-94179695D01*
X215176333Y-94087852D01*
X215232720Y-94013310D01*
X215305969Y-93958364D01*
X215370465Y-93931552D01*
X215462877Y-93914654D01*
X215572889Y-93912227D01*
X215695344Y-93923378D01*
X215825086Y-93947210D01*
X215956958Y-93982830D01*
X216085802Y-94029343D01*
X216179434Y-94071883D01*
X216224483Y-94093728D01*
X216258844Y-94108984D01*
X216276319Y-94114937D01*
X216277267Y-94114746D01*
X216283297Y-94101412D01*
X216298355Y-94066068D01*
X216321023Y-94012101D01*
X216349885Y-93942896D01*
X216383523Y-93861840D01*
X216417716Y-93779118D01*
X216554414Y-93447803D01*
X216457180Y-93431833D01*
X216415036Y-93423820D01*
X216351681Y-93410361D01*
X216272543Y-93392679D01*
X216183049Y-93371996D01*
X216088627Y-93349532D01*
X216051027Y-93340403D01*
X215888363Y-93302674D01*
X215745950Y-93274388D01*
X215618473Y-93254972D01*
X215500616Y-93243854D01*
X215387062Y-93240464D01*
X215272495Y-93244229D01*
G37*
X215272495Y-93244229D02*
X215204469Y-93249378D01*
X215009837Y-93275273D01*
X214837471Y-93316575D01*
X214686530Y-93373853D01*
X214556175Y-93447674D01*
X214445566Y-93538608D01*
X214353865Y-93647222D01*
X214280230Y-93774085D01*
X214226461Y-93911352D01*
X214212813Y-93955137D01*
X214200927Y-93996141D01*
X214190666Y-94036569D01*
X214181887Y-94078630D01*
X214174452Y-94124531D01*
X214168220Y-94176480D01*
X214163050Y-94236685D01*
X214158804Y-94307352D01*
X214155340Y-94390689D01*
X214152519Y-94488905D01*
X214150200Y-94604205D01*
X214148243Y-94738799D01*
X214146509Y-94894893D01*
X214144857Y-95074695D01*
X214143676Y-95215676D01*
X214135730Y-96183622D01*
X214084244Y-96276770D01*
X214059863Y-96321645D01*
X214041720Y-96356501D01*
X214033065Y-96375054D01*
X214032757Y-96376311D01*
X214045986Y-96377749D01*
X214083674Y-96379074D01*
X214142817Y-96380249D01*
X214220414Y-96381237D01*
X214313464Y-96381999D01*
X214418965Y-96382500D01*
X214533916Y-96382701D01*
X214547622Y-96382703D01*
X215062487Y-96382703D01*
X215062487Y-96266000D01*
X215063365Y-96213260D01*
X215065708Y-96172926D01*
X215069079Y-96151300D01*
X215070569Y-96149298D01*
X215084196Y-96157683D01*
X215112243Y-96179692D01*
X215148697Y-96210601D01*
X215149515Y-96211316D01*
X215216038Y-96260843D01*
X215300052Y-96310575D01*
X215392063Y-96355626D01*
X215482579Y-96391110D01*
X215522433Y-96403236D01*
X215601745Y-96418637D01*
X215699065Y-96428465D01*
X215805484Y-96432580D01*
X215912093Y-96430841D01*
X216009983Y-96423108D01*
X216078487Y-96411981D01*
X216246480Y-96362648D01*
X216397719Y-96292342D01*
X216531218Y-96201933D01*
X216645994Y-96092295D01*
X216741063Y-95964299D01*
X216815440Y-95818818D01*
X216847526Y-95730541D01*
X216867635Y-95644739D01*
X216880962Y-95541736D01*
X216887128Y-95431034D01*
X216886926Y-95414925D01*
X215958352Y-95414925D01*
X215950652Y-95497184D01*
X215925011Y-95565546D01*
X215877622Y-95628970D01*
X215859421Y-95647567D01*
X215794718Y-95697846D01*
X215719934Y-95730056D01*
X215630338Y-95745648D01*
X215535988Y-95746796D01*
X215446499Y-95739216D01*
X215377982Y-95724389D01*
X215348225Y-95713253D01*
X215294592Y-95682904D01*
X215237765Y-95640221D01*
X215185918Y-95592317D01*
X215147222Y-95546301D01*
X215136946Y-95529421D01*
X215128958Y-95505782D01*
X215123279Y-95468168D01*
X215119644Y-95412985D01*
X215117789Y-95336640D01*
X215117406Y-95263981D01*
X215117665Y-95179270D01*
X215118713Y-95118018D01*
X215120955Y-95076227D01*
X215124794Y-95049899D01*
X215130635Y-95035035D01*
X215138882Y-95027639D01*
X215141433Y-95026461D01*
X215163600Y-95022833D01*
X215207320Y-95019866D01*
X215266689Y-95017827D01*
X215335804Y-95016983D01*
X215350811Y-95016982D01*
X215443195Y-95018457D01*
X215514568Y-95022842D01*
X215571281Y-95030738D01*
X215618128Y-95042270D01*
X215734331Y-95086215D01*
X215825457Y-95140243D01*
X215892295Y-95205219D01*
X215935635Y-95282005D01*
X215956266Y-95371467D01*
X215958352Y-95414925D01*
X216886926Y-95414925D01*
X216885756Y-95322133D01*
X216876468Y-95224536D01*
X216869223Y-95185105D01*
X216822961Y-95038701D01*
X216752616Y-94903995D01*
X216659516Y-94782280D01*
X216544988Y-94674847D01*
X216410360Y-94582988D01*
X216256960Y-94507996D01*
X216126541Y-94462458D01*
X216039377Y-94438533D01*
X215956004Y-94419943D01*
X215871024Y-94406084D01*
X215779035Y-94396351D01*
X215674638Y-94390141D01*
X215552432Y-94386851D01*
X215441945Y-94385924D01*
X215114323Y-94385027D01*
X215120599Y-94286547D01*
X215138421Y-94179695D01*
X215176333Y-94087852D01*
X215232720Y-94013310D01*
X215305969Y-93958364D01*
X215370465Y-93931552D01*
X215462877Y-93914654D01*
X215572889Y-93912227D01*
X215695344Y-93923378D01*
X215825086Y-93947210D01*
X215956958Y-93982830D01*
X216085802Y-94029343D01*
X216179434Y-94071883D01*
X216224483Y-94093728D01*
X216258844Y-94108984D01*
X216276319Y-94114937D01*
X216277267Y-94114746D01*
X216283297Y-94101412D01*
X216298355Y-94066068D01*
X216321023Y-94012101D01*
X216349885Y-93942896D01*
X216383523Y-93861840D01*
X216417716Y-93779118D01*
X216554414Y-93447803D01*
X216457180Y-93431833D01*
X216415036Y-93423820D01*
X216351681Y-93410361D01*
X216272543Y-93392679D01*
X216183049Y-93371996D01*
X216088627Y-93349532D01*
X216051027Y-93340403D01*
X215888363Y-93302674D01*
X215745950Y-93274388D01*
X215618473Y-93254972D01*
X215500616Y-93243854D01*
X215387062Y-93240464D01*
X215272495Y-93244229D01*
G36*
X211597730Y-91936825D02*
G01*
X211480959Y-91937304D01*
X211441271Y-91937545D01*
X210895514Y-91941135D01*
X210888649Y-94034919D01*
X210887742Y-94318842D01*
X210886938Y-94576640D01*
X210886185Y-94809646D01*
X210885431Y-95019194D01*
X210884625Y-95206618D01*
X210883715Y-95373250D01*
X210882649Y-95520425D01*
X210881376Y-95649477D01*
X210879844Y-95761739D01*
X210878002Y-95858544D01*
X210875797Y-95941226D01*
X210873178Y-96011119D01*
X210870094Y-96069557D01*
X210866492Y-96117872D01*
X210862322Y-96157400D01*
X210857531Y-96189473D01*
X210852069Y-96215424D01*
X210845882Y-96236589D01*
X210838920Y-96254299D01*
X210831131Y-96269889D01*
X210822463Y-96284693D01*
X210812865Y-96300044D01*
X210802285Y-96317276D01*
X210800116Y-96320946D01*
X210763732Y-96383031D01*
X211289569Y-96379434D01*
X211815406Y-96375838D01*
X211822271Y-96260331D01*
X211826008Y-96204899D01*
X211829903Y-96172851D01*
X211835189Y-96160135D01*
X211843097Y-96162696D01*
X211849730Y-96170024D01*
X211878626Y-96196714D01*
X211925721Y-96231021D01*
X211984380Y-96268846D01*
X212047969Y-96306090D01*
X212109851Y-96338653D01*
X212157366Y-96360077D01*
X212268684Y-96395283D01*
X212396404Y-96420222D01*
X212531099Y-96433941D01*
X212663337Y-96435486D01*
X212783692Y-96423906D01*
X212785674Y-96423574D01*
X212950359Y-96382250D01*
X213104521Y-96316412D01*
X213246672Y-96227474D01*
X213375325Y-96116852D01*
X213488993Y-95985961D01*
X213586190Y-95836216D01*
X213665428Y-95669033D01*
X213708570Y-95545190D01*
X213737021Y-95441581D01*
X213758120Y-95341252D01*
X213772512Y-95238109D01*
X213780842Y-95126057D01*
X213783755Y-94999001D01*
X213782465Y-94895252D01*
X212769350Y-94895252D01*
X212764556Y-95069222D01*
X212749432Y-95218895D01*
X212723515Y-95345597D01*
X212686337Y-95450658D01*
X212637435Y-95535406D01*
X212576342Y-95601169D01*
X212505823Y-95647659D01*
X212469129Y-95665014D01*
X212437304Y-95675419D01*
X212401823Y-95680179D01*
X212354159Y-95680601D01*
X212302811Y-95678748D01*
X212201831Y-95669841D01*
X212121965Y-95652398D01*
X212096865Y-95643661D01*
X212039552Y-95617857D01*
X211979103Y-95585453D01*
X211952703Y-95569233D01*
X211884054Y-95524205D01*
X211884054Y-94096982D01*
X211959568Y-94051718D01*
X212064879Y-94000572D01*
X212172475Y-93970324D01*
X212278419Y-93960795D01*
X212378776Y-93971807D01*
X212469613Y-94003181D01*
X212546993Y-94054740D01*
X212571961Y-94079488D01*
X212632144Y-94160577D01*
X212680855Y-94258734D01*
X212718501Y-94375643D01*
X212745488Y-94512985D01*
X212762225Y-94672444D01*
X212769117Y-94855700D01*
X212769350Y-94895252D01*
X213782465Y-94895252D01*
X213781927Y-94852067D01*
X213770353Y-94626053D01*
X213747080Y-94422192D01*
X213711496Y-94237513D01*
X213662987Y-94069048D01*
X213600940Y-93913826D01*
X213578799Y-93867808D01*
X213489615Y-93717739D01*
X213381841Y-93584377D01*
X213258010Y-93469877D01*
X213120658Y-93376389D01*
X212972317Y-93306068D01*
X212883396Y-93277060D01*
X212796067Y-93259840D01*
X212690989Y-93249594D01*
X212576971Y-93246318D01*
X212462823Y-93250009D01*
X212357352Y-93260660D01*
X212272666Y-93277370D01*
X212171872Y-93310140D01*
X212074178Y-93352279D01*
X211988704Y-93399519D01*
X211943211Y-93431581D01*
X211911831Y-93455422D01*
X211889858Y-93469939D01*
X211884859Y-93472000D01*
X211883310Y-93458718D01*
X211881865Y-93420663D01*
X211880557Y-93360519D01*
X211879417Y-93280973D01*
X211878479Y-93184711D01*
X211877774Y-93074419D01*
X211877333Y-92952781D01*
X211877189Y-92828885D01*
X211877270Y-92670196D01*
X211877665Y-92536408D01*
X211878605Y-92424960D01*
X211880320Y-92333295D01*
X211883043Y-92258853D01*
X211887003Y-92199075D01*
X211892431Y-92151402D01*
X211899559Y-92113274D01*
X211908616Y-92082134D01*
X211919833Y-92055421D01*
X211933442Y-92030577D01*
X211949672Y-92005043D01*
X211951760Y-92001881D01*
X211972694Y-91968810D01*
X211985333Y-91946069D01*
X211987027Y-91941272D01*
X211973784Y-91939759D01*
X211935998Y-91938528D01*
X211876584Y-91937599D01*
X211798458Y-91936992D01*
X211704535Y-91936727D01*
X211597730Y-91936825D01*
G37*
X211597730Y-91936825D02*
X211480959Y-91937304D01*
X211441271Y-91937545D01*
X210895514Y-91941135D01*
X210888649Y-94034919D01*
X210887742Y-94318842D01*
X210886938Y-94576640D01*
X210886185Y-94809646D01*
X210885431Y-95019194D01*
X210884625Y-95206618D01*
X210883715Y-95373250D01*
X210882649Y-95520425D01*
X210881376Y-95649477D01*
X210879844Y-95761739D01*
X210878002Y-95858544D01*
X210875797Y-95941226D01*
X210873178Y-96011119D01*
X210870094Y-96069557D01*
X210866492Y-96117872D01*
X210862322Y-96157400D01*
X210857531Y-96189473D01*
X210852069Y-96215424D01*
X210845882Y-96236589D01*
X210838920Y-96254299D01*
X210831131Y-96269889D01*
X210822463Y-96284693D01*
X210812865Y-96300044D01*
X210802285Y-96317276D01*
X210800116Y-96320946D01*
X210763732Y-96383031D01*
X211289569Y-96379434D01*
X211815406Y-96375838D01*
X211822271Y-96260331D01*
X211826008Y-96204899D01*
X211829903Y-96172851D01*
X211835189Y-96160135D01*
X211843097Y-96162696D01*
X211849730Y-96170024D01*
X211878626Y-96196714D01*
X211925721Y-96231021D01*
X211984380Y-96268846D01*
X212047969Y-96306090D01*
X212109851Y-96338653D01*
X212157366Y-96360077D01*
X212268684Y-96395283D01*
X212396404Y-96420222D01*
X212531099Y-96433941D01*
X212663337Y-96435486D01*
X212783692Y-96423906D01*
X212785674Y-96423574D01*
X212950359Y-96382250D01*
X213104521Y-96316412D01*
X213246672Y-96227474D01*
X213375325Y-96116852D01*
X213488993Y-95985961D01*
X213586190Y-95836216D01*
X213665428Y-95669033D01*
X213708570Y-95545190D01*
X213737021Y-95441581D01*
X213758120Y-95341252D01*
X213772512Y-95238109D01*
X213780842Y-95126057D01*
X213783755Y-94999001D01*
X213782465Y-94895252D01*
X212769350Y-94895252D01*
X212764556Y-95069222D01*
X212749432Y-95218895D01*
X212723515Y-95345597D01*
X212686337Y-95450658D01*
X212637435Y-95535406D01*
X212576342Y-95601169D01*
X212505823Y-95647659D01*
X212469129Y-95665014D01*
X212437304Y-95675419D01*
X212401823Y-95680179D01*
X212354159Y-95680601D01*
X212302811Y-95678748D01*
X212201831Y-95669841D01*
X212121965Y-95652398D01*
X212096865Y-95643661D01*
X212039552Y-95617857D01*
X211979103Y-95585453D01*
X211952703Y-95569233D01*
X211884054Y-95524205D01*
X211884054Y-94096982D01*
X211959568Y-94051718D01*
X212064879Y-94000572D01*
X212172475Y-93970324D01*
X212278419Y-93960795D01*
X212378776Y-93971807D01*
X212469613Y-94003181D01*
X212546993Y-94054740D01*
X212571961Y-94079488D01*
X212632144Y-94160577D01*
X212680855Y-94258734D01*
X212718501Y-94375643D01*
X212745488Y-94512985D01*
X212762225Y-94672444D01*
X212769117Y-94855700D01*
X212769350Y-94895252D01*
X213782465Y-94895252D01*
X213781927Y-94852067D01*
X213770353Y-94626053D01*
X213747080Y-94422192D01*
X213711496Y-94237513D01*
X213662987Y-94069048D01*
X213600940Y-93913826D01*
X213578799Y-93867808D01*
X213489615Y-93717739D01*
X213381841Y-93584377D01*
X213258010Y-93469877D01*
X213120658Y-93376389D01*
X212972317Y-93306068D01*
X212883396Y-93277060D01*
X212796067Y-93259840D01*
X212690989Y-93249594D01*
X212576971Y-93246318D01*
X212462823Y-93250009D01*
X212357352Y-93260660D01*
X212272666Y-93277370D01*
X212171872Y-93310140D01*
X212074178Y-93352279D01*
X211988704Y-93399519D01*
X211943211Y-93431581D01*
X211911831Y-93455422D01*
X211889858Y-93469939D01*
X211884859Y-93472000D01*
X211883310Y-93458718D01*
X211881865Y-93420663D01*
X211880557Y-93360519D01*
X211879417Y-93280973D01*
X211878479Y-93184711D01*
X211877774Y-93074419D01*
X211877333Y-92952781D01*
X211877189Y-92828885D01*
X211877270Y-92670196D01*
X211877665Y-92536408D01*
X211878605Y-92424960D01*
X211880320Y-92333295D01*
X211883043Y-92258853D01*
X211887003Y-92199075D01*
X211892431Y-92151402D01*
X211899559Y-92113274D01*
X211908616Y-92082134D01*
X211919833Y-92055421D01*
X211933442Y-92030577D01*
X211949672Y-92005043D01*
X211951760Y-92001881D01*
X211972694Y-91968810D01*
X211985333Y-91946069D01*
X211987027Y-91941272D01*
X211973784Y-91939759D01*
X211935998Y-91938528D01*
X211876584Y-91937599D01*
X211798458Y-91936992D01*
X211704535Y-91936727D01*
X211597730Y-91936825D01*
G36*
X221166079Y-91016490D02*
G01*
X221062973Y-91052238D01*
X220966978Y-91108507D01*
X220881247Y-91185288D01*
X220808930Y-91282573D01*
X220776445Y-91343892D01*
X220748332Y-91429660D01*
X220734705Y-91528677D01*
X220736214Y-91630471D01*
X220752969Y-91722714D01*
X220798763Y-91835432D01*
X220865168Y-91933207D01*
X220948809Y-92014115D01*
X221046312Y-92076232D01*
X221154300Y-92117634D01*
X221269399Y-92136397D01*
X221388234Y-92130598D01*
X221446811Y-92118206D01*
X221560972Y-92073797D01*
X221662365Y-92006033D01*
X221748545Y-91917001D01*
X221817066Y-91808791D01*
X221822864Y-91796973D01*
X221842904Y-91752628D01*
X221855487Y-91715280D01*
X221862319Y-91675880D01*
X221865105Y-91625381D01*
X221865568Y-91570433D01*
X221864803Y-91504415D01*
X221861352Y-91456689D01*
X221853477Y-91418103D01*
X221839443Y-91379506D01*
X221822120Y-91341426D01*
X221757505Y-91233328D01*
X221677934Y-91145803D01*
X221586560Y-91078841D01*
X221486536Y-91032436D01*
X221381012Y-91006581D01*
X221273142Y-91001268D01*
X221166079Y-91016490D01*
G37*
X221166079Y-91016490D02*
X221062973Y-91052238D01*
X220966978Y-91108507D01*
X220881247Y-91185288D01*
X220808930Y-91282573D01*
X220776445Y-91343892D01*
X220748332Y-91429660D01*
X220734705Y-91528677D01*
X220736214Y-91630471D01*
X220752969Y-91722714D01*
X220798763Y-91835432D01*
X220865168Y-91933207D01*
X220948809Y-92014115D01*
X221046312Y-92076232D01*
X221154300Y-92117634D01*
X221269399Y-92136397D01*
X221388234Y-92130598D01*
X221446811Y-92118206D01*
X221560972Y-92073797D01*
X221662365Y-92006033D01*
X221748545Y-91917001D01*
X221817066Y-91808791D01*
X221822864Y-91796973D01*
X221842904Y-91752628D01*
X221855487Y-91715280D01*
X221862319Y-91675880D01*
X221865105Y-91625381D01*
X221865568Y-91570433D01*
X221864803Y-91504415D01*
X221861352Y-91456689D01*
X221853477Y-91418103D01*
X221839443Y-91379506D01*
X221822120Y-91341426D01*
X221757505Y-91233328D01*
X221677934Y-91145803D01*
X221586560Y-91078841D01*
X221486536Y-91032436D01*
X221381012Y-91006581D01*
X221273142Y-91001268D01*
X221166079Y-91016490D01*
G36*
X212199469Y-97620725D02*
G01*
X212168090Y-97642968D01*
X212140381Y-97670677D01*
X212140381Y-97980112D01*
X212140454Y-98071991D01*
X212140797Y-98144032D01*
X212141600Y-98198972D01*
X212143051Y-98239552D01*
X212145340Y-98268509D01*
X212148656Y-98288583D01*
X212153187Y-98302513D01*
X212159123Y-98313037D01*
X212163778Y-98319292D01*
X212194509Y-98343865D01*
X212229796Y-98346533D01*
X212262047Y-98331463D01*
X212272704Y-98322566D01*
X212279828Y-98310749D01*
X212284125Y-98291718D01*
X212286301Y-98261184D01*
X212287064Y-98214854D01*
X212287137Y-98179063D01*
X212287137Y-98044237D01*
X212783848Y-98044237D01*
X212783848Y-98166892D01*
X212784361Y-98222979D01*
X212786416Y-98261525D01*
X212790784Y-98287553D01*
X212798236Y-98306089D01*
X212807245Y-98319292D01*
X212838148Y-98343796D01*
X212873096Y-98346698D01*
X212906554Y-98329281D01*
X212915688Y-98320151D01*
X212922140Y-98308047D01*
X212926395Y-98289193D01*
X212928940Y-98259812D01*
X212930263Y-98216129D01*
X212930849Y-98154367D01*
X212930917Y-98140192D01*
X212931401Y-98023823D01*
X212931651Y-97927919D01*
X212931569Y-97850369D01*
X212931061Y-97789061D01*
X212930030Y-97741882D01*
X212928379Y-97706722D01*
X212926013Y-97681468D01*
X212922835Y-97664009D01*
X212918748Y-97652233D01*
X212913658Y-97644027D01*
X212908026Y-97637837D01*
X212876164Y-97618036D01*
X212842935Y-97620725D01*
X212811557Y-97642968D01*
X212798859Y-97657318D01*
X212790766Y-97673170D01*
X212786250Y-97695746D01*
X212784286Y-97730270D01*
X212783848Y-97781968D01*
X212783848Y-97897481D01*
X212287137Y-97897481D01*
X212287137Y-97778948D01*
X212286630Y-97724340D01*
X212284594Y-97687467D01*
X212280257Y-97663499D01*
X212272845Y-97647607D01*
X212264559Y-97637837D01*
X212232698Y-97618036D01*
X212199469Y-97620725D01*
G37*
X212199469Y-97620725D02*
X212168090Y-97642968D01*
X212140381Y-97670677D01*
X212140381Y-97980112D01*
X212140454Y-98071991D01*
X212140797Y-98144032D01*
X212141600Y-98198972D01*
X212143051Y-98239552D01*
X212145340Y-98268509D01*
X212148656Y-98288583D01*
X212153187Y-98302513D01*
X212159123Y-98313037D01*
X212163778Y-98319292D01*
X212194509Y-98343865D01*
X212229796Y-98346533D01*
X212262047Y-98331463D01*
X212272704Y-98322566D01*
X212279828Y-98310749D01*
X212284125Y-98291718D01*
X212286301Y-98261184D01*
X212287064Y-98214854D01*
X212287137Y-98179063D01*
X212287137Y-98044237D01*
X212783848Y-98044237D01*
X212783848Y-98166892D01*
X212784361Y-98222979D01*
X212786416Y-98261525D01*
X212790784Y-98287553D01*
X212798236Y-98306089D01*
X212807245Y-98319292D01*
X212838148Y-98343796D01*
X212873096Y-98346698D01*
X212906554Y-98329281D01*
X212915688Y-98320151D01*
X212922140Y-98308047D01*
X212926395Y-98289193D01*
X212928940Y-98259812D01*
X212930263Y-98216129D01*
X212930849Y-98154367D01*
X212930917Y-98140192D01*
X212931401Y-98023823D01*
X212931651Y-97927919D01*
X212931569Y-97850369D01*
X212931061Y-97789061D01*
X212930030Y-97741882D01*
X212928379Y-97706722D01*
X212926013Y-97681468D01*
X212922835Y-97664009D01*
X212918748Y-97652233D01*
X212913658Y-97644027D01*
X212908026Y-97637837D01*
X212876164Y-97618036D01*
X212842935Y-97620725D01*
X212811557Y-97642968D01*
X212798859Y-97657318D01*
X212790766Y-97673170D01*
X212786250Y-97695746D01*
X212784286Y-97730270D01*
X212783848Y-97781968D01*
X212783848Y-97897481D01*
X212287137Y-97897481D01*
X212287137Y-97778948D01*
X212286630Y-97724340D01*
X212284594Y-97687467D01*
X212280257Y-97663499D01*
X212272845Y-97647607D01*
X212264559Y-97637837D01*
X212232698Y-97618036D01*
X212199469Y-97620725D01*
G36*
X213465227Y-97615355D02*
G01*
X213386520Y-97615734D01*
X213325429Y-97616525D01*
X213279475Y-97617862D01*
X213246178Y-97619875D01*
X213223056Y-97622698D01*
X213207630Y-97626461D01*
X213197421Y-97631297D01*
X213192479Y-97635014D01*
X213166835Y-97667550D01*
X213163733Y-97701330D01*
X213179581Y-97732018D01*
X213189944Y-97744281D01*
X213201096Y-97752642D01*
X213217257Y-97757849D01*
X213242650Y-97760649D01*
X213281494Y-97761788D01*
X213338012Y-97762013D01*
X213349112Y-97762014D01*
X213495048Y-97762014D01*
X213495048Y-98032948D01*
X213495144Y-98118346D01*
X213495581Y-98184056D01*
X213496580Y-98232966D01*
X213498364Y-98267965D01*
X213501155Y-98291941D01*
X213505175Y-98307785D01*
X213510647Y-98318383D01*
X213517626Y-98326459D01*
X213550558Y-98346304D01*
X213584938Y-98344740D01*
X213616116Y-98322098D01*
X213618406Y-98319292D01*
X213625863Y-98308684D01*
X213631545Y-98296273D01*
X213635691Y-98279042D01*
X213638542Y-98253976D01*
X213640338Y-98218059D01*
X213641320Y-98168275D01*
X213641728Y-98101609D01*
X213641803Y-98025781D01*
X213641803Y-97762014D01*
X213781165Y-97762014D01*
X213840970Y-97761610D01*
X213882374Y-97760032D01*
X213909544Y-97756739D01*
X213926646Y-97751184D01*
X213937849Y-97742823D01*
X213939209Y-97741370D01*
X213955567Y-97708131D01*
X213954120Y-97670554D01*
X213935314Y-97637837D01*
X213928042Y-97631490D01*
X213918665Y-97626458D01*
X213904683Y-97622588D01*
X213883596Y-97619729D01*
X213852903Y-97617727D01*
X213810103Y-97616431D01*
X213752697Y-97615690D01*
X213678182Y-97615350D01*
X213584059Y-97615260D01*
X213564032Y-97615259D01*
X213465227Y-97615355D01*
G37*
X213465227Y-97615355D02*
X213386520Y-97615734D01*
X213325429Y-97616525D01*
X213279475Y-97617862D01*
X213246178Y-97619875D01*
X213223056Y-97622698D01*
X213207630Y-97626461D01*
X213197421Y-97631297D01*
X213192479Y-97635014D01*
X213166835Y-97667550D01*
X213163733Y-97701330D01*
X213179581Y-97732018D01*
X213189944Y-97744281D01*
X213201096Y-97752642D01*
X213217257Y-97757849D01*
X213242650Y-97760649D01*
X213281494Y-97761788D01*
X213338012Y-97762013D01*
X213349112Y-97762014D01*
X213495048Y-97762014D01*
X213495048Y-98032948D01*
X213495144Y-98118346D01*
X213495581Y-98184056D01*
X213496580Y-98232966D01*
X213498364Y-98267965D01*
X213501155Y-98291941D01*
X213505175Y-98307785D01*
X213510647Y-98318383D01*
X213517626Y-98326459D01*
X213550558Y-98346304D01*
X213584938Y-98344740D01*
X213616116Y-98322098D01*
X213618406Y-98319292D01*
X213625863Y-98308684D01*
X213631545Y-98296273D01*
X213635691Y-98279042D01*
X213638542Y-98253976D01*
X213640338Y-98218059D01*
X213641320Y-98168275D01*
X213641728Y-98101609D01*
X213641803Y-98025781D01*
X213641803Y-97762014D01*
X213781165Y-97762014D01*
X213840970Y-97761610D01*
X213882374Y-97760032D01*
X213909544Y-97756739D01*
X213926646Y-97751184D01*
X213937849Y-97742823D01*
X213939209Y-97741370D01*
X213955567Y-97708131D01*
X213954120Y-97670554D01*
X213935314Y-97637837D01*
X213928042Y-97631490D01*
X213918665Y-97626458D01*
X213904683Y-97622588D01*
X213883596Y-97619729D01*
X213852903Y-97617727D01*
X213810103Y-97616431D01*
X213752697Y-97615690D01*
X213678182Y-97615350D01*
X213584059Y-97615260D01*
X213564032Y-97615259D01*
X213465227Y-97615355D01*
G36*
X214239678Y-97622069D02*
G01*
X214215965Y-97636839D01*
X214189314Y-97658419D01*
X214189314Y-97979965D01*
X214189399Y-98074022D01*
X214189763Y-98148124D01*
X214190568Y-98204896D01*
X214191979Y-98246960D01*
X214194159Y-98276940D01*
X214197271Y-98297459D01*
X214201478Y-98311141D01*
X214206944Y-98320608D01*
X214210820Y-98325274D01*
X214242258Y-98345767D01*
X214278059Y-98344931D01*
X214309419Y-98327456D01*
X214336070Y-98305876D01*
X214336070Y-97658419D01*
X214309419Y-97636839D01*
X214283698Y-97621141D01*
X214262692Y-97615259D01*
X214239678Y-97622069D01*
G37*
X214239678Y-97622069D02*
X214215965Y-97636839D01*
X214189314Y-97658419D01*
X214189314Y-97979965D01*
X214189399Y-98074022D01*
X214189763Y-98148124D01*
X214190568Y-98204896D01*
X214191979Y-98246960D01*
X214194159Y-98276940D01*
X214197271Y-98297459D01*
X214201478Y-98311141D01*
X214206944Y-98320608D01*
X214210820Y-98325274D01*
X214242258Y-98345767D01*
X214278059Y-98344931D01*
X214309419Y-98327456D01*
X214336070Y-98305876D01*
X214336070Y-97658419D01*
X214309419Y-97636839D01*
X214283698Y-97621141D01*
X214262692Y-97615259D01*
X214239678Y-97622069D01*
G36*
X214683627Y-97617226D02*
G01*
X214664037Y-97624227D01*
X214663282Y-97624569D01*
X214636679Y-97644870D01*
X214622022Y-97665753D01*
X214619154Y-97675544D01*
X214619296Y-97688553D01*
X214623331Y-97707087D01*
X214632146Y-97733449D01*
X214646623Y-97769944D01*
X214667647Y-97818879D01*
X214696104Y-97882557D01*
X214732877Y-97963285D01*
X214753117Y-98007408D01*
X214789667Y-98086177D01*
X214823977Y-98158615D01*
X214854740Y-98222072D01*
X214880644Y-98273900D01*
X214900382Y-98311451D01*
X214912642Y-98332076D01*
X214915068Y-98334925D01*
X214946109Y-98347494D01*
X214981171Y-98345811D01*
X215009292Y-98330524D01*
X215010438Y-98329281D01*
X215021624Y-98312346D01*
X215040388Y-98279362D01*
X215064417Y-98234572D01*
X215091395Y-98182224D01*
X215101091Y-98162934D01*
X215174278Y-98016342D01*
X215254052Y-98175585D01*
X215282525Y-98230607D01*
X215308942Y-98278324D01*
X215331144Y-98315085D01*
X215346973Y-98337236D01*
X215352338Y-98341933D01*
X215394035Y-98348294D01*
X215428443Y-98334925D01*
X215438564Y-98320638D01*
X215456078Y-98288884D01*
X215479557Y-98242789D01*
X215507572Y-98185477D01*
X215538693Y-98120072D01*
X215571493Y-98049699D01*
X215604542Y-97977483D01*
X215636411Y-97906547D01*
X215665673Y-97840017D01*
X215690897Y-97781018D01*
X215710656Y-97732673D01*
X215723520Y-97698107D01*
X215728061Y-97680445D01*
X215728015Y-97679805D01*
X215716966Y-97657580D01*
X215694882Y-97634945D01*
X215693582Y-97633960D01*
X215666439Y-97618617D01*
X215641334Y-97618766D01*
X215631924Y-97621658D01*
X215620458Y-97627910D01*
X215608282Y-97640206D01*
X215593935Y-97661100D01*
X215575956Y-97693141D01*
X215552885Y-97738880D01*
X215523262Y-97800869D01*
X215496547Y-97858090D01*
X215465812Y-97924418D01*
X215438271Y-97984066D01*
X215415354Y-98033917D01*
X215398494Y-98070856D01*
X215389119Y-98091765D01*
X215387752Y-98095037D01*
X215381603Y-98089689D01*
X215367470Y-98067301D01*
X215347235Y-98031138D01*
X215322777Y-97984469D01*
X215313044Y-97965214D01*
X215280075Y-97900196D01*
X215254649Y-97852846D01*
X215234680Y-97820411D01*
X215218082Y-97800138D01*
X215202768Y-97789274D01*
X215186652Y-97785067D01*
X215176149Y-97784592D01*
X215157622Y-97786234D01*
X215141388Y-97793023D01*
X215125257Y-97807758D01*
X215107041Y-97833236D01*
X215084553Y-97872253D01*
X215055603Y-97927606D01*
X215039630Y-97959095D01*
X215013722Y-98009279D01*
X214991125Y-98050896D01*
X214973834Y-98080434D01*
X214963842Y-98094381D01*
X214962483Y-98094962D01*
X214956031Y-98083985D01*
X214941584Y-98055482D01*
X214920589Y-98012436D01*
X214894495Y-97957830D01*
X214864746Y-97894646D01*
X214850112Y-97863263D01*
X214812042Y-97782270D01*
X214781387Y-97719948D01*
X214756555Y-97674263D01*
X214735955Y-97643181D01*
X214717994Y-97624670D01*
X214701082Y-97616696D01*
X214683627Y-97617226D01*
G37*
X214683627Y-97617226D02*
X214664037Y-97624227D01*
X214663282Y-97624569D01*
X214636679Y-97644870D01*
X214622022Y-97665753D01*
X214619154Y-97675544D01*
X214619296Y-97688553D01*
X214623331Y-97707087D01*
X214632146Y-97733449D01*
X214646623Y-97769944D01*
X214667647Y-97818879D01*
X214696104Y-97882557D01*
X214732877Y-97963285D01*
X214753117Y-98007408D01*
X214789667Y-98086177D01*
X214823977Y-98158615D01*
X214854740Y-98222072D01*
X214880644Y-98273900D01*
X214900382Y-98311451D01*
X214912642Y-98332076D01*
X214915068Y-98334925D01*
X214946109Y-98347494D01*
X214981171Y-98345811D01*
X215009292Y-98330524D01*
X215010438Y-98329281D01*
X215021624Y-98312346D01*
X215040388Y-98279362D01*
X215064417Y-98234572D01*
X215091395Y-98182224D01*
X215101091Y-98162934D01*
X215174278Y-98016342D01*
X215254052Y-98175585D01*
X215282525Y-98230607D01*
X215308942Y-98278324D01*
X215331144Y-98315085D01*
X215346973Y-98337236D01*
X215352338Y-98341933D01*
X215394035Y-98348294D01*
X215428443Y-98334925D01*
X215438564Y-98320638D01*
X215456078Y-98288884D01*
X215479557Y-98242789D01*
X215507572Y-98185477D01*
X215538693Y-98120072D01*
X215571493Y-98049699D01*
X215604542Y-97977483D01*
X215636411Y-97906547D01*
X215665673Y-97840017D01*
X215690897Y-97781018D01*
X215710656Y-97732673D01*
X215723520Y-97698107D01*
X215728061Y-97680445D01*
X215728015Y-97679805D01*
X215716966Y-97657580D01*
X215694882Y-97634945D01*
X215693582Y-97633960D01*
X215666439Y-97618617D01*
X215641334Y-97618766D01*
X215631924Y-97621658D01*
X215620458Y-97627910D01*
X215608282Y-97640206D01*
X215593935Y-97661100D01*
X215575956Y-97693141D01*
X215552885Y-97738880D01*
X215523262Y-97800869D01*
X215496547Y-97858090D01*
X215465812Y-97924418D01*
X215438271Y-97984066D01*
X215415354Y-98033917D01*
X215398494Y-98070856D01*
X215389119Y-98091765D01*
X215387752Y-98095037D01*
X215381603Y-98089689D01*
X215367470Y-98067301D01*
X215347235Y-98031138D01*
X215322777Y-97984469D01*
X215313044Y-97965214D01*
X215280075Y-97900196D01*
X215254649Y-97852846D01*
X215234680Y-97820411D01*
X215218082Y-97800138D01*
X215202768Y-97789274D01*
X215186652Y-97785067D01*
X215176149Y-97784592D01*
X215157622Y-97786234D01*
X215141388Y-97793023D01*
X215125257Y-97807758D01*
X215107041Y-97833236D01*
X215084553Y-97872253D01*
X215055603Y-97927606D01*
X215039630Y-97959095D01*
X215013722Y-98009279D01*
X214991125Y-98050896D01*
X214973834Y-98080434D01*
X214963842Y-98094381D01*
X214962483Y-98094962D01*
X214956031Y-98083985D01*
X214941584Y-98055482D01*
X214920589Y-98012436D01*
X214894495Y-97957830D01*
X214864746Y-97894646D01*
X214850112Y-97863263D01*
X214812042Y-97782270D01*
X214781387Y-97719948D01*
X214756555Y-97674263D01*
X214735955Y-97643181D01*
X214717994Y-97624670D01*
X214701082Y-97616696D01*
X214683627Y-97617226D01*
G36*
X217409983Y-97615467D02*
G01*
X217281004Y-97619828D01*
X217171301Y-97633053D01*
X217079066Y-97655933D01*
X217002490Y-97689262D01*
X216939765Y-97733830D01*
X216889080Y-97790428D01*
X216848629Y-97859850D01*
X216847833Y-97861543D01*
X216823691Y-97923675D01*
X216815089Y-97978701D01*
X216822061Y-98034079D01*
X216844638Y-98097265D01*
X216848920Y-98106881D01*
X216878120Y-98163158D01*
X216910936Y-98206643D01*
X216953290Y-98243609D01*
X217011102Y-98280327D01*
X217014461Y-98282244D01*
X217064788Y-98306419D01*
X217121671Y-98324474D01*
X217188765Y-98337031D01*
X217269727Y-98344714D01*
X217368210Y-98348145D01*
X217403006Y-98348443D01*
X217568698Y-98349037D01*
X217592095Y-98319292D01*
X217599035Y-98309511D01*
X217604450Y-98298089D01*
X217608527Y-98282287D01*
X217611455Y-98259367D01*
X217613425Y-98226588D01*
X217614067Y-98202281D01*
X217457448Y-98202281D01*
X217363566Y-98202281D01*
X217308628Y-98200675D01*
X217252232Y-98196447D01*
X217205947Y-98190484D01*
X217203153Y-98189982D01*
X217120944Y-98167928D01*
X217057178Y-98134792D01*
X217009840Y-98089039D01*
X216976910Y-98029131D01*
X216971184Y-98013253D01*
X216965571Y-97988525D01*
X216968001Y-97964094D01*
X216979825Y-97931592D01*
X216986952Y-97915626D01*
X217010292Y-97873198D01*
X217038412Y-97843432D01*
X217069352Y-97822703D01*
X217131326Y-97795729D01*
X217210641Y-97776190D01*
X217303039Y-97764938D01*
X217369959Y-97762462D01*
X217457448Y-97762014D01*
X217457448Y-98202281D01*
X217614067Y-98202281D01*
X217614624Y-98181213D01*
X217615242Y-98120503D01*
X217615467Y-98041718D01*
X217615492Y-97980112D01*
X217615492Y-97670677D01*
X217587783Y-97642968D01*
X217575486Y-97631736D01*
X217562189Y-97624045D01*
X217543620Y-97619232D01*
X217515506Y-97616638D01*
X217473575Y-97615602D01*
X217413555Y-97615462D01*
X217409983Y-97615467D01*
G37*
X217409983Y-97615467D02*
X217281004Y-97619828D01*
X217171301Y-97633053D01*
X217079066Y-97655933D01*
X217002490Y-97689262D01*
X216939765Y-97733830D01*
X216889080Y-97790428D01*
X216848629Y-97859850D01*
X216847833Y-97861543D01*
X216823691Y-97923675D01*
X216815089Y-97978701D01*
X216822061Y-98034079D01*
X216844638Y-98097265D01*
X216848920Y-98106881D01*
X216878120Y-98163158D01*
X216910936Y-98206643D01*
X216953290Y-98243609D01*
X217011102Y-98280327D01*
X217014461Y-98282244D01*
X217064788Y-98306419D01*
X217121671Y-98324474D01*
X217188765Y-98337031D01*
X217269727Y-98344714D01*
X217368210Y-98348145D01*
X217403006Y-98348443D01*
X217568698Y-98349037D01*
X217592095Y-98319292D01*
X217599035Y-98309511D01*
X217604450Y-98298089D01*
X217608527Y-98282287D01*
X217611455Y-98259367D01*
X217613425Y-98226588D01*
X217614067Y-98202281D01*
X217457448Y-98202281D01*
X217363566Y-98202281D01*
X217308628Y-98200675D01*
X217252232Y-98196447D01*
X217205947Y-98190484D01*
X217203153Y-98189982D01*
X217120944Y-98167928D01*
X217057178Y-98134792D01*
X217009840Y-98089039D01*
X216976910Y-98029131D01*
X216971184Y-98013253D01*
X216965571Y-97988525D01*
X216968001Y-97964094D01*
X216979825Y-97931592D01*
X216986952Y-97915626D01*
X217010292Y-97873198D01*
X217038412Y-97843432D01*
X217069352Y-97822703D01*
X217131326Y-97795729D01*
X217210641Y-97776190D01*
X217303039Y-97764938D01*
X217369959Y-97762462D01*
X217457448Y-97762014D01*
X217457448Y-98202281D01*
X217614067Y-98202281D01*
X217614624Y-98181213D01*
X217615242Y-98120503D01*
X217615467Y-98041718D01*
X217615492Y-97980112D01*
X217615492Y-97670677D01*
X217587783Y-97642968D01*
X217575486Y-97631736D01*
X217562189Y-97624045D01*
X217543620Y-97619232D01*
X217515506Y-97616638D01*
X217473575Y-97615602D01*
X217413555Y-97615462D01*
X217409983Y-97615467D01*
G36*
X218197949Y-97615452D02*
G01*
X218121591Y-97616366D01*
X218063075Y-97618503D01*
X218020037Y-97622367D01*
X217990109Y-97628459D01*
X217970924Y-97637282D01*
X217960116Y-97649338D01*
X217955319Y-97665131D01*
X217954165Y-97685162D01*
X217954159Y-97687527D01*
X217955161Y-97710184D01*
X217959896Y-97727695D01*
X217970959Y-97740766D01*
X217990944Y-97750105D01*
X218022446Y-97756419D01*
X218068060Y-97760414D01*
X218130379Y-97762798D01*
X218211999Y-97764278D01*
X218237015Y-97764606D01*
X218479092Y-97767659D01*
X218482478Y-97832570D01*
X218485863Y-97897481D01*
X218317716Y-97897481D01*
X218252026Y-97897723D01*
X218205120Y-97898748D01*
X218173209Y-97901003D01*
X218152501Y-97904934D01*
X218139208Y-97910990D01*
X218129537Y-97919616D01*
X218129475Y-97919685D01*
X218111936Y-97953304D01*
X218112570Y-97989640D01*
X218130978Y-98020615D01*
X218134621Y-98023799D01*
X218147551Y-98032004D01*
X218165268Y-98037713D01*
X218191722Y-98041354D01*
X218230860Y-98043359D01*
X218286630Y-98044156D01*
X218322298Y-98044237D01*
X218484737Y-98044237D01*
X218484737Y-98202281D01*
X218238131Y-98202281D01*
X218156712Y-98202423D01*
X218094882Y-98203006D01*
X218049655Y-98204260D01*
X218018044Y-98206419D01*
X217997061Y-98209715D01*
X217983719Y-98214381D01*
X217975031Y-98220649D01*
X217972842Y-98222925D01*
X217956678Y-98254472D01*
X217955495Y-98290360D01*
X217968756Y-98321477D01*
X217979249Y-98331463D01*
X217990163Y-98336961D01*
X218007075Y-98341214D01*
X218032659Y-98344372D01*
X218069591Y-98346584D01*
X218120546Y-98347998D01*
X218188198Y-98348764D01*
X218275223Y-98349030D01*
X218294898Y-98349037D01*
X218383381Y-98348979D01*
X218452065Y-98348659D01*
X218503728Y-98347859D01*
X218541147Y-98346359D01*
X218567102Y-98343941D01*
X218584370Y-98340386D01*
X218595730Y-98335474D01*
X218603960Y-98328987D01*
X218608475Y-98324330D01*
X218615271Y-98316081D01*
X218620580Y-98305861D01*
X218624586Y-98290992D01*
X218627471Y-98268794D01*
X218629418Y-98236585D01*
X218630611Y-98191688D01*
X218631231Y-98131420D01*
X218631463Y-98053103D01*
X218631492Y-97987186D01*
X218631421Y-97894820D01*
X218631084Y-97822309D01*
X218630294Y-97766929D01*
X218628866Y-97725957D01*
X218626613Y-97696670D01*
X218623349Y-97676345D01*
X218618888Y-97662258D01*
X218613044Y-97651687D01*
X218608095Y-97645003D01*
X218584698Y-97615259D01*
X218294518Y-97615259D01*
X218197949Y-97615452D01*
G37*
X218197949Y-97615452D02*
X218121591Y-97616366D01*
X218063075Y-97618503D01*
X218020037Y-97622367D01*
X217990109Y-97628459D01*
X217970924Y-97637282D01*
X217960116Y-97649338D01*
X217955319Y-97665131D01*
X217954165Y-97685162D01*
X217954159Y-97687527D01*
X217955161Y-97710184D01*
X217959896Y-97727695D01*
X217970959Y-97740766D01*
X217990944Y-97750105D01*
X218022446Y-97756419D01*
X218068060Y-97760414D01*
X218130379Y-97762798D01*
X218211999Y-97764278D01*
X218237015Y-97764606D01*
X218479092Y-97767659D01*
X218482478Y-97832570D01*
X218485863Y-97897481D01*
X218317716Y-97897481D01*
X218252026Y-97897723D01*
X218205120Y-97898748D01*
X218173209Y-97901003D01*
X218152501Y-97904934D01*
X218139208Y-97910990D01*
X218129537Y-97919616D01*
X218129475Y-97919685D01*
X218111936Y-97953304D01*
X218112570Y-97989640D01*
X218130978Y-98020615D01*
X218134621Y-98023799D01*
X218147551Y-98032004D01*
X218165268Y-98037713D01*
X218191722Y-98041354D01*
X218230860Y-98043359D01*
X218286630Y-98044156D01*
X218322298Y-98044237D01*
X218484737Y-98044237D01*
X218484737Y-98202281D01*
X218238131Y-98202281D01*
X218156712Y-98202423D01*
X218094882Y-98203006D01*
X218049655Y-98204260D01*
X218018044Y-98206419D01*
X217997061Y-98209715D01*
X217983719Y-98214381D01*
X217975031Y-98220649D01*
X217972842Y-98222925D01*
X217956678Y-98254472D01*
X217955495Y-98290360D01*
X217968756Y-98321477D01*
X217979249Y-98331463D01*
X217990163Y-98336961D01*
X218007075Y-98341214D01*
X218032659Y-98344372D01*
X218069591Y-98346584D01*
X218120546Y-98347998D01*
X218188198Y-98348764D01*
X218275223Y-98349030D01*
X218294898Y-98349037D01*
X218383381Y-98348979D01*
X218452065Y-98348659D01*
X218503728Y-98347859D01*
X218541147Y-98346359D01*
X218567102Y-98343941D01*
X218584370Y-98340386D01*
X218595730Y-98335474D01*
X218603960Y-98328987D01*
X218608475Y-98324330D01*
X218615271Y-98316081D01*
X218620580Y-98305861D01*
X218624586Y-98290992D01*
X218627471Y-98268794D01*
X218629418Y-98236585D01*
X218630611Y-98191688D01*
X218631231Y-98131420D01*
X218631463Y-98053103D01*
X218631492Y-97987186D01*
X218631421Y-97894820D01*
X218631084Y-97822309D01*
X218630294Y-97766929D01*
X218628866Y-97725957D01*
X218626613Y-97696670D01*
X218623349Y-97676345D01*
X218618888Y-97662258D01*
X218613044Y-97651687D01*
X218608095Y-97645003D01*
X218584698Y-97615259D01*
X218294518Y-97615259D01*
X218197949Y-97615452D01*
G36*
X219728406Y-97619640D02*
G01*
X219704840Y-97633465D01*
X219674027Y-97656073D01*
X219634370Y-97688530D01*
X219584272Y-97731900D01*
X219522135Y-97787250D01*
X219446364Y-97855643D01*
X219359626Y-97934276D01*
X219179003Y-98098070D01*
X219173359Y-97878221D01*
X219171321Y-97802543D01*
X219169355Y-97746186D01*
X219167026Y-97705898D01*
X219163898Y-97678427D01*
X219159537Y-97660521D01*
X219153508Y-97648929D01*
X219145376Y-97640400D01*
X219141064Y-97636815D01*
X219106533Y-97617862D01*
X219073675Y-97620633D01*
X219047610Y-97636825D01*
X219020959Y-97658391D01*
X219017644Y-97973343D01*
X219016727Y-98065971D01*
X219016260Y-98138736D01*
X219016405Y-98194353D01*
X219017324Y-98235534D01*
X219019179Y-98264995D01*
X219022131Y-98285447D01*
X219026342Y-98299605D01*
X219031974Y-98310183D01*
X219038219Y-98318666D01*
X219051731Y-98334399D01*
X219065175Y-98344828D01*
X219080416Y-98348831D01*
X219099318Y-98345286D01*
X219123747Y-98333071D01*
X219155565Y-98311063D01*
X219196640Y-98278141D01*
X219248834Y-98233183D01*
X219314014Y-98175067D01*
X219387848Y-98108291D01*
X219653137Y-97867650D01*
X219658781Y-98086781D01*
X219660823Y-98162320D01*
X219662794Y-98218546D01*
X219665131Y-98258716D01*
X219668273Y-98286088D01*
X219672656Y-98303920D01*
X219678716Y-98315471D01*
X219686892Y-98323999D01*
X219691076Y-98327474D01*
X219728057Y-98346564D01*
X219763000Y-98343685D01*
X219793428Y-98319292D01*
X219800389Y-98309478D01*
X219805815Y-98298018D01*
X219809895Y-98282160D01*
X219812821Y-98259155D01*
X219814784Y-98226254D01*
X219815975Y-98180708D01*
X219816584Y-98119765D01*
X219816803Y-98040678D01*
X219816826Y-97982148D01*
X219816752Y-97890599D01*
X219816405Y-97818879D01*
X219815593Y-97764237D01*
X219814125Y-97723924D01*
X219811811Y-97695190D01*
X219808459Y-97675285D01*
X219803880Y-97661460D01*
X219797881Y-97650964D01*
X219793428Y-97645003D01*
X219782142Y-97630883D01*
X219771593Y-97620221D01*
X219760185Y-97614084D01*
X219746322Y-97613535D01*
X219728406Y-97619640D01*
G37*
X219728406Y-97619640D02*
X219704840Y-97633465D01*
X219674027Y-97656073D01*
X219634370Y-97688530D01*
X219584272Y-97731900D01*
X219522135Y-97787250D01*
X219446364Y-97855643D01*
X219359626Y-97934276D01*
X219179003Y-98098070D01*
X219173359Y-97878221D01*
X219171321Y-97802543D01*
X219169355Y-97746186D01*
X219167026Y-97705898D01*
X219163898Y-97678427D01*
X219159537Y-97660521D01*
X219153508Y-97648929D01*
X219145376Y-97640400D01*
X219141064Y-97636815D01*
X219106533Y-97617862D01*
X219073675Y-97620633D01*
X219047610Y-97636825D01*
X219020959Y-97658391D01*
X219017644Y-97973343D01*
X219016727Y-98065971D01*
X219016260Y-98138736D01*
X219016405Y-98194353D01*
X219017324Y-98235534D01*
X219019179Y-98264995D01*
X219022131Y-98285447D01*
X219026342Y-98299605D01*
X219031974Y-98310183D01*
X219038219Y-98318666D01*
X219051731Y-98334399D01*
X219065175Y-98344828D01*
X219080416Y-98348831D01*
X219099318Y-98345286D01*
X219123747Y-98333071D01*
X219155565Y-98311063D01*
X219196640Y-98278141D01*
X219248834Y-98233183D01*
X219314014Y-98175067D01*
X219387848Y-98108291D01*
X219653137Y-97867650D01*
X219658781Y-98086781D01*
X219660823Y-98162320D01*
X219662794Y-98218546D01*
X219665131Y-98258716D01*
X219668273Y-98286088D01*
X219672656Y-98303920D01*
X219678716Y-98315471D01*
X219686892Y-98323999D01*
X219691076Y-98327474D01*
X219728057Y-98346564D01*
X219763000Y-98343685D01*
X219793428Y-98319292D01*
X219800389Y-98309478D01*
X219805815Y-98298018D01*
X219809895Y-98282160D01*
X219812821Y-98259155D01*
X219814784Y-98226254D01*
X219815975Y-98180708D01*
X219816584Y-98119765D01*
X219816803Y-98040678D01*
X219816826Y-97982148D01*
X219816752Y-97890599D01*
X219816405Y-97818879D01*
X219815593Y-97764237D01*
X219814125Y-97723924D01*
X219811811Y-97695190D01*
X219808459Y-97675285D01*
X219803880Y-97661460D01*
X219797881Y-97650964D01*
X219793428Y-97645003D01*
X219782142Y-97630883D01*
X219771593Y-97620221D01*
X219760185Y-97614084D01*
X219746322Y-97613535D01*
X219728406Y-97619640D01*
G36*
X220378373Y-97620791D02*
G01*
X220309857Y-97632287D01*
X220257235Y-97650159D01*
X220223000Y-97673691D01*
X220213671Y-97687116D01*
X220204185Y-97718340D01*
X220210569Y-97746587D01*
X220230722Y-97773374D01*
X220262037Y-97785905D01*
X220307475Y-97784888D01*
X220342618Y-97778098D01*
X220420711Y-97765163D01*
X220500518Y-97763934D01*
X220589847Y-97774433D01*
X220614521Y-97778882D01*
X220697583Y-97802300D01*
X220762565Y-97837137D01*
X220808753Y-97882796D01*
X220835437Y-97938686D01*
X220840955Y-97967580D01*
X220837343Y-98026204D01*
X220814021Y-98078071D01*
X220773116Y-98122170D01*
X220716751Y-98157491D01*
X220647052Y-98183021D01*
X220566144Y-98197751D01*
X220476152Y-98200670D01*
X220379202Y-98190767D01*
X220373728Y-98189833D01*
X220335167Y-98182651D01*
X220313786Y-98175713D01*
X220304519Y-98165419D01*
X220302298Y-98148168D01*
X220302248Y-98139033D01*
X220302248Y-98100681D01*
X220370723Y-98100681D01*
X220431192Y-98096539D01*
X220472457Y-98083339D01*
X220496467Y-98059922D01*
X220505169Y-98025128D01*
X220505275Y-98020586D01*
X220500184Y-97990846D01*
X220482725Y-97969611D01*
X220450231Y-97955558D01*
X220400035Y-97947365D01*
X220351415Y-97944353D01*
X220280748Y-97942625D01*
X220229490Y-97945262D01*
X220194531Y-97954992D01*
X220172762Y-97974545D01*
X220161072Y-98006648D01*
X220156352Y-98054030D01*
X220155492Y-98116263D01*
X220156901Y-98185727D01*
X220161140Y-98232978D01*
X220168228Y-98258204D01*
X220169603Y-98260180D01*
X220208520Y-98291700D01*
X220265578Y-98316662D01*
X220337161Y-98334532D01*
X220419650Y-98344778D01*
X220509431Y-98346865D01*
X220602884Y-98340260D01*
X220657848Y-98332148D01*
X220744058Y-98307746D01*
X220824184Y-98267854D01*
X220891269Y-98216079D01*
X220901465Y-98205731D01*
X220934594Y-98162227D01*
X220964486Y-98108310D01*
X220987649Y-98051784D01*
X221000590Y-98000451D01*
X221002150Y-97980736D01*
X220995510Y-97939611D01*
X220977860Y-97888444D01*
X220952589Y-97834586D01*
X220923081Y-97785387D01*
X220897011Y-97752526D01*
X220836057Y-97703644D01*
X220757261Y-97664737D01*
X220663449Y-97636686D01*
X220557442Y-97620371D01*
X220460292Y-97616384D01*
X220378373Y-97620791D01*
G37*
X220378373Y-97620791D02*
X220309857Y-97632287D01*
X220257235Y-97650159D01*
X220223000Y-97673691D01*
X220213671Y-97687116D01*
X220204185Y-97718340D01*
X220210569Y-97746587D01*
X220230722Y-97773374D01*
X220262037Y-97785905D01*
X220307475Y-97784888D01*
X220342618Y-97778098D01*
X220420711Y-97765163D01*
X220500518Y-97763934D01*
X220589847Y-97774433D01*
X220614521Y-97778882D01*
X220697583Y-97802300D01*
X220762565Y-97837137D01*
X220808753Y-97882796D01*
X220835437Y-97938686D01*
X220840955Y-97967580D01*
X220837343Y-98026204D01*
X220814021Y-98078071D01*
X220773116Y-98122170D01*
X220716751Y-98157491D01*
X220647052Y-98183021D01*
X220566144Y-98197751D01*
X220476152Y-98200670D01*
X220379202Y-98190767D01*
X220373728Y-98189833D01*
X220335167Y-98182651D01*
X220313786Y-98175713D01*
X220304519Y-98165419D01*
X220302298Y-98148168D01*
X220302248Y-98139033D01*
X220302248Y-98100681D01*
X220370723Y-98100681D01*
X220431192Y-98096539D01*
X220472457Y-98083339D01*
X220496467Y-98059922D01*
X220505169Y-98025128D01*
X220505275Y-98020586D01*
X220500184Y-97990846D01*
X220482725Y-97969611D01*
X220450231Y-97955558D01*
X220400035Y-97947365D01*
X220351415Y-97944353D01*
X220280748Y-97942625D01*
X220229490Y-97945262D01*
X220194531Y-97954992D01*
X220172762Y-97974545D01*
X220161072Y-98006648D01*
X220156352Y-98054030D01*
X220155492Y-98116263D01*
X220156901Y-98185727D01*
X220161140Y-98232978D01*
X220168228Y-98258204D01*
X220169603Y-98260180D01*
X220208520Y-98291700D01*
X220265578Y-98316662D01*
X220337161Y-98334532D01*
X220419650Y-98344778D01*
X220509431Y-98346865D01*
X220602884Y-98340260D01*
X220657848Y-98332148D01*
X220744058Y-98307746D01*
X220824184Y-98267854D01*
X220891269Y-98216079D01*
X220901465Y-98205731D01*
X220934594Y-98162227D01*
X220964486Y-98108310D01*
X220987649Y-98051784D01*
X221000590Y-98000451D01*
X221002150Y-97980736D01*
X220995510Y-97939611D01*
X220977860Y-97888444D01*
X220952589Y-97834586D01*
X220923081Y-97785387D01*
X220897011Y-97752526D01*
X220836057Y-97703644D01*
X220757261Y-97664737D01*
X220663449Y-97636686D01*
X220557442Y-97620371D01*
X220460292Y-97616384D01*
X220378373Y-97620791D01*
G36*
X221352114Y-97637837D02*
G01*
X221345534Y-97645410D01*
X221340371Y-97655179D01*
X221336456Y-97669763D01*
X221333616Y-97691777D01*
X221331679Y-97723840D01*
X221330475Y-97768567D01*
X221329831Y-97828577D01*
X221329576Y-97906486D01*
X221329537Y-97982148D01*
X221329606Y-98075994D01*
X221329930Y-98149881D01*
X221330678Y-98206424D01*
X221332024Y-98248241D01*
X221334138Y-98277949D01*
X221337192Y-98298165D01*
X221341358Y-98311506D01*
X221346808Y-98320590D01*
X221352114Y-98326459D01*
X221385118Y-98346139D01*
X221420283Y-98344373D01*
X221451747Y-98322909D01*
X221458976Y-98314529D01*
X221464626Y-98304806D01*
X221468891Y-98291053D01*
X221471965Y-98270581D01*
X221474044Y-98240704D01*
X221475322Y-98198733D01*
X221475993Y-98141981D01*
X221476251Y-98067759D01*
X221476292Y-97983729D01*
X221476292Y-97670677D01*
X221448583Y-97642968D01*
X221414429Y-97619655D01*
X221381298Y-97618815D01*
X221352114Y-97637837D01*
G37*
X221352114Y-97637837D02*
X221345534Y-97645410D01*
X221340371Y-97655179D01*
X221336456Y-97669763D01*
X221333616Y-97691777D01*
X221331679Y-97723840D01*
X221330475Y-97768567D01*
X221329831Y-97828577D01*
X221329576Y-97906486D01*
X221329537Y-97982148D01*
X221329606Y-98075994D01*
X221329930Y-98149881D01*
X221330678Y-98206424D01*
X221332024Y-98248241D01*
X221334138Y-98277949D01*
X221337192Y-98298165D01*
X221341358Y-98311506D01*
X221346808Y-98320590D01*
X221352114Y-98326459D01*
X221385118Y-98346139D01*
X221420283Y-98344373D01*
X221451747Y-98322909D01*
X221458976Y-98314529D01*
X221464626Y-98304806D01*
X221468891Y-98291053D01*
X221471965Y-98270581D01*
X221474044Y-98240704D01*
X221475322Y-98198733D01*
X221475993Y-98141981D01*
X221476251Y-98067759D01*
X221476292Y-97983729D01*
X221476292Y-97670677D01*
X221448583Y-97642968D01*
X221414429Y-97619655D01*
X221381298Y-97618815D01*
X221352114Y-97637837D01*
G36*
X222119995Y-97616543D02*
G01*
X222045180Y-97621773D01*
X221975598Y-97629942D01*
X221915294Y-97640742D01*
X221868312Y-97653865D01*
X221838698Y-97669005D01*
X221834152Y-97673461D01*
X221818346Y-97708042D01*
X221823139Y-97743543D01*
X221847656Y-97773917D01*
X221848826Y-97774788D01*
X221863246Y-97784146D01*
X221878300Y-97789068D01*
X221899297Y-97789665D01*
X221931549Y-97786053D01*
X221980365Y-97778346D01*
X221984292Y-97777697D01*
X222057031Y-97768761D01*
X222135509Y-97764353D01*
X222214219Y-97764311D01*
X222287653Y-97768471D01*
X222350303Y-97776671D01*
X222396662Y-97788749D01*
X222399708Y-97789963D01*
X222433340Y-97808807D01*
X222445156Y-97827877D01*
X222435906Y-97846631D01*
X222406339Y-97864529D01*
X222357203Y-97881029D01*
X222289249Y-97895588D01*
X222243937Y-97902598D01*
X222149748Y-97916081D01*
X222074836Y-97928406D01*
X222016009Y-97940641D01*
X221970077Y-97953853D01*
X221933847Y-97969109D01*
X221904130Y-97987477D01*
X221877734Y-98010023D01*
X221856522Y-98032163D01*
X221831357Y-98063011D01*
X221818973Y-98089537D01*
X221815100Y-98122218D01*
X221814959Y-98134187D01*
X221817868Y-98173904D01*
X221829494Y-98203451D01*
X221849615Y-98229678D01*
X221890508Y-98269768D01*
X221936109Y-98300341D01*
X221989805Y-98322395D01*
X222054984Y-98336927D01*
X222135036Y-98344933D01*
X222233349Y-98347410D01*
X222249581Y-98347369D01*
X222315141Y-98346010D01*
X222380158Y-98342922D01*
X222437544Y-98338548D01*
X222480214Y-98333332D01*
X222483664Y-98332733D01*
X222526088Y-98322683D01*
X222562072Y-98309988D01*
X222582442Y-98298382D01*
X222601399Y-98267764D01*
X222602719Y-98232110D01*
X222586377Y-98200336D01*
X222582721Y-98196743D01*
X222567607Y-98186068D01*
X222548707Y-98181468D01*
X222519454Y-98182251D01*
X222483943Y-98186319D01*
X222444262Y-98189954D01*
X222388637Y-98193020D01*
X222323698Y-98195245D01*
X222256077Y-98196356D01*
X222238292Y-98196429D01*
X222170420Y-98196156D01*
X222120746Y-98194838D01*
X222084902Y-98192019D01*
X222058516Y-98187242D01*
X222037218Y-98180049D01*
X222024418Y-98174059D01*
X221996292Y-98157425D01*
X221978360Y-98142360D01*
X221975739Y-98138089D01*
X221981268Y-98120455D01*
X222007552Y-98103384D01*
X222052770Y-98087650D01*
X222115100Y-98074030D01*
X222133463Y-98070996D01*
X222229382Y-98055930D01*
X222305933Y-98043338D01*
X222366072Y-98032303D01*
X222412752Y-98021912D01*
X222448929Y-98011248D01*
X222477557Y-97999397D01*
X222501590Y-97985443D01*
X222523984Y-97968473D01*
X222547694Y-97947570D01*
X222555672Y-97940241D01*
X222583645Y-97912891D01*
X222598452Y-97891221D01*
X222604244Y-97866424D01*
X222605181Y-97835175D01*
X222594867Y-97773897D01*
X222564044Y-97721832D01*
X222512887Y-97679150D01*
X222441575Y-97646017D01*
X222390692Y-97631156D01*
X222335392Y-97621558D01*
X222269145Y-97616128D01*
X222195998Y-97614559D01*
X222119995Y-97616543D01*
G37*
X222119995Y-97616543D02*
X222045180Y-97621773D01*
X221975598Y-97629942D01*
X221915294Y-97640742D01*
X221868312Y-97653865D01*
X221838698Y-97669005D01*
X221834152Y-97673461D01*
X221818346Y-97708042D01*
X221823139Y-97743543D01*
X221847656Y-97773917D01*
X221848826Y-97774788D01*
X221863246Y-97784146D01*
X221878300Y-97789068D01*
X221899297Y-97789665D01*
X221931549Y-97786053D01*
X221980365Y-97778346D01*
X221984292Y-97777697D01*
X222057031Y-97768761D01*
X222135509Y-97764353D01*
X222214219Y-97764311D01*
X222287653Y-97768471D01*
X222350303Y-97776671D01*
X222396662Y-97788749D01*
X222399708Y-97789963D01*
X222433340Y-97808807D01*
X222445156Y-97827877D01*
X222435906Y-97846631D01*
X222406339Y-97864529D01*
X222357203Y-97881029D01*
X222289249Y-97895588D01*
X222243937Y-97902598D01*
X222149748Y-97916081D01*
X222074836Y-97928406D01*
X222016009Y-97940641D01*
X221970077Y-97953853D01*
X221933847Y-97969109D01*
X221904130Y-97987477D01*
X221877734Y-98010023D01*
X221856522Y-98032163D01*
X221831357Y-98063011D01*
X221818973Y-98089537D01*
X221815100Y-98122218D01*
X221814959Y-98134187D01*
X221817868Y-98173904D01*
X221829494Y-98203451D01*
X221849615Y-98229678D01*
X221890508Y-98269768D01*
X221936109Y-98300341D01*
X221989805Y-98322395D01*
X222054984Y-98336927D01*
X222135036Y-98344933D01*
X222233349Y-98347410D01*
X222249581Y-98347369D01*
X222315141Y-98346010D01*
X222380158Y-98342922D01*
X222437544Y-98338548D01*
X222480214Y-98333332D01*
X222483664Y-98332733D01*
X222526088Y-98322683D01*
X222562072Y-98309988D01*
X222582442Y-98298382D01*
X222601399Y-98267764D01*
X222602719Y-98232110D01*
X222586377Y-98200336D01*
X222582721Y-98196743D01*
X222567607Y-98186068D01*
X222548707Y-98181468D01*
X222519454Y-98182251D01*
X222483943Y-98186319D01*
X222444262Y-98189954D01*
X222388637Y-98193020D01*
X222323698Y-98195245D01*
X222256077Y-98196356D01*
X222238292Y-98196429D01*
X222170420Y-98196156D01*
X222120746Y-98194838D01*
X222084902Y-98192019D01*
X222058516Y-98187242D01*
X222037218Y-98180049D01*
X222024418Y-98174059D01*
X221996292Y-98157425D01*
X221978360Y-98142360D01*
X221975739Y-98138089D01*
X221981268Y-98120455D01*
X222007552Y-98103384D01*
X222052770Y-98087650D01*
X222115100Y-98074030D01*
X222133463Y-98070996D01*
X222229382Y-98055930D01*
X222305933Y-98043338D01*
X222366072Y-98032303D01*
X222412752Y-98021912D01*
X222448929Y-98011248D01*
X222477557Y-97999397D01*
X222501590Y-97985443D01*
X222523984Y-97968473D01*
X222547694Y-97947570D01*
X222555672Y-97940241D01*
X222583645Y-97912891D01*
X222598452Y-97891221D01*
X222604244Y-97866424D01*
X222605181Y-97835175D01*
X222594867Y-97773897D01*
X222564044Y-97721832D01*
X222512887Y-97679150D01*
X222441575Y-97646017D01*
X222390692Y-97631156D01*
X222335392Y-97621558D01*
X222269145Y-97616128D01*
X222195998Y-97614559D01*
X222119995Y-97616543D01*
G36*
X223141086Y-97615338D02*
G01*
X223071678Y-97615710D01*
X223019289Y-97616577D01*
X222981139Y-97618138D01*
X222954451Y-97620595D01*
X222936445Y-97624149D01*
X222924341Y-97629002D01*
X222915361Y-97635353D01*
X222912110Y-97638276D01*
X222892335Y-97669334D01*
X222888774Y-97705020D01*
X222901783Y-97736702D01*
X222907798Y-97743105D01*
X222917527Y-97749313D01*
X222933193Y-97754102D01*
X222957700Y-97757706D01*
X222993953Y-97760356D01*
X223044857Y-97762287D01*
X223113318Y-97763731D01*
X223175909Y-97764610D01*
X223423626Y-97767659D01*
X223427011Y-97832570D01*
X223430397Y-97897481D01*
X223262250Y-97897481D01*
X223189251Y-97898111D01*
X223135809Y-97900745D01*
X223098920Y-97906501D01*
X223075580Y-97916496D01*
X223062786Y-97931848D01*
X223057534Y-97953674D01*
X223056737Y-97973930D01*
X223059215Y-97998784D01*
X223068569Y-98017098D01*
X223087675Y-98029829D01*
X223119410Y-98037933D01*
X223166651Y-98042368D01*
X223232275Y-98044091D01*
X223268093Y-98044237D01*
X223429270Y-98044237D01*
X223429270Y-98202281D01*
X223180914Y-98202281D01*
X223099505Y-98202394D01*
X223037634Y-98202904D01*
X222992260Y-98204062D01*
X222960346Y-98206122D01*
X222938851Y-98209338D01*
X222924735Y-98213964D01*
X222914960Y-98220251D01*
X222909981Y-98224859D01*
X222892902Y-98251752D01*
X222887403Y-98275659D01*
X222895255Y-98304859D01*
X222909981Y-98326459D01*
X222917838Y-98333258D01*
X222927980Y-98338538D01*
X222943136Y-98342490D01*
X222966033Y-98345305D01*
X222999401Y-98347174D01*
X223045967Y-98348290D01*
X223108459Y-98348843D01*
X223189606Y-98349025D01*
X223231714Y-98349037D01*
X223321890Y-98348957D01*
X223392216Y-98348590D01*
X223445421Y-98347744D01*
X223484232Y-98346228D01*
X223511379Y-98343851D01*
X223529590Y-98340421D01*
X223541592Y-98335746D01*
X223550114Y-98329636D01*
X223553448Y-98326459D01*
X223560047Y-98318862D01*
X223565219Y-98309062D01*
X223569138Y-98294431D01*
X223571976Y-98272344D01*
X223573907Y-98240174D01*
X223575104Y-98195295D01*
X223575740Y-98135081D01*
X223575989Y-98056905D01*
X223576026Y-97984115D01*
X223575992Y-97890899D01*
X223575757Y-97817623D01*
X223575122Y-97761650D01*
X223573886Y-97720343D01*
X223571848Y-97691064D01*
X223568809Y-97671176D01*
X223564569Y-97658042D01*
X223558927Y-97649024D01*
X223551683Y-97641485D01*
X223549898Y-97639804D01*
X223541237Y-97632364D01*
X223531174Y-97626601D01*
X223516917Y-97622304D01*
X223495675Y-97619256D01*
X223464656Y-97617243D01*
X223421069Y-97616052D01*
X223362123Y-97615467D01*
X223285026Y-97615275D01*
X223230293Y-97615259D01*
X223141086Y-97615338D01*
G37*
X223141086Y-97615338D02*
X223071678Y-97615710D01*
X223019289Y-97616577D01*
X222981139Y-97618138D01*
X222954451Y-97620595D01*
X222936445Y-97624149D01*
X222924341Y-97629002D01*
X222915361Y-97635353D01*
X222912110Y-97638276D01*
X222892335Y-97669334D01*
X222888774Y-97705020D01*
X222901783Y-97736702D01*
X222907798Y-97743105D01*
X222917527Y-97749313D01*
X222933193Y-97754102D01*
X222957700Y-97757706D01*
X222993953Y-97760356D01*
X223044857Y-97762287D01*
X223113318Y-97763731D01*
X223175909Y-97764610D01*
X223423626Y-97767659D01*
X223427011Y-97832570D01*
X223430397Y-97897481D01*
X223262250Y-97897481D01*
X223189251Y-97898111D01*
X223135809Y-97900745D01*
X223098920Y-97906501D01*
X223075580Y-97916496D01*
X223062786Y-97931848D01*
X223057534Y-97953674D01*
X223056737Y-97973930D01*
X223059215Y-97998784D01*
X223068569Y-98017098D01*
X223087675Y-98029829D01*
X223119410Y-98037933D01*
X223166651Y-98042368D01*
X223232275Y-98044091D01*
X223268093Y-98044237D01*
X223429270Y-98044237D01*
X223429270Y-98202281D01*
X223180914Y-98202281D01*
X223099505Y-98202394D01*
X223037634Y-98202904D01*
X222992260Y-98204062D01*
X222960346Y-98206122D01*
X222938851Y-98209338D01*
X222924735Y-98213964D01*
X222914960Y-98220251D01*
X222909981Y-98224859D01*
X222892902Y-98251752D01*
X222887403Y-98275659D01*
X222895255Y-98304859D01*
X222909981Y-98326459D01*
X222917838Y-98333258D01*
X222927980Y-98338538D01*
X222943136Y-98342490D01*
X222966033Y-98345305D01*
X222999401Y-98347174D01*
X223045967Y-98348290D01*
X223108459Y-98348843D01*
X223189606Y-98349025D01*
X223231714Y-98349037D01*
X223321890Y-98348957D01*
X223392216Y-98348590D01*
X223445421Y-98347744D01*
X223484232Y-98346228D01*
X223511379Y-98343851D01*
X223529590Y-98340421D01*
X223541592Y-98335746D01*
X223550114Y-98329636D01*
X223553448Y-98326459D01*
X223560047Y-98318862D01*
X223565219Y-98309062D01*
X223569138Y-98294431D01*
X223571976Y-98272344D01*
X223573907Y-98240174D01*
X223575104Y-98195295D01*
X223575740Y-98135081D01*
X223575989Y-98056905D01*
X223576026Y-97984115D01*
X223575992Y-97890899D01*
X223575757Y-97817623D01*
X223575122Y-97761650D01*
X223573886Y-97720343D01*
X223571848Y-97691064D01*
X223568809Y-97671176D01*
X223564569Y-97658042D01*
X223558927Y-97649024D01*
X223551683Y-97641485D01*
X223549898Y-97639804D01*
X223541237Y-97632364D01*
X223531174Y-97626601D01*
X223516917Y-97622304D01*
X223495675Y-97619256D01*
X223464656Y-97617243D01*
X223421069Y-97616052D01*
X223362123Y-97615467D01*
X223285026Y-97615275D01*
X223230293Y-97615259D01*
X223141086Y-97615338D01*
G36*
X224549663Y-97615258D02*
G01*
X224510181Y-97615659D01*
X224394492Y-97618451D01*
X224297603Y-97626742D01*
X224216211Y-97641424D01*
X224147015Y-97663385D01*
X224086712Y-97693514D01*
X224032000Y-97732702D01*
X224012459Y-97749724D01*
X223980042Y-97789555D01*
X223950812Y-97843605D01*
X223928283Y-97903515D01*
X223915971Y-97960931D01*
X223914692Y-97982148D01*
X223922709Y-98040961D01*
X223944191Y-98105205D01*
X223975291Y-98166013D01*
X224012158Y-98214522D01*
X224018146Y-98220374D01*
X224068871Y-98261513D01*
X224124417Y-98293627D01*
X224187988Y-98317557D01*
X224262786Y-98334145D01*
X224352014Y-98344233D01*
X224458874Y-98348661D01*
X224507820Y-98349037D01*
X224570054Y-98348737D01*
X224613820Y-98347484D01*
X224643223Y-98344746D01*
X224662371Y-98339993D01*
X224675369Y-98332693D01*
X224682337Y-98326459D01*
X224688918Y-98318886D01*
X224694080Y-98309116D01*
X224697995Y-98294532D01*
X224700835Y-98272518D01*
X224702772Y-98240456D01*
X224703976Y-98195728D01*
X224704620Y-98135718D01*
X224704875Y-98057809D01*
X224704914Y-97982148D01*
X224705162Y-97881233D01*
X224705109Y-97800619D01*
X224704149Y-97762014D01*
X224558159Y-97762014D01*
X224558159Y-98202281D01*
X224465026Y-98202196D01*
X224408985Y-98200588D01*
X224350291Y-98196448D01*
X224301320Y-98190656D01*
X224299830Y-98190418D01*
X224220684Y-98171282D01*
X224159294Y-98141479D01*
X224112597Y-98099070D01*
X224082927Y-98053153D01*
X224064645Y-98002218D01*
X224066063Y-97954392D01*
X224087280Y-97903125D01*
X224128781Y-97850091D01*
X224186290Y-97810792D01*
X224261042Y-97784523D01*
X224311000Y-97775227D01*
X224367708Y-97768699D01*
X224427811Y-97763974D01*
X224478931Y-97762009D01*
X224481959Y-97762000D01*
X224558159Y-97762014D01*
X224704149Y-97762014D01*
X224703552Y-97738043D01*
X224699290Y-97691247D01*
X224691122Y-97657970D01*
X224677848Y-97635951D01*
X224658266Y-97622931D01*
X224631175Y-97616649D01*
X224595374Y-97614845D01*
X224549663Y-97615258D01*
G37*
X224549663Y-97615258D02*
X224510181Y-97615659D01*
X224394492Y-97618451D01*
X224297603Y-97626742D01*
X224216211Y-97641424D01*
X224147015Y-97663385D01*
X224086712Y-97693514D01*
X224032000Y-97732702D01*
X224012459Y-97749724D01*
X223980042Y-97789555D01*
X223950812Y-97843605D01*
X223928283Y-97903515D01*
X223915971Y-97960931D01*
X223914692Y-97982148D01*
X223922709Y-98040961D01*
X223944191Y-98105205D01*
X223975291Y-98166013D01*
X224012158Y-98214522D01*
X224018146Y-98220374D01*
X224068871Y-98261513D01*
X224124417Y-98293627D01*
X224187988Y-98317557D01*
X224262786Y-98334145D01*
X224352014Y-98344233D01*
X224458874Y-98348661D01*
X224507820Y-98349037D01*
X224570054Y-98348737D01*
X224613820Y-98347484D01*
X224643223Y-98344746D01*
X224662371Y-98339993D01*
X224675369Y-98332693D01*
X224682337Y-98326459D01*
X224688918Y-98318886D01*
X224694080Y-98309116D01*
X224697995Y-98294532D01*
X224700835Y-98272518D01*
X224702772Y-98240456D01*
X224703976Y-98195728D01*
X224704620Y-98135718D01*
X224704875Y-98057809D01*
X224704914Y-97982148D01*
X224705162Y-97881233D01*
X224705109Y-97800619D01*
X224704149Y-97762014D01*
X224558159Y-97762014D01*
X224558159Y-98202281D01*
X224465026Y-98202196D01*
X224408985Y-98200588D01*
X224350291Y-98196448D01*
X224301320Y-98190656D01*
X224299830Y-98190418D01*
X224220684Y-98171282D01*
X224159294Y-98141479D01*
X224112597Y-98099070D01*
X224082927Y-98053153D01*
X224064645Y-98002218D01*
X224066063Y-97954392D01*
X224087280Y-97903125D01*
X224128781Y-97850091D01*
X224186290Y-97810792D01*
X224261042Y-97784523D01*
X224311000Y-97775227D01*
X224367708Y-97768699D01*
X224427811Y-97763974D01*
X224478931Y-97762009D01*
X224481959Y-97762000D01*
X224558159Y-97762014D01*
X224704149Y-97762014D01*
X224703552Y-97738043D01*
X224699290Y-97691247D01*
X224691122Y-97657970D01*
X224677848Y-97635951D01*
X224658266Y-97622931D01*
X224631175Y-97616649D01*
X224595374Y-97614845D01*
X224549663Y-97615258D01*
%TD*%
M02*
