%TF.GenerationSoftware,KiCad,Pcbnew,(5.1.9)-1*%
%TF.CreationDate,2021-03-08T11:19:03-03:00*%
%TF.ProjectId,pedal_board,70656461-6c5f-4626-9f61-72642e6b6963,rev?*%
%TF.SameCoordinates,Original*%
%TF.FileFunction,Soldermask,Bot*%
%TF.FilePolarity,Negative*%
%FSLAX46Y46*%
G04 Gerber Fmt 4.6, Leading zero omitted, Abs format (unit mm)*
G04 Created by KiCad (PCBNEW (5.1.9)-1) date 2021-03-08 11:19:03*
%MOMM*%
%LPD*%
G01*
G04 APERTURE LIST*
%ADD10C,0.500000*%
%ADD11O,1.700000X2.000000*%
%ADD12C,1.524000*%
%ADD13R,1.600000X1.600000*%
%ADD14O,1.600000X1.600000*%
%ADD15C,6.400000*%
%ADD16C,0.800000*%
G04 APERTURE END LIST*
D10*
%TO.C,mouse-bite-3mm-slot*%
X187250000Y-144762000D03*
X188750000Y-144762000D03*
X187250000Y-144012000D03*
X187250000Y-145512000D03*
X188750000Y-145512000D03*
X188750000Y-144012000D03*
X188750000Y-143238000D03*
X187250000Y-143238000D03*
X187250000Y-142476000D03*
X188750000Y-142476000D03*
%TD*%
%TO.C,mouse-bite-3mm-slot*%
X188750000Y-115726000D03*
X187250000Y-115726000D03*
X187250000Y-116488000D03*
X188750000Y-116488000D03*
X188750000Y-117262000D03*
X188750000Y-118762000D03*
X187250000Y-118762000D03*
X187250000Y-117262000D03*
X188750000Y-118012000D03*
X187250000Y-118012000D03*
%TD*%
%TO.C,mouse-bite-3mm-slot*%
X203488000Y-105750000D03*
X203488000Y-107250000D03*
X204238000Y-105750000D03*
X202738000Y-105750000D03*
X202738000Y-107250000D03*
X204238000Y-107250000D03*
X205012000Y-107250000D03*
X205012000Y-105750000D03*
X205774000Y-105750000D03*
X205774000Y-107250000D03*
%TD*%
%TO.C,mouse-bite-3mm-slot*%
X224524000Y-107250000D03*
X224524000Y-105750000D03*
X223762000Y-105750000D03*
X223762000Y-107250000D03*
X222988000Y-107250000D03*
X221488000Y-107250000D03*
X221488000Y-105750000D03*
X222988000Y-105750000D03*
X222238000Y-107250000D03*
X222238000Y-105750000D03*
%TD*%
%TO.C,mouse-bite-3mm-slot*%
X171738000Y-105750000D03*
X171738000Y-107250000D03*
X172488000Y-105750000D03*
X170988000Y-105750000D03*
X170988000Y-107250000D03*
X172488000Y-107250000D03*
X173262000Y-107250000D03*
X173262000Y-105750000D03*
X174024000Y-105750000D03*
X174024000Y-107250000D03*
%TD*%
%TO.C,mouse-bite-3mm-slot*%
X155274000Y-107250000D03*
X155274000Y-105750000D03*
X154512000Y-105750000D03*
X154512000Y-107250000D03*
X153738000Y-107250000D03*
X152238000Y-107250000D03*
X152238000Y-105750000D03*
X153738000Y-105750000D03*
X152988000Y-107250000D03*
X152988000Y-105750000D03*
%TD*%
D11*
%TO.C,J2*%
X206970000Y-90170000D03*
G36*
G01*
X203620000Y-90920000D02*
X203620000Y-89420000D01*
G75*
G02*
X203870000Y-89170000I250000J0D01*
G01*
X205070000Y-89170000D01*
G75*
G02*
X205320000Y-89420000I0J-250000D01*
G01*
X205320000Y-90920000D01*
G75*
G02*
X205070000Y-91170000I-250000J0D01*
G01*
X203870000Y-91170000D01*
G75*
G02*
X203620000Y-90920000I0J250000D01*
G01*
G37*
%TD*%
D12*
%TO.C,J1*%
X177800000Y-98806000D03*
X177800000Y-96266000D03*
X177800000Y-93726000D03*
X177800000Y-91186000D03*
%TD*%
D13*
%TO.C,A1*%
X207010000Y-67310000D03*
D14*
X173990000Y-82550000D03*
X204470000Y-67310000D03*
X176530000Y-82550000D03*
X201930000Y-67310000D03*
X179070000Y-82550000D03*
X199390000Y-67310000D03*
X181610000Y-82550000D03*
X196850000Y-67310000D03*
X184150000Y-82550000D03*
X194310000Y-67310000D03*
X186690000Y-82550000D03*
X191770000Y-67310000D03*
X189230000Y-82550000D03*
X189230000Y-67310000D03*
X191770000Y-82550000D03*
X186690000Y-67310000D03*
X194310000Y-82550000D03*
X184150000Y-67310000D03*
X196850000Y-82550000D03*
X181610000Y-67310000D03*
X199390000Y-82550000D03*
X179070000Y-67310000D03*
X201930000Y-82550000D03*
X176530000Y-67310000D03*
X204470000Y-82550000D03*
X173990000Y-67310000D03*
X207010000Y-82550000D03*
X171450000Y-67310000D03*
X171450000Y-82550000D03*
%TD*%
D15*
%TO.C,H1*%
X153670000Y-80645000D03*
D16*
X156070000Y-80645000D03*
X155367056Y-82342056D03*
X153670000Y-83045000D03*
X151972944Y-82342056D03*
X151270000Y-80645000D03*
X151972944Y-78947944D03*
X153670000Y-78245000D03*
X155367056Y-78947944D03*
%TD*%
%TO.C,H2*%
X218867056Y-73232944D03*
X217170000Y-72530000D03*
X215472944Y-73232944D03*
X214770000Y-74930000D03*
X215472944Y-76627056D03*
X217170000Y-77330000D03*
X218867056Y-76627056D03*
X219570000Y-74930000D03*
D15*
X217170000Y-74930000D03*
%TD*%
%TO.C,H3*%
X230632000Y-101600000D03*
D16*
X233032000Y-101600000D03*
X232329056Y-103297056D03*
X230632000Y-104000000D03*
X228934944Y-103297056D03*
X228232000Y-101600000D03*
X228934944Y-99902944D03*
X230632000Y-99200000D03*
X232329056Y-99902944D03*
%TD*%
%TO.C,H4*%
X146985056Y-99902944D03*
X145288000Y-99200000D03*
X143590944Y-99902944D03*
X142888000Y-101600000D03*
X143590944Y-103297056D03*
X145288000Y-104000000D03*
X146985056Y-103297056D03*
X147688000Y-101600000D03*
D15*
X145288000Y-101600000D03*
%TD*%
M02*
