%TF.GenerationSoftware,KiCad,Pcbnew,(5.1.9)-1*%
%TF.CreationDate,2021-03-10T13:01:27-03:00*%
%TF.ProjectId,pedal_board,70656461-6c5f-4626-9f61-72642e6b6963,rev?*%
%TF.SameCoordinates,Original*%
%TF.FileFunction,Copper,L2,Bot*%
%TF.FilePolarity,Positive*%
%FSLAX46Y46*%
G04 Gerber Fmt 4.6, Leading zero omitted, Abs format (unit mm)*
G04 Created by KiCad (PCBNEW (5.1.9)-1) date 2021-03-10 13:01:27*
%MOMM*%
%LPD*%
G01*
G04 APERTURE LIST*
%TA.AperFunction,ComponentPad*%
%ADD10O,1.700000X2.000000*%
%TD*%
%TA.AperFunction,ComponentPad*%
%ADD11C,1.524000*%
%TD*%
%TA.AperFunction,ComponentPad*%
%ADD12R,1.600000X1.600000*%
%TD*%
%TA.AperFunction,ComponentPad*%
%ADD13O,1.600000X1.600000*%
%TD*%
%TA.AperFunction,ComponentPad*%
%ADD14C,6.400000*%
%TD*%
%TA.AperFunction,ComponentPad*%
%ADD15C,0.800000*%
%TD*%
%TA.AperFunction,Conductor*%
%ADD16C,0.254000*%
%TD*%
%TA.AperFunction,Conductor*%
%ADD17C,0.100000*%
%TD*%
G04 APERTURE END LIST*
D10*
%TO.P,J2,2*%
%TO.N,/Vin*%
X206970000Y-90170000D03*
%TO.P,J2,1*%
%TO.N,GND*%
%TA.AperFunction,ComponentPad*%
G36*
G01*
X203620000Y-90920000D02*
X203620000Y-89420000D01*
G75*
G02*
X203870000Y-89170000I250000J0D01*
G01*
X205070000Y-89170000D01*
G75*
G02*
X205320000Y-89420000I0J-250000D01*
G01*
X205320000Y-90920000D01*
G75*
G02*
X205070000Y-91170000I-250000J0D01*
G01*
X203870000Y-91170000D01*
G75*
G02*
X203620000Y-90920000I0J250000D01*
G01*
G37*
%TD.AperFunction*%
%TD*%
D11*
%TO.P,J1,4*%
%TO.N,+5V*%
X177800000Y-98806000D03*
%TO.P,J1,3*%
%TO.N,/SCK*%
X177800000Y-96266000D03*
%TO.P,J1,2*%
%TO.N,/DT*%
X177800000Y-93726000D03*
%TO.P,J1,1*%
%TO.N,GND*%
X177800000Y-91186000D03*
%TD*%
D12*
%TO.P,A1,1*%
%TO.N,Net-(A1-Pad1)*%
X207010000Y-66675000D03*
D13*
%TO.P,A1,17*%
%TO.N,+3V3*%
X173990000Y-81915000D03*
%TO.P,A1,2*%
%TO.N,Net-(A1-Pad2)*%
X204470000Y-66675000D03*
%TO.P,A1,18*%
%TO.N,Net-(A1-Pad18)*%
X176530000Y-81915000D03*
%TO.P,A1,3*%
%TO.N,Net-(A1-Pad3)*%
X201930000Y-66675000D03*
%TO.P,A1,19*%
%TO.N,Net-(A1-Pad19)*%
X179070000Y-81915000D03*
%TO.P,A1,4*%
%TO.N,GND*%
X199390000Y-66675000D03*
%TO.P,A1,20*%
%TO.N,Net-(A1-Pad20)*%
X181610000Y-81915000D03*
%TO.P,A1,5*%
%TO.N,/SCK*%
X196850000Y-66675000D03*
%TO.P,A1,21*%
%TO.N,Net-(A1-Pad21)*%
X184150000Y-81915000D03*
%TO.P,A1,6*%
%TO.N,/DT*%
X194310000Y-66675000D03*
%TO.P,A1,22*%
%TO.N,Net-(A1-Pad22)*%
X186690000Y-81915000D03*
%TO.P,A1,7*%
%TO.N,Net-(A1-Pad7)*%
X191770000Y-66675000D03*
%TO.P,A1,23*%
%TO.N,Net-(A1-Pad23)*%
X189230000Y-81915000D03*
%TO.P,A1,8*%
%TO.N,Net-(A1-Pad8)*%
X189230000Y-66675000D03*
%TO.P,A1,24*%
%TO.N,Net-(A1-Pad24)*%
X191770000Y-81915000D03*
%TO.P,A1,9*%
%TO.N,Net-(A1-Pad9)*%
X186690000Y-66675000D03*
%TO.P,A1,25*%
%TO.N,Net-(A1-Pad25)*%
X194310000Y-81915000D03*
%TO.P,A1,10*%
%TO.N,Net-(A1-Pad10)*%
X184150000Y-66675000D03*
%TO.P,A1,26*%
%TO.N,Net-(A1-Pad26)*%
X196850000Y-81915000D03*
%TO.P,A1,11*%
%TO.N,Net-(A1-Pad11)*%
X181610000Y-66675000D03*
%TO.P,A1,27*%
%TO.N,+5V*%
X199390000Y-81915000D03*
%TO.P,A1,12*%
%TO.N,Net-(A1-Pad12)*%
X179070000Y-66675000D03*
%TO.P,A1,28*%
%TO.N,Net-(A1-Pad28)*%
X201930000Y-81915000D03*
%TO.P,A1,13*%
%TO.N,Net-(A1-Pad13)*%
X176530000Y-66675000D03*
%TO.P,A1,29*%
%TO.N,GND*%
X204470000Y-81915000D03*
%TO.P,A1,14*%
%TO.N,Net-(A1-Pad14)*%
X173990000Y-66675000D03*
%TO.P,A1,30*%
%TO.N,/Vin*%
X207010000Y-81915000D03*
%TO.P,A1,15*%
%TO.N,Net-(A1-Pad15)*%
X171450000Y-66675000D03*
%TO.P,A1,16*%
%TO.N,Net-(A1-Pad16)*%
X171450000Y-81915000D03*
%TD*%
D14*
%TO.P,H1,1*%
%TO.N,N/C*%
X153670000Y-80645000D03*
D15*
X156070000Y-80645000D03*
X155367056Y-82342056D03*
X153670000Y-83045000D03*
X151972944Y-82342056D03*
X151270000Y-80645000D03*
X151972944Y-78947944D03*
X153670000Y-78245000D03*
X155367056Y-78947944D03*
%TD*%
%TO.P,H2,1*%
%TO.N,N/C*%
X222367056Y-78947944D03*
X220670000Y-78245000D03*
X218972944Y-78947944D03*
X218270000Y-80645000D03*
X218972944Y-82342056D03*
X220670000Y-83045000D03*
X222367056Y-82342056D03*
X223070000Y-80645000D03*
D14*
X220670000Y-80645000D03*
%TD*%
%TO.P,H3,1*%
%TO.N,N/C*%
X230632000Y-101600000D03*
D15*
X233032000Y-101600000D03*
X232329056Y-103297056D03*
X230632000Y-104000000D03*
X228934944Y-103297056D03*
X228232000Y-101600000D03*
X228934944Y-99902944D03*
X230632000Y-99200000D03*
X232329056Y-99902944D03*
%TD*%
%TO.P,H4,1*%
%TO.N,N/C*%
X146985056Y-99902944D03*
X145288000Y-99200000D03*
X143590944Y-99902944D03*
X142888000Y-101600000D03*
X143590944Y-103297056D03*
X145288000Y-104000000D03*
X146985056Y-103297056D03*
X147688000Y-101600000D03*
D14*
X145288000Y-101600000D03*
%TD*%
D16*
%TO.N,+5V*%
X189939462Y-59225910D02*
X192599967Y-59414283D01*
X195245219Y-59755495D01*
X197866433Y-60248410D01*
X200454939Y-60891397D01*
X203002146Y-61682326D01*
X205499592Y-62618569D01*
X207939004Y-63697021D01*
X210312279Y-64914101D01*
X212611568Y-66265786D01*
X214829251Y-67747593D01*
X216957936Y-69354588D01*
X218990600Y-71081464D01*
X220920475Y-72922473D01*
X222741181Y-74871530D01*
X224446679Y-76922168D01*
X226031285Y-79067552D01*
X227489787Y-81300626D01*
X228817321Y-83613950D01*
X230009483Y-85999839D01*
X231062330Y-88450407D01*
X231972373Y-90957535D01*
X232736579Y-93512864D01*
X233352427Y-96107968D01*
X233817867Y-98734202D01*
X233923006Y-99622521D01*
X233610839Y-99155330D01*
X233076670Y-98621161D01*
X232448554Y-98201467D01*
X231750628Y-97912377D01*
X231009715Y-97765000D01*
X230254285Y-97765000D01*
X229513372Y-97912377D01*
X228815446Y-98201467D01*
X228187330Y-98621161D01*
X227653161Y-99155330D01*
X227233467Y-99783446D01*
X226944377Y-100481372D01*
X226797000Y-101222285D01*
X226797000Y-101977715D01*
X226944377Y-102718628D01*
X227233467Y-103416554D01*
X227653161Y-104044670D01*
X228187330Y-104578839D01*
X228540770Y-104815000D01*
X192185000Y-104815000D01*
X192185000Y-89420000D01*
X202981928Y-89420000D01*
X202981928Y-90920000D01*
X202998992Y-91093254D01*
X203049528Y-91259850D01*
X203131595Y-91413386D01*
X203242038Y-91547962D01*
X203376614Y-91658405D01*
X203530150Y-91740472D01*
X203696746Y-91791008D01*
X203870000Y-91808072D01*
X205070000Y-91808072D01*
X205243254Y-91791008D01*
X205409850Y-91740472D01*
X205563386Y-91658405D01*
X205697962Y-91547962D01*
X205808405Y-91413386D01*
X205862777Y-91311663D01*
X205914866Y-91375134D01*
X206140987Y-91560706D01*
X206398967Y-91698599D01*
X206678890Y-91783513D01*
X206970000Y-91812185D01*
X207261111Y-91783513D01*
X207541034Y-91698599D01*
X207799014Y-91560706D01*
X208025134Y-91375134D01*
X208210706Y-91149014D01*
X208348599Y-90891033D01*
X208433513Y-90611110D01*
X208455000Y-90392949D01*
X208455000Y-89947050D01*
X208433513Y-89728889D01*
X208348599Y-89448966D01*
X208210706Y-89190986D01*
X208025134Y-88964866D01*
X207799013Y-88779294D01*
X207541033Y-88641401D01*
X207261110Y-88556487D01*
X206970000Y-88527815D01*
X206678889Y-88556487D01*
X206398966Y-88641401D01*
X206140986Y-88779294D01*
X205914866Y-88964866D01*
X205862777Y-89028337D01*
X205808405Y-88926614D01*
X205697962Y-88792038D01*
X205563386Y-88681595D01*
X205409850Y-88599528D01*
X205243254Y-88548992D01*
X205070000Y-88531928D01*
X203870000Y-88531928D01*
X203696746Y-88548992D01*
X203530150Y-88599528D01*
X203376614Y-88681595D01*
X203242038Y-88792038D01*
X203131595Y-88926614D01*
X203049528Y-89080150D01*
X202998992Y-89246746D01*
X202981928Y-89420000D01*
X192185000Y-89420000D01*
X192185000Y-88033647D01*
X192188314Y-88000000D01*
X192175088Y-87865717D01*
X192135919Y-87736594D01*
X192072312Y-87617593D01*
X191986711Y-87513289D01*
X191882407Y-87427688D01*
X191763406Y-87364081D01*
X191634283Y-87324912D01*
X191533647Y-87315000D01*
X191500000Y-87311686D01*
X191466353Y-87315000D01*
X184533647Y-87315000D01*
X184500000Y-87311686D01*
X184466353Y-87315000D01*
X184365717Y-87324912D01*
X184236594Y-87364081D01*
X184117593Y-87427688D01*
X184013289Y-87513289D01*
X183927688Y-87617593D01*
X183864081Y-87736594D01*
X183824912Y-87865717D01*
X183811686Y-88000000D01*
X183815001Y-88033657D01*
X183815000Y-104815000D01*
X165691353Y-104815000D01*
X165657169Y-104818367D01*
X165644193Y-104818367D01*
X165634681Y-104819366D01*
X165440732Y-104841121D01*
X165380024Y-104854025D01*
X165319099Y-104866089D01*
X165309962Y-104868917D01*
X165123932Y-104927930D01*
X165066882Y-104952382D01*
X165009470Y-104976046D01*
X165001056Y-104980595D01*
X164967813Y-104998870D01*
X164918205Y-104965723D01*
X164757145Y-104899010D01*
X164586165Y-104865000D01*
X164411835Y-104865000D01*
X164240855Y-104899010D01*
X164118000Y-104949898D01*
X163995145Y-104899010D01*
X163824165Y-104865000D01*
X163649835Y-104865000D01*
X163478855Y-104899010D01*
X163350000Y-104952383D01*
X163221145Y-104899010D01*
X163050165Y-104865000D01*
X162875835Y-104865000D01*
X162704855Y-104899010D01*
X162588000Y-104947413D01*
X162471145Y-104899010D01*
X162300165Y-104865000D01*
X162125835Y-104865000D01*
X161954855Y-104899010D01*
X161838000Y-104947413D01*
X161721145Y-104899010D01*
X161550165Y-104865000D01*
X161375835Y-104865000D01*
X161204855Y-104899010D01*
X161043795Y-104965723D01*
X160988237Y-105002846D01*
X160927657Y-104970635D01*
X160870261Y-104946978D01*
X160813193Y-104922519D01*
X160804057Y-104919690D01*
X160617220Y-104863281D01*
X160556302Y-104851219D01*
X160495590Y-104838314D01*
X160486078Y-104837314D01*
X160291845Y-104818269D01*
X160291837Y-104818269D01*
X160258647Y-104815000D01*
X147379230Y-104815000D01*
X147732670Y-104578839D01*
X148266839Y-104044670D01*
X148686533Y-103416554D01*
X148975623Y-102718628D01*
X149123000Y-101977715D01*
X149123000Y-101222285D01*
X148975623Y-100481372D01*
X148686533Y-99783446D01*
X148678595Y-99771565D01*
X177014040Y-99771565D01*
X177081020Y-100011656D01*
X177330048Y-100128756D01*
X177597135Y-100195023D01*
X177872017Y-100207910D01*
X178144133Y-100166922D01*
X178403023Y-100073636D01*
X178518980Y-100011656D01*
X178585960Y-99771565D01*
X177800000Y-98985605D01*
X177014040Y-99771565D01*
X148678595Y-99771565D01*
X148266839Y-99155330D01*
X147989526Y-98878017D01*
X176398090Y-98878017D01*
X176439078Y-99150133D01*
X176532364Y-99409023D01*
X176594344Y-99524980D01*
X176834435Y-99591960D01*
X177620395Y-98806000D01*
X177979605Y-98806000D01*
X178765565Y-99591960D01*
X179005656Y-99524980D01*
X179122756Y-99275952D01*
X179189023Y-99008865D01*
X179201910Y-98733983D01*
X179160922Y-98461867D01*
X179067636Y-98202977D01*
X179005656Y-98087020D01*
X178765565Y-98020040D01*
X177979605Y-98806000D01*
X177620395Y-98806000D01*
X176834435Y-98020040D01*
X176594344Y-98087020D01*
X176477244Y-98336048D01*
X176410977Y-98603135D01*
X176398090Y-98878017D01*
X147989526Y-98878017D01*
X147732670Y-98621161D01*
X147104554Y-98201467D01*
X146406628Y-97912377D01*
X145665715Y-97765000D01*
X144910285Y-97765000D01*
X144169372Y-97912377D01*
X143471446Y-98201467D01*
X142843330Y-98621161D01*
X142309161Y-99155330D01*
X142093524Y-99478053D01*
X142374941Y-97537158D01*
X142908971Y-94923991D01*
X143592536Y-92345910D01*
X144017878Y-91048408D01*
X176403000Y-91048408D01*
X176403000Y-91323592D01*
X176456686Y-91593490D01*
X176561995Y-91847727D01*
X176714880Y-92076535D01*
X176909465Y-92271120D01*
X177138273Y-92424005D01*
X177215515Y-92456000D01*
X177138273Y-92487995D01*
X176909465Y-92640880D01*
X176714880Y-92835465D01*
X176561995Y-93064273D01*
X176456686Y-93318510D01*
X176403000Y-93588408D01*
X176403000Y-93863592D01*
X176456686Y-94133490D01*
X176561995Y-94387727D01*
X176714880Y-94616535D01*
X176909465Y-94811120D01*
X177138273Y-94964005D01*
X177215515Y-94996000D01*
X177138273Y-95027995D01*
X176909465Y-95180880D01*
X176714880Y-95375465D01*
X176561995Y-95604273D01*
X176456686Y-95858510D01*
X176403000Y-96128408D01*
X176403000Y-96403592D01*
X176456686Y-96673490D01*
X176561995Y-96927727D01*
X176714880Y-97156535D01*
X176909465Y-97351120D01*
X177138273Y-97504005D01*
X177209943Y-97533692D01*
X177196977Y-97538364D01*
X177081020Y-97600344D01*
X177014040Y-97840435D01*
X177800000Y-98626395D01*
X178585960Y-97840435D01*
X178518980Y-97600344D01*
X178383240Y-97536515D01*
X178461727Y-97504005D01*
X178690535Y-97351120D01*
X178885120Y-97156535D01*
X179038005Y-96927727D01*
X179143314Y-96673490D01*
X179197000Y-96403592D01*
X179197000Y-96128408D01*
X179143314Y-95858510D01*
X179038005Y-95604273D01*
X178885120Y-95375465D01*
X178690535Y-95180880D01*
X178461727Y-95027995D01*
X178384485Y-94996000D01*
X178461727Y-94964005D01*
X178690535Y-94811120D01*
X178885120Y-94616535D01*
X179038005Y-94387727D01*
X179143314Y-94133490D01*
X179197000Y-93863592D01*
X179197000Y-93588408D01*
X179143314Y-93318510D01*
X179038005Y-93064273D01*
X178885120Y-92835465D01*
X178690535Y-92640880D01*
X178461727Y-92487995D01*
X178384485Y-92456000D01*
X178461727Y-92424005D01*
X178690535Y-92271120D01*
X178885120Y-92076535D01*
X179038005Y-91847727D01*
X179143314Y-91593490D01*
X179197000Y-91323592D01*
X179197000Y-91048408D01*
X179143314Y-90778510D01*
X179038005Y-90524273D01*
X178885120Y-90295465D01*
X178690535Y-90100880D01*
X178461727Y-89947995D01*
X178207490Y-89842686D01*
X177937592Y-89789000D01*
X177662408Y-89789000D01*
X177392510Y-89842686D01*
X177138273Y-89947995D01*
X176909465Y-90100880D01*
X176714880Y-90295465D01*
X176561995Y-90524273D01*
X176456686Y-90778510D01*
X176403000Y-91048408D01*
X144017878Y-91048408D01*
X144423371Y-89811459D01*
X145398733Y-87329011D01*
X146515364Y-84906848D01*
X147769575Y-82552978D01*
X149157211Y-80275197D01*
X149162679Y-80267285D01*
X149835000Y-80267285D01*
X149835000Y-81022715D01*
X149982377Y-81763628D01*
X150271467Y-82461554D01*
X150691161Y-83089670D01*
X151225330Y-83623839D01*
X151853446Y-84043533D01*
X152551372Y-84332623D01*
X153292285Y-84480000D01*
X154047715Y-84480000D01*
X154788628Y-84332623D01*
X155486554Y-84043533D01*
X156114670Y-83623839D01*
X156648839Y-83089670D01*
X157068533Y-82461554D01*
X157353465Y-81773665D01*
X170015000Y-81773665D01*
X170015000Y-82056335D01*
X170070147Y-82333574D01*
X170178320Y-82594727D01*
X170335363Y-82829759D01*
X170535241Y-83029637D01*
X170770273Y-83186680D01*
X171031426Y-83294853D01*
X171308665Y-83350000D01*
X171591335Y-83350000D01*
X171868574Y-83294853D01*
X172129727Y-83186680D01*
X172364759Y-83029637D01*
X172564637Y-82829759D01*
X172720000Y-82597241D01*
X172875363Y-82829759D01*
X173075241Y-83029637D01*
X173310273Y-83186680D01*
X173571426Y-83294853D01*
X173848665Y-83350000D01*
X174131335Y-83350000D01*
X174408574Y-83294853D01*
X174669727Y-83186680D01*
X174904759Y-83029637D01*
X175104637Y-82829759D01*
X175260000Y-82597241D01*
X175415363Y-82829759D01*
X175615241Y-83029637D01*
X175850273Y-83186680D01*
X176111426Y-83294853D01*
X176388665Y-83350000D01*
X176671335Y-83350000D01*
X176948574Y-83294853D01*
X177209727Y-83186680D01*
X177444759Y-83029637D01*
X177644637Y-82829759D01*
X177800000Y-82597241D01*
X177955363Y-82829759D01*
X178155241Y-83029637D01*
X178390273Y-83186680D01*
X178651426Y-83294853D01*
X178928665Y-83350000D01*
X179211335Y-83350000D01*
X179488574Y-83294853D01*
X179749727Y-83186680D01*
X179984759Y-83029637D01*
X180184637Y-82829759D01*
X180340000Y-82597241D01*
X180495363Y-82829759D01*
X180695241Y-83029637D01*
X180930273Y-83186680D01*
X181191426Y-83294853D01*
X181468665Y-83350000D01*
X181751335Y-83350000D01*
X182028574Y-83294853D01*
X182289727Y-83186680D01*
X182524759Y-83029637D01*
X182724637Y-82829759D01*
X182880000Y-82597241D01*
X183035363Y-82829759D01*
X183235241Y-83029637D01*
X183470273Y-83186680D01*
X183731426Y-83294853D01*
X184008665Y-83350000D01*
X184291335Y-83350000D01*
X184568574Y-83294853D01*
X184829727Y-83186680D01*
X185064759Y-83029637D01*
X185264637Y-82829759D01*
X185420000Y-82597241D01*
X185575363Y-82829759D01*
X185775241Y-83029637D01*
X186010273Y-83186680D01*
X186271426Y-83294853D01*
X186548665Y-83350000D01*
X186831335Y-83350000D01*
X187108574Y-83294853D01*
X187369727Y-83186680D01*
X187604759Y-83029637D01*
X187804637Y-82829759D01*
X187960000Y-82597241D01*
X188115363Y-82829759D01*
X188315241Y-83029637D01*
X188550273Y-83186680D01*
X188811426Y-83294853D01*
X189088665Y-83350000D01*
X189371335Y-83350000D01*
X189648574Y-83294853D01*
X189909727Y-83186680D01*
X190144759Y-83029637D01*
X190344637Y-82829759D01*
X190500000Y-82597241D01*
X190655363Y-82829759D01*
X190855241Y-83029637D01*
X191090273Y-83186680D01*
X191351426Y-83294853D01*
X191628665Y-83350000D01*
X191911335Y-83350000D01*
X192188574Y-83294853D01*
X192449727Y-83186680D01*
X192684759Y-83029637D01*
X192884637Y-82829759D01*
X193040000Y-82597241D01*
X193195363Y-82829759D01*
X193395241Y-83029637D01*
X193630273Y-83186680D01*
X193891426Y-83294853D01*
X194168665Y-83350000D01*
X194451335Y-83350000D01*
X194728574Y-83294853D01*
X194989727Y-83186680D01*
X195224759Y-83029637D01*
X195424637Y-82829759D01*
X195580000Y-82597241D01*
X195735363Y-82829759D01*
X195935241Y-83029637D01*
X196170273Y-83186680D01*
X196431426Y-83294853D01*
X196708665Y-83350000D01*
X196991335Y-83350000D01*
X197268574Y-83294853D01*
X197529727Y-83186680D01*
X197764759Y-83029637D01*
X197964637Y-82829759D01*
X198121680Y-82594727D01*
X198126067Y-82584135D01*
X198237615Y-82770131D01*
X198426586Y-82978519D01*
X198652580Y-83146037D01*
X198906913Y-83266246D01*
X199040961Y-83306904D01*
X199263000Y-83184915D01*
X199263000Y-82042000D01*
X199243000Y-82042000D01*
X199243000Y-81788000D01*
X199263000Y-81788000D01*
X199263000Y-80645085D01*
X199517000Y-80645085D01*
X199517000Y-81788000D01*
X199537000Y-81788000D01*
X199537000Y-82042000D01*
X199517000Y-82042000D01*
X199517000Y-83184915D01*
X199739039Y-83306904D01*
X199873087Y-83266246D01*
X200127420Y-83146037D01*
X200353414Y-82978519D01*
X200542385Y-82770131D01*
X200653933Y-82584135D01*
X200658320Y-82594727D01*
X200815363Y-82829759D01*
X201015241Y-83029637D01*
X201250273Y-83186680D01*
X201511426Y-83294853D01*
X201788665Y-83350000D01*
X202071335Y-83350000D01*
X202348574Y-83294853D01*
X202609727Y-83186680D01*
X202844759Y-83029637D01*
X203044637Y-82829759D01*
X203200000Y-82597241D01*
X203355363Y-82829759D01*
X203555241Y-83029637D01*
X203790273Y-83186680D01*
X204051426Y-83294853D01*
X204328665Y-83350000D01*
X204611335Y-83350000D01*
X204888574Y-83294853D01*
X205149727Y-83186680D01*
X205384759Y-83029637D01*
X205584637Y-82829759D01*
X205740000Y-82597241D01*
X205895363Y-82829759D01*
X206095241Y-83029637D01*
X206330273Y-83186680D01*
X206591426Y-83294853D01*
X206868665Y-83350000D01*
X207151335Y-83350000D01*
X207428574Y-83294853D01*
X207689727Y-83186680D01*
X207924759Y-83029637D01*
X208124637Y-82829759D01*
X208281680Y-82594727D01*
X208389853Y-82333574D01*
X208445000Y-82056335D01*
X208445000Y-81773665D01*
X208389853Y-81496426D01*
X208281680Y-81235273D01*
X208124637Y-81000241D01*
X207924759Y-80800363D01*
X207689727Y-80643320D01*
X207428574Y-80535147D01*
X207151335Y-80480000D01*
X206868665Y-80480000D01*
X206591426Y-80535147D01*
X206330273Y-80643320D01*
X206095241Y-80800363D01*
X205895363Y-81000241D01*
X205740000Y-81232759D01*
X205584637Y-81000241D01*
X205384759Y-80800363D01*
X205149727Y-80643320D01*
X204888574Y-80535147D01*
X204611335Y-80480000D01*
X204328665Y-80480000D01*
X204051426Y-80535147D01*
X203790273Y-80643320D01*
X203555241Y-80800363D01*
X203355363Y-81000241D01*
X203200000Y-81232759D01*
X203044637Y-81000241D01*
X202844759Y-80800363D01*
X202609727Y-80643320D01*
X202348574Y-80535147D01*
X202071335Y-80480000D01*
X201788665Y-80480000D01*
X201511426Y-80535147D01*
X201250273Y-80643320D01*
X201015241Y-80800363D01*
X200815363Y-81000241D01*
X200658320Y-81235273D01*
X200653933Y-81245865D01*
X200542385Y-81059869D01*
X200353414Y-80851481D01*
X200127420Y-80683963D01*
X199873087Y-80563754D01*
X199739039Y-80523096D01*
X199517000Y-80645085D01*
X199263000Y-80645085D01*
X199040961Y-80523096D01*
X198906913Y-80563754D01*
X198652580Y-80683963D01*
X198426586Y-80851481D01*
X198237615Y-81059869D01*
X198126067Y-81245865D01*
X198121680Y-81235273D01*
X197964637Y-81000241D01*
X197764759Y-80800363D01*
X197529727Y-80643320D01*
X197268574Y-80535147D01*
X196991335Y-80480000D01*
X196708665Y-80480000D01*
X196431426Y-80535147D01*
X196170273Y-80643320D01*
X195935241Y-80800363D01*
X195735363Y-81000241D01*
X195580000Y-81232759D01*
X195424637Y-81000241D01*
X195224759Y-80800363D01*
X194989727Y-80643320D01*
X194728574Y-80535147D01*
X194451335Y-80480000D01*
X194168665Y-80480000D01*
X193891426Y-80535147D01*
X193630273Y-80643320D01*
X193395241Y-80800363D01*
X193195363Y-81000241D01*
X193040000Y-81232759D01*
X192884637Y-81000241D01*
X192684759Y-80800363D01*
X192449727Y-80643320D01*
X192188574Y-80535147D01*
X191911335Y-80480000D01*
X191628665Y-80480000D01*
X191351426Y-80535147D01*
X191090273Y-80643320D01*
X190855241Y-80800363D01*
X190655363Y-81000241D01*
X190500000Y-81232759D01*
X190344637Y-81000241D01*
X190144759Y-80800363D01*
X189909727Y-80643320D01*
X189648574Y-80535147D01*
X189371335Y-80480000D01*
X189088665Y-80480000D01*
X188811426Y-80535147D01*
X188550273Y-80643320D01*
X188315241Y-80800363D01*
X188115363Y-81000241D01*
X187960000Y-81232759D01*
X187804637Y-81000241D01*
X187604759Y-80800363D01*
X187369727Y-80643320D01*
X187108574Y-80535147D01*
X186831335Y-80480000D01*
X186548665Y-80480000D01*
X186271426Y-80535147D01*
X186010273Y-80643320D01*
X185775241Y-80800363D01*
X185575363Y-81000241D01*
X185420000Y-81232759D01*
X185264637Y-81000241D01*
X185064759Y-80800363D01*
X184829727Y-80643320D01*
X184568574Y-80535147D01*
X184291335Y-80480000D01*
X184008665Y-80480000D01*
X183731426Y-80535147D01*
X183470273Y-80643320D01*
X183235241Y-80800363D01*
X183035363Y-81000241D01*
X182880000Y-81232759D01*
X182724637Y-81000241D01*
X182524759Y-80800363D01*
X182289727Y-80643320D01*
X182028574Y-80535147D01*
X181751335Y-80480000D01*
X181468665Y-80480000D01*
X181191426Y-80535147D01*
X180930273Y-80643320D01*
X180695241Y-80800363D01*
X180495363Y-81000241D01*
X180340000Y-81232759D01*
X180184637Y-81000241D01*
X179984759Y-80800363D01*
X179749727Y-80643320D01*
X179488574Y-80535147D01*
X179211335Y-80480000D01*
X178928665Y-80480000D01*
X178651426Y-80535147D01*
X178390273Y-80643320D01*
X178155241Y-80800363D01*
X177955363Y-81000241D01*
X177800000Y-81232759D01*
X177644637Y-81000241D01*
X177444759Y-80800363D01*
X177209727Y-80643320D01*
X176948574Y-80535147D01*
X176671335Y-80480000D01*
X176388665Y-80480000D01*
X176111426Y-80535147D01*
X175850273Y-80643320D01*
X175615241Y-80800363D01*
X175415363Y-81000241D01*
X175260000Y-81232759D01*
X175104637Y-81000241D01*
X174904759Y-80800363D01*
X174669727Y-80643320D01*
X174408574Y-80535147D01*
X174131335Y-80480000D01*
X173848665Y-80480000D01*
X173571426Y-80535147D01*
X173310273Y-80643320D01*
X173075241Y-80800363D01*
X172875363Y-81000241D01*
X172720000Y-81232759D01*
X172564637Y-81000241D01*
X172364759Y-80800363D01*
X172129727Y-80643320D01*
X171868574Y-80535147D01*
X171591335Y-80480000D01*
X171308665Y-80480000D01*
X171031426Y-80535147D01*
X170770273Y-80643320D01*
X170535241Y-80800363D01*
X170335363Y-81000241D01*
X170178320Y-81235273D01*
X170070147Y-81496426D01*
X170015000Y-81773665D01*
X157353465Y-81773665D01*
X157357623Y-81763628D01*
X157505000Y-81022715D01*
X157505000Y-80267285D01*
X216835000Y-80267285D01*
X216835000Y-81022715D01*
X216982377Y-81763628D01*
X217271467Y-82461554D01*
X217691161Y-83089670D01*
X218225330Y-83623839D01*
X218853446Y-84043533D01*
X219551372Y-84332623D01*
X220292285Y-84480000D01*
X221047715Y-84480000D01*
X221788628Y-84332623D01*
X222486554Y-84043533D01*
X223114670Y-83623839D01*
X223648839Y-83089670D01*
X224068533Y-82461554D01*
X224357623Y-81763628D01*
X224505000Y-81022715D01*
X224505000Y-80267285D01*
X224357623Y-79526372D01*
X224068533Y-78828446D01*
X223648839Y-78200330D01*
X223114670Y-77666161D01*
X222486554Y-77246467D01*
X221788628Y-76957377D01*
X221047715Y-76810000D01*
X220292285Y-76810000D01*
X219551372Y-76957377D01*
X218853446Y-77246467D01*
X218225330Y-77666161D01*
X217691161Y-78200330D01*
X217271467Y-78828446D01*
X216982377Y-79526372D01*
X216835000Y-80267285D01*
X157505000Y-80267285D01*
X157357623Y-79526372D01*
X157068533Y-78828446D01*
X156648839Y-78200330D01*
X156114670Y-77666161D01*
X155486554Y-77246467D01*
X154788628Y-76957377D01*
X154047715Y-76810000D01*
X153292285Y-76810000D01*
X152551372Y-76957377D01*
X151853446Y-77246467D01*
X151225330Y-77666161D01*
X150691161Y-78200330D01*
X150271467Y-78828446D01*
X149982377Y-79526372D01*
X149835000Y-80267285D01*
X149162679Y-80267285D01*
X150673656Y-78081084D01*
X152313899Y-75977888D01*
X154072486Y-73972604D01*
X155943591Y-72071875D01*
X157920998Y-70282015D01*
X159998171Y-68608939D01*
X162168190Y-67058220D01*
X162999559Y-66533665D01*
X170015000Y-66533665D01*
X170015000Y-66816335D01*
X170070147Y-67093574D01*
X170178320Y-67354727D01*
X170335363Y-67589759D01*
X170535241Y-67789637D01*
X170770273Y-67946680D01*
X171031426Y-68054853D01*
X171308665Y-68110000D01*
X171591335Y-68110000D01*
X171868574Y-68054853D01*
X172129727Y-67946680D01*
X172364759Y-67789637D01*
X172564637Y-67589759D01*
X172720000Y-67357241D01*
X172875363Y-67589759D01*
X173075241Y-67789637D01*
X173310273Y-67946680D01*
X173571426Y-68054853D01*
X173848665Y-68110000D01*
X174131335Y-68110000D01*
X174408574Y-68054853D01*
X174669727Y-67946680D01*
X174904759Y-67789637D01*
X175104637Y-67589759D01*
X175260000Y-67357241D01*
X175415363Y-67589759D01*
X175615241Y-67789637D01*
X175850273Y-67946680D01*
X176111426Y-68054853D01*
X176388665Y-68110000D01*
X176671335Y-68110000D01*
X176948574Y-68054853D01*
X177209727Y-67946680D01*
X177444759Y-67789637D01*
X177644637Y-67589759D01*
X177800000Y-67357241D01*
X177955363Y-67589759D01*
X178155241Y-67789637D01*
X178390273Y-67946680D01*
X178651426Y-68054853D01*
X178928665Y-68110000D01*
X179211335Y-68110000D01*
X179488574Y-68054853D01*
X179749727Y-67946680D01*
X179984759Y-67789637D01*
X180184637Y-67589759D01*
X180340000Y-67357241D01*
X180495363Y-67589759D01*
X180695241Y-67789637D01*
X180930273Y-67946680D01*
X181191426Y-68054853D01*
X181468665Y-68110000D01*
X181751335Y-68110000D01*
X182028574Y-68054853D01*
X182289727Y-67946680D01*
X182524759Y-67789637D01*
X182724637Y-67589759D01*
X182880000Y-67357241D01*
X183035363Y-67589759D01*
X183235241Y-67789637D01*
X183470273Y-67946680D01*
X183731426Y-68054853D01*
X184008665Y-68110000D01*
X184291335Y-68110000D01*
X184568574Y-68054853D01*
X184829727Y-67946680D01*
X185064759Y-67789637D01*
X185264637Y-67589759D01*
X185420000Y-67357241D01*
X185575363Y-67589759D01*
X185775241Y-67789637D01*
X186010273Y-67946680D01*
X186271426Y-68054853D01*
X186548665Y-68110000D01*
X186831335Y-68110000D01*
X187108574Y-68054853D01*
X187369727Y-67946680D01*
X187604759Y-67789637D01*
X187804637Y-67589759D01*
X187960000Y-67357241D01*
X188115363Y-67589759D01*
X188315241Y-67789637D01*
X188550273Y-67946680D01*
X188811426Y-68054853D01*
X189088665Y-68110000D01*
X189371335Y-68110000D01*
X189648574Y-68054853D01*
X189909727Y-67946680D01*
X190144759Y-67789637D01*
X190344637Y-67589759D01*
X190500000Y-67357241D01*
X190655363Y-67589759D01*
X190855241Y-67789637D01*
X191090273Y-67946680D01*
X191351426Y-68054853D01*
X191628665Y-68110000D01*
X191911335Y-68110000D01*
X192188574Y-68054853D01*
X192449727Y-67946680D01*
X192684759Y-67789637D01*
X192884637Y-67589759D01*
X193040000Y-67357241D01*
X193195363Y-67589759D01*
X193395241Y-67789637D01*
X193630273Y-67946680D01*
X193891426Y-68054853D01*
X194168665Y-68110000D01*
X194451335Y-68110000D01*
X194728574Y-68054853D01*
X194989727Y-67946680D01*
X195224759Y-67789637D01*
X195424637Y-67589759D01*
X195580000Y-67357241D01*
X195735363Y-67589759D01*
X195935241Y-67789637D01*
X196170273Y-67946680D01*
X196431426Y-68054853D01*
X196708665Y-68110000D01*
X196991335Y-68110000D01*
X197268574Y-68054853D01*
X197529727Y-67946680D01*
X197764759Y-67789637D01*
X197964637Y-67589759D01*
X198120000Y-67357241D01*
X198275363Y-67589759D01*
X198475241Y-67789637D01*
X198710273Y-67946680D01*
X198971426Y-68054853D01*
X199248665Y-68110000D01*
X199531335Y-68110000D01*
X199808574Y-68054853D01*
X200069727Y-67946680D01*
X200304759Y-67789637D01*
X200504637Y-67589759D01*
X200660000Y-67357241D01*
X200815363Y-67589759D01*
X201015241Y-67789637D01*
X201250273Y-67946680D01*
X201511426Y-68054853D01*
X201788665Y-68110000D01*
X202071335Y-68110000D01*
X202348574Y-68054853D01*
X202609727Y-67946680D01*
X202844759Y-67789637D01*
X203044637Y-67589759D01*
X203200000Y-67357241D01*
X203355363Y-67589759D01*
X203555241Y-67789637D01*
X203790273Y-67946680D01*
X204051426Y-68054853D01*
X204328665Y-68110000D01*
X204611335Y-68110000D01*
X204888574Y-68054853D01*
X205149727Y-67946680D01*
X205384759Y-67789637D01*
X205583357Y-67591039D01*
X205584188Y-67599482D01*
X205620498Y-67719180D01*
X205679463Y-67829494D01*
X205758815Y-67926185D01*
X205855506Y-68005537D01*
X205965820Y-68064502D01*
X206085518Y-68100812D01*
X206210000Y-68113072D01*
X207810000Y-68113072D01*
X207934482Y-68100812D01*
X208054180Y-68064502D01*
X208164494Y-68005537D01*
X208261185Y-67926185D01*
X208340537Y-67829494D01*
X208399502Y-67719180D01*
X208435812Y-67599482D01*
X208448072Y-67475000D01*
X208448072Y-65875000D01*
X208435812Y-65750518D01*
X208399502Y-65630820D01*
X208340537Y-65520506D01*
X208261185Y-65423815D01*
X208164494Y-65344463D01*
X208054180Y-65285498D01*
X207934482Y-65249188D01*
X207810000Y-65236928D01*
X206210000Y-65236928D01*
X206085518Y-65249188D01*
X205965820Y-65285498D01*
X205855506Y-65344463D01*
X205758815Y-65423815D01*
X205679463Y-65520506D01*
X205620498Y-65630820D01*
X205584188Y-65750518D01*
X205583357Y-65758961D01*
X205384759Y-65560363D01*
X205149727Y-65403320D01*
X204888574Y-65295147D01*
X204611335Y-65240000D01*
X204328665Y-65240000D01*
X204051426Y-65295147D01*
X203790273Y-65403320D01*
X203555241Y-65560363D01*
X203355363Y-65760241D01*
X203200000Y-65992759D01*
X203044637Y-65760241D01*
X202844759Y-65560363D01*
X202609727Y-65403320D01*
X202348574Y-65295147D01*
X202071335Y-65240000D01*
X201788665Y-65240000D01*
X201511426Y-65295147D01*
X201250273Y-65403320D01*
X201015241Y-65560363D01*
X200815363Y-65760241D01*
X200660000Y-65992759D01*
X200504637Y-65760241D01*
X200304759Y-65560363D01*
X200069727Y-65403320D01*
X199808574Y-65295147D01*
X199531335Y-65240000D01*
X199248665Y-65240000D01*
X198971426Y-65295147D01*
X198710273Y-65403320D01*
X198475241Y-65560363D01*
X198275363Y-65760241D01*
X198120000Y-65992759D01*
X197964637Y-65760241D01*
X197764759Y-65560363D01*
X197529727Y-65403320D01*
X197268574Y-65295147D01*
X196991335Y-65240000D01*
X196708665Y-65240000D01*
X196431426Y-65295147D01*
X196170273Y-65403320D01*
X195935241Y-65560363D01*
X195735363Y-65760241D01*
X195580000Y-65992759D01*
X195424637Y-65760241D01*
X195224759Y-65560363D01*
X194989727Y-65403320D01*
X194728574Y-65295147D01*
X194451335Y-65240000D01*
X194168665Y-65240000D01*
X193891426Y-65295147D01*
X193630273Y-65403320D01*
X193395241Y-65560363D01*
X193195363Y-65760241D01*
X193040000Y-65992759D01*
X192884637Y-65760241D01*
X192684759Y-65560363D01*
X192449727Y-65403320D01*
X192188574Y-65295147D01*
X191911335Y-65240000D01*
X191628665Y-65240000D01*
X191351426Y-65295147D01*
X191090273Y-65403320D01*
X190855241Y-65560363D01*
X190655363Y-65760241D01*
X190500000Y-65992759D01*
X190344637Y-65760241D01*
X190144759Y-65560363D01*
X189909727Y-65403320D01*
X189648574Y-65295147D01*
X189371335Y-65240000D01*
X189088665Y-65240000D01*
X188811426Y-65295147D01*
X188550273Y-65403320D01*
X188315241Y-65560363D01*
X188115363Y-65760241D01*
X187960000Y-65992759D01*
X187804637Y-65760241D01*
X187604759Y-65560363D01*
X187369727Y-65403320D01*
X187108574Y-65295147D01*
X186831335Y-65240000D01*
X186548665Y-65240000D01*
X186271426Y-65295147D01*
X186010273Y-65403320D01*
X185775241Y-65560363D01*
X185575363Y-65760241D01*
X185420000Y-65992759D01*
X185264637Y-65760241D01*
X185064759Y-65560363D01*
X184829727Y-65403320D01*
X184568574Y-65295147D01*
X184291335Y-65240000D01*
X184008665Y-65240000D01*
X183731426Y-65295147D01*
X183470273Y-65403320D01*
X183235241Y-65560363D01*
X183035363Y-65760241D01*
X182880000Y-65992759D01*
X182724637Y-65760241D01*
X182524759Y-65560363D01*
X182289727Y-65403320D01*
X182028574Y-65295147D01*
X181751335Y-65240000D01*
X181468665Y-65240000D01*
X181191426Y-65295147D01*
X180930273Y-65403320D01*
X180695241Y-65560363D01*
X180495363Y-65760241D01*
X180340000Y-65992759D01*
X180184637Y-65760241D01*
X179984759Y-65560363D01*
X179749727Y-65403320D01*
X179488574Y-65295147D01*
X179211335Y-65240000D01*
X178928665Y-65240000D01*
X178651426Y-65295147D01*
X178390273Y-65403320D01*
X178155241Y-65560363D01*
X177955363Y-65760241D01*
X177800000Y-65992759D01*
X177644637Y-65760241D01*
X177444759Y-65560363D01*
X177209727Y-65403320D01*
X176948574Y-65295147D01*
X176671335Y-65240000D01*
X176388665Y-65240000D01*
X176111426Y-65295147D01*
X175850273Y-65403320D01*
X175615241Y-65560363D01*
X175415363Y-65760241D01*
X175260000Y-65992759D01*
X175104637Y-65760241D01*
X174904759Y-65560363D01*
X174669727Y-65403320D01*
X174408574Y-65295147D01*
X174131335Y-65240000D01*
X173848665Y-65240000D01*
X173571426Y-65295147D01*
X173310273Y-65403320D01*
X173075241Y-65560363D01*
X172875363Y-65760241D01*
X172720000Y-65992759D01*
X172564637Y-65760241D01*
X172364759Y-65560363D01*
X172129727Y-65403320D01*
X171868574Y-65295147D01*
X171591335Y-65240000D01*
X171308665Y-65240000D01*
X171031426Y-65295147D01*
X170770273Y-65403320D01*
X170535241Y-65560363D01*
X170335363Y-65760241D01*
X170178320Y-65995273D01*
X170070147Y-66256426D01*
X170015000Y-66533665D01*
X162999559Y-66533665D01*
X164423896Y-65634975D01*
X166757773Y-64343947D01*
X169162110Y-63189401D01*
X171628929Y-62175170D01*
X174150000Y-61304634D01*
X176717044Y-60580652D01*
X179321487Y-60005645D01*
X181954718Y-59581514D01*
X184607996Y-59309664D01*
X187272530Y-59190997D01*
X189939462Y-59225910D01*
%TA.AperFunction,Conductor*%
D17*
G36*
X189939462Y-59225910D02*
G01*
X192599967Y-59414283D01*
X195245219Y-59755495D01*
X197866433Y-60248410D01*
X200454939Y-60891397D01*
X203002146Y-61682326D01*
X205499592Y-62618569D01*
X207939004Y-63697021D01*
X210312279Y-64914101D01*
X212611568Y-66265786D01*
X214829251Y-67747593D01*
X216957936Y-69354588D01*
X218990600Y-71081464D01*
X220920475Y-72922473D01*
X222741181Y-74871530D01*
X224446679Y-76922168D01*
X226031285Y-79067552D01*
X227489787Y-81300626D01*
X228817321Y-83613950D01*
X230009483Y-85999839D01*
X231062330Y-88450407D01*
X231972373Y-90957535D01*
X232736579Y-93512864D01*
X233352427Y-96107968D01*
X233817867Y-98734202D01*
X233923006Y-99622521D01*
X233610839Y-99155330D01*
X233076670Y-98621161D01*
X232448554Y-98201467D01*
X231750628Y-97912377D01*
X231009715Y-97765000D01*
X230254285Y-97765000D01*
X229513372Y-97912377D01*
X228815446Y-98201467D01*
X228187330Y-98621161D01*
X227653161Y-99155330D01*
X227233467Y-99783446D01*
X226944377Y-100481372D01*
X226797000Y-101222285D01*
X226797000Y-101977715D01*
X226944377Y-102718628D01*
X227233467Y-103416554D01*
X227653161Y-104044670D01*
X228187330Y-104578839D01*
X228540770Y-104815000D01*
X192185000Y-104815000D01*
X192185000Y-89420000D01*
X202981928Y-89420000D01*
X202981928Y-90920000D01*
X202998992Y-91093254D01*
X203049528Y-91259850D01*
X203131595Y-91413386D01*
X203242038Y-91547962D01*
X203376614Y-91658405D01*
X203530150Y-91740472D01*
X203696746Y-91791008D01*
X203870000Y-91808072D01*
X205070000Y-91808072D01*
X205243254Y-91791008D01*
X205409850Y-91740472D01*
X205563386Y-91658405D01*
X205697962Y-91547962D01*
X205808405Y-91413386D01*
X205862777Y-91311663D01*
X205914866Y-91375134D01*
X206140987Y-91560706D01*
X206398967Y-91698599D01*
X206678890Y-91783513D01*
X206970000Y-91812185D01*
X207261111Y-91783513D01*
X207541034Y-91698599D01*
X207799014Y-91560706D01*
X208025134Y-91375134D01*
X208210706Y-91149014D01*
X208348599Y-90891033D01*
X208433513Y-90611110D01*
X208455000Y-90392949D01*
X208455000Y-89947050D01*
X208433513Y-89728889D01*
X208348599Y-89448966D01*
X208210706Y-89190986D01*
X208025134Y-88964866D01*
X207799013Y-88779294D01*
X207541033Y-88641401D01*
X207261110Y-88556487D01*
X206970000Y-88527815D01*
X206678889Y-88556487D01*
X206398966Y-88641401D01*
X206140986Y-88779294D01*
X205914866Y-88964866D01*
X205862777Y-89028337D01*
X205808405Y-88926614D01*
X205697962Y-88792038D01*
X205563386Y-88681595D01*
X205409850Y-88599528D01*
X205243254Y-88548992D01*
X205070000Y-88531928D01*
X203870000Y-88531928D01*
X203696746Y-88548992D01*
X203530150Y-88599528D01*
X203376614Y-88681595D01*
X203242038Y-88792038D01*
X203131595Y-88926614D01*
X203049528Y-89080150D01*
X202998992Y-89246746D01*
X202981928Y-89420000D01*
X192185000Y-89420000D01*
X192185000Y-88033647D01*
X192188314Y-88000000D01*
X192175088Y-87865717D01*
X192135919Y-87736594D01*
X192072312Y-87617593D01*
X191986711Y-87513289D01*
X191882407Y-87427688D01*
X191763406Y-87364081D01*
X191634283Y-87324912D01*
X191533647Y-87315000D01*
X191500000Y-87311686D01*
X191466353Y-87315000D01*
X184533647Y-87315000D01*
X184500000Y-87311686D01*
X184466353Y-87315000D01*
X184365717Y-87324912D01*
X184236594Y-87364081D01*
X184117593Y-87427688D01*
X184013289Y-87513289D01*
X183927688Y-87617593D01*
X183864081Y-87736594D01*
X183824912Y-87865717D01*
X183811686Y-88000000D01*
X183815001Y-88033657D01*
X183815000Y-104815000D01*
X165691353Y-104815000D01*
X165657169Y-104818367D01*
X165644193Y-104818367D01*
X165634681Y-104819366D01*
X165440732Y-104841121D01*
X165380024Y-104854025D01*
X165319099Y-104866089D01*
X165309962Y-104868917D01*
X165123932Y-104927930D01*
X165066882Y-104952382D01*
X165009470Y-104976046D01*
X165001056Y-104980595D01*
X164967813Y-104998870D01*
X164918205Y-104965723D01*
X164757145Y-104899010D01*
X164586165Y-104865000D01*
X164411835Y-104865000D01*
X164240855Y-104899010D01*
X164118000Y-104949898D01*
X163995145Y-104899010D01*
X163824165Y-104865000D01*
X163649835Y-104865000D01*
X163478855Y-104899010D01*
X163350000Y-104952383D01*
X163221145Y-104899010D01*
X163050165Y-104865000D01*
X162875835Y-104865000D01*
X162704855Y-104899010D01*
X162588000Y-104947413D01*
X162471145Y-104899010D01*
X162300165Y-104865000D01*
X162125835Y-104865000D01*
X161954855Y-104899010D01*
X161838000Y-104947413D01*
X161721145Y-104899010D01*
X161550165Y-104865000D01*
X161375835Y-104865000D01*
X161204855Y-104899010D01*
X161043795Y-104965723D01*
X160988237Y-105002846D01*
X160927657Y-104970635D01*
X160870261Y-104946978D01*
X160813193Y-104922519D01*
X160804057Y-104919690D01*
X160617220Y-104863281D01*
X160556302Y-104851219D01*
X160495590Y-104838314D01*
X160486078Y-104837314D01*
X160291845Y-104818269D01*
X160291837Y-104818269D01*
X160258647Y-104815000D01*
X147379230Y-104815000D01*
X147732670Y-104578839D01*
X148266839Y-104044670D01*
X148686533Y-103416554D01*
X148975623Y-102718628D01*
X149123000Y-101977715D01*
X149123000Y-101222285D01*
X148975623Y-100481372D01*
X148686533Y-99783446D01*
X148678595Y-99771565D01*
X177014040Y-99771565D01*
X177081020Y-100011656D01*
X177330048Y-100128756D01*
X177597135Y-100195023D01*
X177872017Y-100207910D01*
X178144133Y-100166922D01*
X178403023Y-100073636D01*
X178518980Y-100011656D01*
X178585960Y-99771565D01*
X177800000Y-98985605D01*
X177014040Y-99771565D01*
X148678595Y-99771565D01*
X148266839Y-99155330D01*
X147989526Y-98878017D01*
X176398090Y-98878017D01*
X176439078Y-99150133D01*
X176532364Y-99409023D01*
X176594344Y-99524980D01*
X176834435Y-99591960D01*
X177620395Y-98806000D01*
X177979605Y-98806000D01*
X178765565Y-99591960D01*
X179005656Y-99524980D01*
X179122756Y-99275952D01*
X179189023Y-99008865D01*
X179201910Y-98733983D01*
X179160922Y-98461867D01*
X179067636Y-98202977D01*
X179005656Y-98087020D01*
X178765565Y-98020040D01*
X177979605Y-98806000D01*
X177620395Y-98806000D01*
X176834435Y-98020040D01*
X176594344Y-98087020D01*
X176477244Y-98336048D01*
X176410977Y-98603135D01*
X176398090Y-98878017D01*
X147989526Y-98878017D01*
X147732670Y-98621161D01*
X147104554Y-98201467D01*
X146406628Y-97912377D01*
X145665715Y-97765000D01*
X144910285Y-97765000D01*
X144169372Y-97912377D01*
X143471446Y-98201467D01*
X142843330Y-98621161D01*
X142309161Y-99155330D01*
X142093524Y-99478053D01*
X142374941Y-97537158D01*
X142908971Y-94923991D01*
X143592536Y-92345910D01*
X144017878Y-91048408D01*
X176403000Y-91048408D01*
X176403000Y-91323592D01*
X176456686Y-91593490D01*
X176561995Y-91847727D01*
X176714880Y-92076535D01*
X176909465Y-92271120D01*
X177138273Y-92424005D01*
X177215515Y-92456000D01*
X177138273Y-92487995D01*
X176909465Y-92640880D01*
X176714880Y-92835465D01*
X176561995Y-93064273D01*
X176456686Y-93318510D01*
X176403000Y-93588408D01*
X176403000Y-93863592D01*
X176456686Y-94133490D01*
X176561995Y-94387727D01*
X176714880Y-94616535D01*
X176909465Y-94811120D01*
X177138273Y-94964005D01*
X177215515Y-94996000D01*
X177138273Y-95027995D01*
X176909465Y-95180880D01*
X176714880Y-95375465D01*
X176561995Y-95604273D01*
X176456686Y-95858510D01*
X176403000Y-96128408D01*
X176403000Y-96403592D01*
X176456686Y-96673490D01*
X176561995Y-96927727D01*
X176714880Y-97156535D01*
X176909465Y-97351120D01*
X177138273Y-97504005D01*
X177209943Y-97533692D01*
X177196977Y-97538364D01*
X177081020Y-97600344D01*
X177014040Y-97840435D01*
X177800000Y-98626395D01*
X178585960Y-97840435D01*
X178518980Y-97600344D01*
X178383240Y-97536515D01*
X178461727Y-97504005D01*
X178690535Y-97351120D01*
X178885120Y-97156535D01*
X179038005Y-96927727D01*
X179143314Y-96673490D01*
X179197000Y-96403592D01*
X179197000Y-96128408D01*
X179143314Y-95858510D01*
X179038005Y-95604273D01*
X178885120Y-95375465D01*
X178690535Y-95180880D01*
X178461727Y-95027995D01*
X178384485Y-94996000D01*
X178461727Y-94964005D01*
X178690535Y-94811120D01*
X178885120Y-94616535D01*
X179038005Y-94387727D01*
X179143314Y-94133490D01*
X179197000Y-93863592D01*
X179197000Y-93588408D01*
X179143314Y-93318510D01*
X179038005Y-93064273D01*
X178885120Y-92835465D01*
X178690535Y-92640880D01*
X178461727Y-92487995D01*
X178384485Y-92456000D01*
X178461727Y-92424005D01*
X178690535Y-92271120D01*
X178885120Y-92076535D01*
X179038005Y-91847727D01*
X179143314Y-91593490D01*
X179197000Y-91323592D01*
X179197000Y-91048408D01*
X179143314Y-90778510D01*
X179038005Y-90524273D01*
X178885120Y-90295465D01*
X178690535Y-90100880D01*
X178461727Y-89947995D01*
X178207490Y-89842686D01*
X177937592Y-89789000D01*
X177662408Y-89789000D01*
X177392510Y-89842686D01*
X177138273Y-89947995D01*
X176909465Y-90100880D01*
X176714880Y-90295465D01*
X176561995Y-90524273D01*
X176456686Y-90778510D01*
X176403000Y-91048408D01*
X144017878Y-91048408D01*
X144423371Y-89811459D01*
X145398733Y-87329011D01*
X146515364Y-84906848D01*
X147769575Y-82552978D01*
X149157211Y-80275197D01*
X149162679Y-80267285D01*
X149835000Y-80267285D01*
X149835000Y-81022715D01*
X149982377Y-81763628D01*
X150271467Y-82461554D01*
X150691161Y-83089670D01*
X151225330Y-83623839D01*
X151853446Y-84043533D01*
X152551372Y-84332623D01*
X153292285Y-84480000D01*
X154047715Y-84480000D01*
X154788628Y-84332623D01*
X155486554Y-84043533D01*
X156114670Y-83623839D01*
X156648839Y-83089670D01*
X157068533Y-82461554D01*
X157353465Y-81773665D01*
X170015000Y-81773665D01*
X170015000Y-82056335D01*
X170070147Y-82333574D01*
X170178320Y-82594727D01*
X170335363Y-82829759D01*
X170535241Y-83029637D01*
X170770273Y-83186680D01*
X171031426Y-83294853D01*
X171308665Y-83350000D01*
X171591335Y-83350000D01*
X171868574Y-83294853D01*
X172129727Y-83186680D01*
X172364759Y-83029637D01*
X172564637Y-82829759D01*
X172720000Y-82597241D01*
X172875363Y-82829759D01*
X173075241Y-83029637D01*
X173310273Y-83186680D01*
X173571426Y-83294853D01*
X173848665Y-83350000D01*
X174131335Y-83350000D01*
X174408574Y-83294853D01*
X174669727Y-83186680D01*
X174904759Y-83029637D01*
X175104637Y-82829759D01*
X175260000Y-82597241D01*
X175415363Y-82829759D01*
X175615241Y-83029637D01*
X175850273Y-83186680D01*
X176111426Y-83294853D01*
X176388665Y-83350000D01*
X176671335Y-83350000D01*
X176948574Y-83294853D01*
X177209727Y-83186680D01*
X177444759Y-83029637D01*
X177644637Y-82829759D01*
X177800000Y-82597241D01*
X177955363Y-82829759D01*
X178155241Y-83029637D01*
X178390273Y-83186680D01*
X178651426Y-83294853D01*
X178928665Y-83350000D01*
X179211335Y-83350000D01*
X179488574Y-83294853D01*
X179749727Y-83186680D01*
X179984759Y-83029637D01*
X180184637Y-82829759D01*
X180340000Y-82597241D01*
X180495363Y-82829759D01*
X180695241Y-83029637D01*
X180930273Y-83186680D01*
X181191426Y-83294853D01*
X181468665Y-83350000D01*
X181751335Y-83350000D01*
X182028574Y-83294853D01*
X182289727Y-83186680D01*
X182524759Y-83029637D01*
X182724637Y-82829759D01*
X182880000Y-82597241D01*
X183035363Y-82829759D01*
X183235241Y-83029637D01*
X183470273Y-83186680D01*
X183731426Y-83294853D01*
X184008665Y-83350000D01*
X184291335Y-83350000D01*
X184568574Y-83294853D01*
X184829727Y-83186680D01*
X185064759Y-83029637D01*
X185264637Y-82829759D01*
X185420000Y-82597241D01*
X185575363Y-82829759D01*
X185775241Y-83029637D01*
X186010273Y-83186680D01*
X186271426Y-83294853D01*
X186548665Y-83350000D01*
X186831335Y-83350000D01*
X187108574Y-83294853D01*
X187369727Y-83186680D01*
X187604759Y-83029637D01*
X187804637Y-82829759D01*
X187960000Y-82597241D01*
X188115363Y-82829759D01*
X188315241Y-83029637D01*
X188550273Y-83186680D01*
X188811426Y-83294853D01*
X189088665Y-83350000D01*
X189371335Y-83350000D01*
X189648574Y-83294853D01*
X189909727Y-83186680D01*
X190144759Y-83029637D01*
X190344637Y-82829759D01*
X190500000Y-82597241D01*
X190655363Y-82829759D01*
X190855241Y-83029637D01*
X191090273Y-83186680D01*
X191351426Y-83294853D01*
X191628665Y-83350000D01*
X191911335Y-83350000D01*
X192188574Y-83294853D01*
X192449727Y-83186680D01*
X192684759Y-83029637D01*
X192884637Y-82829759D01*
X193040000Y-82597241D01*
X193195363Y-82829759D01*
X193395241Y-83029637D01*
X193630273Y-83186680D01*
X193891426Y-83294853D01*
X194168665Y-83350000D01*
X194451335Y-83350000D01*
X194728574Y-83294853D01*
X194989727Y-83186680D01*
X195224759Y-83029637D01*
X195424637Y-82829759D01*
X195580000Y-82597241D01*
X195735363Y-82829759D01*
X195935241Y-83029637D01*
X196170273Y-83186680D01*
X196431426Y-83294853D01*
X196708665Y-83350000D01*
X196991335Y-83350000D01*
X197268574Y-83294853D01*
X197529727Y-83186680D01*
X197764759Y-83029637D01*
X197964637Y-82829759D01*
X198121680Y-82594727D01*
X198126067Y-82584135D01*
X198237615Y-82770131D01*
X198426586Y-82978519D01*
X198652580Y-83146037D01*
X198906913Y-83266246D01*
X199040961Y-83306904D01*
X199263000Y-83184915D01*
X199263000Y-82042000D01*
X199243000Y-82042000D01*
X199243000Y-81788000D01*
X199263000Y-81788000D01*
X199263000Y-80645085D01*
X199517000Y-80645085D01*
X199517000Y-81788000D01*
X199537000Y-81788000D01*
X199537000Y-82042000D01*
X199517000Y-82042000D01*
X199517000Y-83184915D01*
X199739039Y-83306904D01*
X199873087Y-83266246D01*
X200127420Y-83146037D01*
X200353414Y-82978519D01*
X200542385Y-82770131D01*
X200653933Y-82584135D01*
X200658320Y-82594727D01*
X200815363Y-82829759D01*
X201015241Y-83029637D01*
X201250273Y-83186680D01*
X201511426Y-83294853D01*
X201788665Y-83350000D01*
X202071335Y-83350000D01*
X202348574Y-83294853D01*
X202609727Y-83186680D01*
X202844759Y-83029637D01*
X203044637Y-82829759D01*
X203200000Y-82597241D01*
X203355363Y-82829759D01*
X203555241Y-83029637D01*
X203790273Y-83186680D01*
X204051426Y-83294853D01*
X204328665Y-83350000D01*
X204611335Y-83350000D01*
X204888574Y-83294853D01*
X205149727Y-83186680D01*
X205384759Y-83029637D01*
X205584637Y-82829759D01*
X205740000Y-82597241D01*
X205895363Y-82829759D01*
X206095241Y-83029637D01*
X206330273Y-83186680D01*
X206591426Y-83294853D01*
X206868665Y-83350000D01*
X207151335Y-83350000D01*
X207428574Y-83294853D01*
X207689727Y-83186680D01*
X207924759Y-83029637D01*
X208124637Y-82829759D01*
X208281680Y-82594727D01*
X208389853Y-82333574D01*
X208445000Y-82056335D01*
X208445000Y-81773665D01*
X208389853Y-81496426D01*
X208281680Y-81235273D01*
X208124637Y-81000241D01*
X207924759Y-80800363D01*
X207689727Y-80643320D01*
X207428574Y-80535147D01*
X207151335Y-80480000D01*
X206868665Y-80480000D01*
X206591426Y-80535147D01*
X206330273Y-80643320D01*
X206095241Y-80800363D01*
X205895363Y-81000241D01*
X205740000Y-81232759D01*
X205584637Y-81000241D01*
X205384759Y-80800363D01*
X205149727Y-80643320D01*
X204888574Y-80535147D01*
X204611335Y-80480000D01*
X204328665Y-80480000D01*
X204051426Y-80535147D01*
X203790273Y-80643320D01*
X203555241Y-80800363D01*
X203355363Y-81000241D01*
X203200000Y-81232759D01*
X203044637Y-81000241D01*
X202844759Y-80800363D01*
X202609727Y-80643320D01*
X202348574Y-80535147D01*
X202071335Y-80480000D01*
X201788665Y-80480000D01*
X201511426Y-80535147D01*
X201250273Y-80643320D01*
X201015241Y-80800363D01*
X200815363Y-81000241D01*
X200658320Y-81235273D01*
X200653933Y-81245865D01*
X200542385Y-81059869D01*
X200353414Y-80851481D01*
X200127420Y-80683963D01*
X199873087Y-80563754D01*
X199739039Y-80523096D01*
X199517000Y-80645085D01*
X199263000Y-80645085D01*
X199040961Y-80523096D01*
X198906913Y-80563754D01*
X198652580Y-80683963D01*
X198426586Y-80851481D01*
X198237615Y-81059869D01*
X198126067Y-81245865D01*
X198121680Y-81235273D01*
X197964637Y-81000241D01*
X197764759Y-80800363D01*
X197529727Y-80643320D01*
X197268574Y-80535147D01*
X196991335Y-80480000D01*
X196708665Y-80480000D01*
X196431426Y-80535147D01*
X196170273Y-80643320D01*
X195935241Y-80800363D01*
X195735363Y-81000241D01*
X195580000Y-81232759D01*
X195424637Y-81000241D01*
X195224759Y-80800363D01*
X194989727Y-80643320D01*
X194728574Y-80535147D01*
X194451335Y-80480000D01*
X194168665Y-80480000D01*
X193891426Y-80535147D01*
X193630273Y-80643320D01*
X193395241Y-80800363D01*
X193195363Y-81000241D01*
X193040000Y-81232759D01*
X192884637Y-81000241D01*
X192684759Y-80800363D01*
X192449727Y-80643320D01*
X192188574Y-80535147D01*
X191911335Y-80480000D01*
X191628665Y-80480000D01*
X191351426Y-80535147D01*
X191090273Y-80643320D01*
X190855241Y-80800363D01*
X190655363Y-81000241D01*
X190500000Y-81232759D01*
X190344637Y-81000241D01*
X190144759Y-80800363D01*
X189909727Y-80643320D01*
X189648574Y-80535147D01*
X189371335Y-80480000D01*
X189088665Y-80480000D01*
X188811426Y-80535147D01*
X188550273Y-80643320D01*
X188315241Y-80800363D01*
X188115363Y-81000241D01*
X187960000Y-81232759D01*
X187804637Y-81000241D01*
X187604759Y-80800363D01*
X187369727Y-80643320D01*
X187108574Y-80535147D01*
X186831335Y-80480000D01*
X186548665Y-80480000D01*
X186271426Y-80535147D01*
X186010273Y-80643320D01*
X185775241Y-80800363D01*
X185575363Y-81000241D01*
X185420000Y-81232759D01*
X185264637Y-81000241D01*
X185064759Y-80800363D01*
X184829727Y-80643320D01*
X184568574Y-80535147D01*
X184291335Y-80480000D01*
X184008665Y-80480000D01*
X183731426Y-80535147D01*
X183470273Y-80643320D01*
X183235241Y-80800363D01*
X183035363Y-81000241D01*
X182880000Y-81232759D01*
X182724637Y-81000241D01*
X182524759Y-80800363D01*
X182289727Y-80643320D01*
X182028574Y-80535147D01*
X181751335Y-80480000D01*
X181468665Y-80480000D01*
X181191426Y-80535147D01*
X180930273Y-80643320D01*
X180695241Y-80800363D01*
X180495363Y-81000241D01*
X180340000Y-81232759D01*
X180184637Y-81000241D01*
X179984759Y-80800363D01*
X179749727Y-80643320D01*
X179488574Y-80535147D01*
X179211335Y-80480000D01*
X178928665Y-80480000D01*
X178651426Y-80535147D01*
X178390273Y-80643320D01*
X178155241Y-80800363D01*
X177955363Y-81000241D01*
X177800000Y-81232759D01*
X177644637Y-81000241D01*
X177444759Y-80800363D01*
X177209727Y-80643320D01*
X176948574Y-80535147D01*
X176671335Y-80480000D01*
X176388665Y-80480000D01*
X176111426Y-80535147D01*
X175850273Y-80643320D01*
X175615241Y-80800363D01*
X175415363Y-81000241D01*
X175260000Y-81232759D01*
X175104637Y-81000241D01*
X174904759Y-80800363D01*
X174669727Y-80643320D01*
X174408574Y-80535147D01*
X174131335Y-80480000D01*
X173848665Y-80480000D01*
X173571426Y-80535147D01*
X173310273Y-80643320D01*
X173075241Y-80800363D01*
X172875363Y-81000241D01*
X172720000Y-81232759D01*
X172564637Y-81000241D01*
X172364759Y-80800363D01*
X172129727Y-80643320D01*
X171868574Y-80535147D01*
X171591335Y-80480000D01*
X171308665Y-80480000D01*
X171031426Y-80535147D01*
X170770273Y-80643320D01*
X170535241Y-80800363D01*
X170335363Y-81000241D01*
X170178320Y-81235273D01*
X170070147Y-81496426D01*
X170015000Y-81773665D01*
X157353465Y-81773665D01*
X157357623Y-81763628D01*
X157505000Y-81022715D01*
X157505000Y-80267285D01*
X216835000Y-80267285D01*
X216835000Y-81022715D01*
X216982377Y-81763628D01*
X217271467Y-82461554D01*
X217691161Y-83089670D01*
X218225330Y-83623839D01*
X218853446Y-84043533D01*
X219551372Y-84332623D01*
X220292285Y-84480000D01*
X221047715Y-84480000D01*
X221788628Y-84332623D01*
X222486554Y-84043533D01*
X223114670Y-83623839D01*
X223648839Y-83089670D01*
X224068533Y-82461554D01*
X224357623Y-81763628D01*
X224505000Y-81022715D01*
X224505000Y-80267285D01*
X224357623Y-79526372D01*
X224068533Y-78828446D01*
X223648839Y-78200330D01*
X223114670Y-77666161D01*
X222486554Y-77246467D01*
X221788628Y-76957377D01*
X221047715Y-76810000D01*
X220292285Y-76810000D01*
X219551372Y-76957377D01*
X218853446Y-77246467D01*
X218225330Y-77666161D01*
X217691161Y-78200330D01*
X217271467Y-78828446D01*
X216982377Y-79526372D01*
X216835000Y-80267285D01*
X157505000Y-80267285D01*
X157357623Y-79526372D01*
X157068533Y-78828446D01*
X156648839Y-78200330D01*
X156114670Y-77666161D01*
X155486554Y-77246467D01*
X154788628Y-76957377D01*
X154047715Y-76810000D01*
X153292285Y-76810000D01*
X152551372Y-76957377D01*
X151853446Y-77246467D01*
X151225330Y-77666161D01*
X150691161Y-78200330D01*
X150271467Y-78828446D01*
X149982377Y-79526372D01*
X149835000Y-80267285D01*
X149162679Y-80267285D01*
X150673656Y-78081084D01*
X152313899Y-75977888D01*
X154072486Y-73972604D01*
X155943591Y-72071875D01*
X157920998Y-70282015D01*
X159998171Y-68608939D01*
X162168190Y-67058220D01*
X162999559Y-66533665D01*
X170015000Y-66533665D01*
X170015000Y-66816335D01*
X170070147Y-67093574D01*
X170178320Y-67354727D01*
X170335363Y-67589759D01*
X170535241Y-67789637D01*
X170770273Y-67946680D01*
X171031426Y-68054853D01*
X171308665Y-68110000D01*
X171591335Y-68110000D01*
X171868574Y-68054853D01*
X172129727Y-67946680D01*
X172364759Y-67789637D01*
X172564637Y-67589759D01*
X172720000Y-67357241D01*
X172875363Y-67589759D01*
X173075241Y-67789637D01*
X173310273Y-67946680D01*
X173571426Y-68054853D01*
X173848665Y-68110000D01*
X174131335Y-68110000D01*
X174408574Y-68054853D01*
X174669727Y-67946680D01*
X174904759Y-67789637D01*
X175104637Y-67589759D01*
X175260000Y-67357241D01*
X175415363Y-67589759D01*
X175615241Y-67789637D01*
X175850273Y-67946680D01*
X176111426Y-68054853D01*
X176388665Y-68110000D01*
X176671335Y-68110000D01*
X176948574Y-68054853D01*
X177209727Y-67946680D01*
X177444759Y-67789637D01*
X177644637Y-67589759D01*
X177800000Y-67357241D01*
X177955363Y-67589759D01*
X178155241Y-67789637D01*
X178390273Y-67946680D01*
X178651426Y-68054853D01*
X178928665Y-68110000D01*
X179211335Y-68110000D01*
X179488574Y-68054853D01*
X179749727Y-67946680D01*
X179984759Y-67789637D01*
X180184637Y-67589759D01*
X180340000Y-67357241D01*
X180495363Y-67589759D01*
X180695241Y-67789637D01*
X180930273Y-67946680D01*
X181191426Y-68054853D01*
X181468665Y-68110000D01*
X181751335Y-68110000D01*
X182028574Y-68054853D01*
X182289727Y-67946680D01*
X182524759Y-67789637D01*
X182724637Y-67589759D01*
X182880000Y-67357241D01*
X183035363Y-67589759D01*
X183235241Y-67789637D01*
X183470273Y-67946680D01*
X183731426Y-68054853D01*
X184008665Y-68110000D01*
X184291335Y-68110000D01*
X184568574Y-68054853D01*
X184829727Y-67946680D01*
X185064759Y-67789637D01*
X185264637Y-67589759D01*
X185420000Y-67357241D01*
X185575363Y-67589759D01*
X185775241Y-67789637D01*
X186010273Y-67946680D01*
X186271426Y-68054853D01*
X186548665Y-68110000D01*
X186831335Y-68110000D01*
X187108574Y-68054853D01*
X187369727Y-67946680D01*
X187604759Y-67789637D01*
X187804637Y-67589759D01*
X187960000Y-67357241D01*
X188115363Y-67589759D01*
X188315241Y-67789637D01*
X188550273Y-67946680D01*
X188811426Y-68054853D01*
X189088665Y-68110000D01*
X189371335Y-68110000D01*
X189648574Y-68054853D01*
X189909727Y-67946680D01*
X190144759Y-67789637D01*
X190344637Y-67589759D01*
X190500000Y-67357241D01*
X190655363Y-67589759D01*
X190855241Y-67789637D01*
X191090273Y-67946680D01*
X191351426Y-68054853D01*
X191628665Y-68110000D01*
X191911335Y-68110000D01*
X192188574Y-68054853D01*
X192449727Y-67946680D01*
X192684759Y-67789637D01*
X192884637Y-67589759D01*
X193040000Y-67357241D01*
X193195363Y-67589759D01*
X193395241Y-67789637D01*
X193630273Y-67946680D01*
X193891426Y-68054853D01*
X194168665Y-68110000D01*
X194451335Y-68110000D01*
X194728574Y-68054853D01*
X194989727Y-67946680D01*
X195224759Y-67789637D01*
X195424637Y-67589759D01*
X195580000Y-67357241D01*
X195735363Y-67589759D01*
X195935241Y-67789637D01*
X196170273Y-67946680D01*
X196431426Y-68054853D01*
X196708665Y-68110000D01*
X196991335Y-68110000D01*
X197268574Y-68054853D01*
X197529727Y-67946680D01*
X197764759Y-67789637D01*
X197964637Y-67589759D01*
X198120000Y-67357241D01*
X198275363Y-67589759D01*
X198475241Y-67789637D01*
X198710273Y-67946680D01*
X198971426Y-68054853D01*
X199248665Y-68110000D01*
X199531335Y-68110000D01*
X199808574Y-68054853D01*
X200069727Y-67946680D01*
X200304759Y-67789637D01*
X200504637Y-67589759D01*
X200660000Y-67357241D01*
X200815363Y-67589759D01*
X201015241Y-67789637D01*
X201250273Y-67946680D01*
X201511426Y-68054853D01*
X201788665Y-68110000D01*
X202071335Y-68110000D01*
X202348574Y-68054853D01*
X202609727Y-67946680D01*
X202844759Y-67789637D01*
X203044637Y-67589759D01*
X203200000Y-67357241D01*
X203355363Y-67589759D01*
X203555241Y-67789637D01*
X203790273Y-67946680D01*
X204051426Y-68054853D01*
X204328665Y-68110000D01*
X204611335Y-68110000D01*
X204888574Y-68054853D01*
X205149727Y-67946680D01*
X205384759Y-67789637D01*
X205583357Y-67591039D01*
X205584188Y-67599482D01*
X205620498Y-67719180D01*
X205679463Y-67829494D01*
X205758815Y-67926185D01*
X205855506Y-68005537D01*
X205965820Y-68064502D01*
X206085518Y-68100812D01*
X206210000Y-68113072D01*
X207810000Y-68113072D01*
X207934482Y-68100812D01*
X208054180Y-68064502D01*
X208164494Y-68005537D01*
X208261185Y-67926185D01*
X208340537Y-67829494D01*
X208399502Y-67719180D01*
X208435812Y-67599482D01*
X208448072Y-67475000D01*
X208448072Y-65875000D01*
X208435812Y-65750518D01*
X208399502Y-65630820D01*
X208340537Y-65520506D01*
X208261185Y-65423815D01*
X208164494Y-65344463D01*
X208054180Y-65285498D01*
X207934482Y-65249188D01*
X207810000Y-65236928D01*
X206210000Y-65236928D01*
X206085518Y-65249188D01*
X205965820Y-65285498D01*
X205855506Y-65344463D01*
X205758815Y-65423815D01*
X205679463Y-65520506D01*
X205620498Y-65630820D01*
X205584188Y-65750518D01*
X205583357Y-65758961D01*
X205384759Y-65560363D01*
X205149727Y-65403320D01*
X204888574Y-65295147D01*
X204611335Y-65240000D01*
X204328665Y-65240000D01*
X204051426Y-65295147D01*
X203790273Y-65403320D01*
X203555241Y-65560363D01*
X203355363Y-65760241D01*
X203200000Y-65992759D01*
X203044637Y-65760241D01*
X202844759Y-65560363D01*
X202609727Y-65403320D01*
X202348574Y-65295147D01*
X202071335Y-65240000D01*
X201788665Y-65240000D01*
X201511426Y-65295147D01*
X201250273Y-65403320D01*
X201015241Y-65560363D01*
X200815363Y-65760241D01*
X200660000Y-65992759D01*
X200504637Y-65760241D01*
X200304759Y-65560363D01*
X200069727Y-65403320D01*
X199808574Y-65295147D01*
X199531335Y-65240000D01*
X199248665Y-65240000D01*
X198971426Y-65295147D01*
X198710273Y-65403320D01*
X198475241Y-65560363D01*
X198275363Y-65760241D01*
X198120000Y-65992759D01*
X197964637Y-65760241D01*
X197764759Y-65560363D01*
X197529727Y-65403320D01*
X197268574Y-65295147D01*
X196991335Y-65240000D01*
X196708665Y-65240000D01*
X196431426Y-65295147D01*
X196170273Y-65403320D01*
X195935241Y-65560363D01*
X195735363Y-65760241D01*
X195580000Y-65992759D01*
X195424637Y-65760241D01*
X195224759Y-65560363D01*
X194989727Y-65403320D01*
X194728574Y-65295147D01*
X194451335Y-65240000D01*
X194168665Y-65240000D01*
X193891426Y-65295147D01*
X193630273Y-65403320D01*
X193395241Y-65560363D01*
X193195363Y-65760241D01*
X193040000Y-65992759D01*
X192884637Y-65760241D01*
X192684759Y-65560363D01*
X192449727Y-65403320D01*
X192188574Y-65295147D01*
X191911335Y-65240000D01*
X191628665Y-65240000D01*
X191351426Y-65295147D01*
X191090273Y-65403320D01*
X190855241Y-65560363D01*
X190655363Y-65760241D01*
X190500000Y-65992759D01*
X190344637Y-65760241D01*
X190144759Y-65560363D01*
X189909727Y-65403320D01*
X189648574Y-65295147D01*
X189371335Y-65240000D01*
X189088665Y-65240000D01*
X188811426Y-65295147D01*
X188550273Y-65403320D01*
X188315241Y-65560363D01*
X188115363Y-65760241D01*
X187960000Y-65992759D01*
X187804637Y-65760241D01*
X187604759Y-65560363D01*
X187369727Y-65403320D01*
X187108574Y-65295147D01*
X186831335Y-65240000D01*
X186548665Y-65240000D01*
X186271426Y-65295147D01*
X186010273Y-65403320D01*
X185775241Y-65560363D01*
X185575363Y-65760241D01*
X185420000Y-65992759D01*
X185264637Y-65760241D01*
X185064759Y-65560363D01*
X184829727Y-65403320D01*
X184568574Y-65295147D01*
X184291335Y-65240000D01*
X184008665Y-65240000D01*
X183731426Y-65295147D01*
X183470273Y-65403320D01*
X183235241Y-65560363D01*
X183035363Y-65760241D01*
X182880000Y-65992759D01*
X182724637Y-65760241D01*
X182524759Y-65560363D01*
X182289727Y-65403320D01*
X182028574Y-65295147D01*
X181751335Y-65240000D01*
X181468665Y-65240000D01*
X181191426Y-65295147D01*
X180930273Y-65403320D01*
X180695241Y-65560363D01*
X180495363Y-65760241D01*
X180340000Y-65992759D01*
X180184637Y-65760241D01*
X179984759Y-65560363D01*
X179749727Y-65403320D01*
X179488574Y-65295147D01*
X179211335Y-65240000D01*
X178928665Y-65240000D01*
X178651426Y-65295147D01*
X178390273Y-65403320D01*
X178155241Y-65560363D01*
X177955363Y-65760241D01*
X177800000Y-65992759D01*
X177644637Y-65760241D01*
X177444759Y-65560363D01*
X177209727Y-65403320D01*
X176948574Y-65295147D01*
X176671335Y-65240000D01*
X176388665Y-65240000D01*
X176111426Y-65295147D01*
X175850273Y-65403320D01*
X175615241Y-65560363D01*
X175415363Y-65760241D01*
X175260000Y-65992759D01*
X175104637Y-65760241D01*
X174904759Y-65560363D01*
X174669727Y-65403320D01*
X174408574Y-65295147D01*
X174131335Y-65240000D01*
X173848665Y-65240000D01*
X173571426Y-65295147D01*
X173310273Y-65403320D01*
X173075241Y-65560363D01*
X172875363Y-65760241D01*
X172720000Y-65992759D01*
X172564637Y-65760241D01*
X172364759Y-65560363D01*
X172129727Y-65403320D01*
X171868574Y-65295147D01*
X171591335Y-65240000D01*
X171308665Y-65240000D01*
X171031426Y-65295147D01*
X170770273Y-65403320D01*
X170535241Y-65560363D01*
X170335363Y-65760241D01*
X170178320Y-65995273D01*
X170070147Y-66256426D01*
X170015000Y-66533665D01*
X162999559Y-66533665D01*
X164423896Y-65634975D01*
X166757773Y-64343947D01*
X169162110Y-63189401D01*
X171628929Y-62175170D01*
X174150000Y-61304634D01*
X176717044Y-60580652D01*
X179321487Y-60005645D01*
X181954718Y-59581514D01*
X184607996Y-59309664D01*
X187272530Y-59190997D01*
X189939462Y-59225910D01*
G37*
%TD.AperFunction*%
%TD*%
M02*
